%TF.GenerationSoftware,KiCad,Pcbnew,9.0.7*%
%TF.CreationDate,2026-01-30T10:33:09-05:00*%
%TF.ProjectId,ALT6 TELEM CPLT EXT,414c5436-2054-4454-9c45-4d2043504c54,rev?*%
%TF.SameCoordinates,Original*%
%TF.FileFunction,Legend,Top*%
%TF.FilePolarity,Positive*%
%FSLAX46Y46*%
G04 Gerber Fmt 4.6, Leading zero omitted, Abs format (unit mm)*
G04 Created by KiCad (PCBNEW 9.0.7) date 2026-01-30 10:33:09*
%MOMM*%
%LPD*%
G01*
G04 APERTURE LIST*
G04 Aperture macros list*
%AMRoundRect*
0 Rectangle with rounded corners*
0 $1 Rounding radius*
0 $2 $3 $4 $5 $6 $7 $8 $9 X,Y pos of 4 corners*
0 Add a 4 corners polygon primitive as box body*
4,1,4,$2,$3,$4,$5,$6,$7,$8,$9,$2,$3,0*
0 Add four circle primitives for the rounded corners*
1,1,$1+$1,$2,$3*
1,1,$1+$1,$4,$5*
1,1,$1+$1,$6,$7*
1,1,$1+$1,$8,$9*
0 Add four rect primitives between the rounded corners*
20,1,$1+$1,$2,$3,$4,$5,0*
20,1,$1+$1,$4,$5,$6,$7,0*
20,1,$1+$1,$6,$7,$8,$9,0*
20,1,$1+$1,$8,$9,$2,$3,0*%
G04 Aperture macros list end*
%ADD10C,0.000000*%
%ADD11C,0.150000*%
%ADD12C,0.200000*%
%ADD13C,0.152400*%
%ADD14C,0.508000*%
%ADD15C,0.127000*%
%ADD16C,1.826200*%
%ADD17C,1.216200*%
%ADD18C,0.010000*%
%ADD19RoundRect,0.102000X0.685000X0.685000X-0.685000X0.685000X-0.685000X-0.685000X0.685000X-0.685000X0*%
%ADD20C,1.574000*%
%ADD21C,5.700000*%
%ADD22R,0.950000X1.400000*%
%ADD23O,1.168400X1.752600*%
%ADD24C,1.320800*%
%ADD25R,0.900000X1.000000*%
G04 APERTURE END LIST*
D10*
G36*
X109804499Y-128966073D02*
G01*
X110025194Y-128979887D01*
X110228712Y-128991033D01*
X110319776Y-128991682D01*
X110401441Y-128986956D01*
X110401441Y-133402849D01*
X104218130Y-146367434D01*
X104805695Y-146023520D01*
X105401778Y-145696507D01*
X106006009Y-145386520D01*
X106618016Y-145093682D01*
X107237429Y-144818116D01*
X107863877Y-144559947D01*
X108496988Y-144319297D01*
X109136393Y-144096291D01*
X109781721Y-143891052D01*
X110432600Y-143703703D01*
X111088660Y-143534369D01*
X111749529Y-143383174D01*
X112414838Y-143250239D01*
X113084215Y-143135691D01*
X113757290Y-143039651D01*
X114433691Y-142962244D01*
X115698393Y-145949396D01*
X115211406Y-145939461D01*
X114708613Y-145958313D01*
X114191822Y-146004525D01*
X113662837Y-146076669D01*
X113123466Y-146173317D01*
X112575514Y-146293042D01*
X111461091Y-146596010D01*
X110334018Y-146974153D01*
X109208743Y-147416047D01*
X108099716Y-147910272D01*
X107021384Y-148445405D01*
X105988197Y-149010025D01*
X105014603Y-149592710D01*
X104115051Y-150182037D01*
X103303990Y-150766587D01*
X102595868Y-151334936D01*
X102005134Y-151875662D01*
X101546237Y-152377345D01*
X101370742Y-152609975D01*
X101233625Y-152828562D01*
X101183208Y-152888224D01*
X101127443Y-152935683D01*
X101066687Y-152971588D01*
X101001300Y-152996587D01*
X100931637Y-153011329D01*
X100858057Y-153016462D01*
X100780917Y-153012636D01*
X100700574Y-153000498D01*
X100617387Y-152980699D01*
X100531713Y-152953886D01*
X100443909Y-152920708D01*
X100354332Y-152881813D01*
X100171293Y-152789471D01*
X99985455Y-152682048D01*
X99799680Y-152564734D01*
X99616826Y-152442719D01*
X99271328Y-152205344D01*
X99114403Y-152100363D01*
X98971842Y-152011439D01*
X98846504Y-151943762D01*
X98791188Y-151919513D01*
X98741251Y-151902521D01*
X98717428Y-151887501D01*
X98694558Y-151871515D01*
X98672654Y-151854605D01*
X98651728Y-151836813D01*
X98631793Y-151818180D01*
X98612861Y-151798747D01*
X98594945Y-151778556D01*
X98578057Y-151757648D01*
X98562210Y-151736064D01*
X98547416Y-151713847D01*
X98533688Y-151691036D01*
X98521038Y-151667675D01*
X98499023Y-151619464D01*
X98481470Y-151569545D01*
X98468480Y-151518249D01*
X98460153Y-151465908D01*
X98457769Y-151439448D01*
X98456589Y-151412852D01*
X98456624Y-151386160D01*
X98457887Y-151359414D01*
X98460391Y-151332654D01*
X98464148Y-151305923D01*
X98469171Y-151279262D01*
X98475472Y-151252713D01*
X98483064Y-151226316D01*
X98491959Y-151200113D01*
X98502169Y-151174145D01*
X98513708Y-151148455D01*
X108919775Y-129296518D01*
X108939862Y-129249891D01*
X108963768Y-129207610D01*
X108991278Y-129169480D01*
X109022182Y-129135303D01*
X109056265Y-129104883D01*
X109093316Y-129078025D01*
X109133122Y-129054532D01*
X109175469Y-129034208D01*
X109220146Y-129016856D01*
X109266939Y-129002281D01*
X109315637Y-128990287D01*
X109366025Y-128980676D01*
X109471026Y-128967823D01*
X109580239Y-128962151D01*
X109691964Y-128962091D01*
X109804499Y-128966073D01*
G37*
G36*
X111333101Y-128975379D02*
G01*
X111459467Y-128983763D01*
X111520701Y-128990960D01*
X111580233Y-129000468D01*
X111637763Y-129012517D01*
X111692991Y-129027336D01*
X111745616Y-129045156D01*
X111795336Y-129066206D01*
X111841850Y-129090718D01*
X111884859Y-129118921D01*
X111924061Y-129151046D01*
X111959154Y-129187322D01*
X111989840Y-129227979D01*
X112015815Y-129273248D01*
X112036781Y-129323359D01*
X112052435Y-129378542D01*
X121439855Y-151627344D01*
X121450636Y-151655411D01*
X121459900Y-151683687D01*
X121467665Y-151712124D01*
X121473952Y-151740675D01*
X121478779Y-151769292D01*
X121482166Y-151797930D01*
X121484132Y-151826539D01*
X121484696Y-151855074D01*
X121483877Y-151883487D01*
X121481695Y-151911730D01*
X121478169Y-151939756D01*
X121473318Y-151967519D01*
X121467161Y-151994971D01*
X121459717Y-152022064D01*
X121451006Y-152048752D01*
X121441047Y-152074987D01*
X121429860Y-152100723D01*
X121417462Y-152125911D01*
X121403875Y-152150504D01*
X121389116Y-152174456D01*
X121373205Y-152197720D01*
X121356161Y-152220247D01*
X121338004Y-152241990D01*
X121318753Y-152262903D01*
X121298426Y-152282939D01*
X121277044Y-152302049D01*
X121254625Y-152320187D01*
X121231188Y-152337305D01*
X121206754Y-152353357D01*
X121181340Y-152368295D01*
X121154967Y-152382072D01*
X121127653Y-152394640D01*
X121075018Y-152405745D01*
X121016139Y-152423262D01*
X120881456Y-152475034D01*
X120727224Y-152544952D01*
X120557062Y-152628012D01*
X120183431Y-152813546D01*
X119987201Y-152906013D01*
X119789522Y-152991608D01*
X119594013Y-153065327D01*
X119498204Y-153096171D01*
X119404295Y-153122169D01*
X119312738Y-153142696D01*
X119223986Y-153157127D01*
X119138493Y-153164837D01*
X119056709Y-153165200D01*
X118979087Y-153157591D01*
X118906081Y-153141383D01*
X118838142Y-153115953D01*
X118775724Y-153080674D01*
X118719278Y-153034921D01*
X118669256Y-152978068D01*
X118626113Y-152909490D01*
X118590299Y-152828562D01*
X116209043Y-147177065D01*
X110409376Y-133418734D01*
X110409376Y-128986956D01*
X110493900Y-128995045D01*
X110592078Y-128996727D01*
X110819769Y-128988237D01*
X111073195Y-128976211D01*
X111203541Y-128973475D01*
X111333101Y-128975379D01*
G37*
G36*
X111578832Y-133418726D02*
G01*
X109668539Y-133418726D01*
X109668539Y-128989603D01*
X111578832Y-128989603D01*
X111578832Y-133418726D01*
G37*
D11*
X76976518Y-149014650D02*
X77944138Y-149014650D01*
X79153661Y-148228460D02*
X78548899Y-148228460D01*
X78548899Y-148228460D02*
X78488423Y-148833222D01*
X78488423Y-148833222D02*
X78548899Y-148772745D01*
X78548899Y-148772745D02*
X78669852Y-148712269D01*
X78669852Y-148712269D02*
X78972233Y-148712269D01*
X78972233Y-148712269D02*
X79093185Y-148772745D01*
X79093185Y-148772745D02*
X79153661Y-148833222D01*
X79153661Y-148833222D02*
X79214138Y-148954174D01*
X79214138Y-148954174D02*
X79214138Y-149256555D01*
X79214138Y-149256555D02*
X79153661Y-149377507D01*
X79153661Y-149377507D02*
X79093185Y-149437984D01*
X79093185Y-149437984D02*
X78972233Y-149498460D01*
X78972233Y-149498460D02*
X78669852Y-149498460D01*
X78669852Y-149498460D02*
X78548899Y-149437984D01*
X78548899Y-149437984D02*
X78488423Y-149377507D01*
X79576995Y-148228460D02*
X80000328Y-149498460D01*
X80000328Y-149498460D02*
X80423662Y-148228460D01*
D12*
%TO.C,LED1*%
X82034376Y-151268734D02*
X82034376Y-153368734D01*
X82034376Y-153368734D02*
X84759376Y-153368734D01*
X84759376Y-151268734D02*
X82034376Y-151268734D01*
D13*
%TO.C,J1*%
X101973676Y-116584335D02*
X101973676Y-118742871D01*
X101973676Y-120288596D02*
X101973676Y-126642733D01*
X101973676Y-126642733D02*
X104296145Y-126642733D01*
X105912805Y-126642733D02*
X106296146Y-126642733D01*
X107912806Y-126642733D02*
X108296147Y-126642733D01*
X109912807Y-126642733D02*
X112235276Y-126642733D01*
X112235276Y-116584335D02*
X101973676Y-116584335D01*
X112235276Y-118742871D02*
X112235276Y-116584335D01*
X112235276Y-126642733D02*
X112235276Y-120288596D01*
D14*
X114394276Y-126065733D02*
G75*
G02*
X113632276Y-126065733I-381000J0D01*
G01*
X113632276Y-126065733D02*
G75*
G02*
X114394276Y-126065733I381000J0D01*
G01*
D13*
%TO.C,J2*%
X121073676Y-116584335D02*
X121073676Y-118742871D01*
X121073676Y-120288596D02*
X121073676Y-126642733D01*
X121073676Y-126642733D02*
X123396145Y-126642733D01*
X125012805Y-126642733D02*
X125396146Y-126642733D01*
X127012806Y-126642733D02*
X127396147Y-126642733D01*
X129012807Y-126642733D02*
X131335276Y-126642733D01*
X131335276Y-116584335D02*
X121073676Y-116584335D01*
X131335276Y-118742871D02*
X131335276Y-116584335D01*
X131335276Y-126642733D02*
X131335276Y-120288596D01*
D14*
X133494276Y-126065733D02*
G75*
G02*
X132732276Y-126065733I-381000J0D01*
G01*
X132732276Y-126065733D02*
G75*
G02*
X133494276Y-126065733I381000J0D01*
G01*
D15*
%TO.C,J3*%
X77019376Y-126378734D02*
X91779376Y-126378734D01*
X77019376Y-147458734D02*
X77019376Y-126378734D01*
X91779376Y-126378734D02*
X91779376Y-131718734D01*
X91779376Y-142118734D02*
X91779376Y-147458734D01*
X91779376Y-147458734D02*
X77019376Y-147458734D01*
X94279376Y-125308734D02*
X95079376Y-125308734D01*
X94679376Y-126108734D02*
X94279376Y-125308734D01*
X95079376Y-125308734D02*
X94679376Y-126108734D01*
D12*
%TO.C,R5*%
X88909376Y-151993734D02*
X88909376Y-152643734D01*
%TD*%
%LPC*%
D16*
%TO.C,J3*%
X80902476Y-128428734D02*
G75*
G02*
X79076276Y-128428734I-913100J0D01*
G01*
X79076276Y-128428734D02*
G75*
G02*
X80902476Y-128428734I913100J0D01*
G01*
X80902476Y-145421734D02*
G75*
G02*
X79076276Y-145421734I-913100J0D01*
G01*
X79076276Y-145421734D02*
G75*
G02*
X80902476Y-145421734I913100J0D01*
G01*
D17*
X93727476Y-140671734D02*
G75*
G02*
X92511276Y-140671734I-608100J0D01*
G01*
X92511276Y-140671734D02*
G75*
G02*
X93727476Y-140671734I608100J0D01*
G01*
X96907476Y-140671734D02*
G75*
G02*
X95691276Y-140671734I-608100J0D01*
G01*
X95691276Y-140671734D02*
G75*
G02*
X96907476Y-140671734I608100J0D01*
G01*
D18*
X94335576Y-134394934D02*
X91903176Y-134394934D01*
X91903176Y-131962534D01*
X94335576Y-131962534D01*
X94335576Y-134394934D01*
G36*
X94335576Y-134394934D02*
G01*
X91903176Y-134394934D01*
X91903176Y-131962534D01*
X94335576Y-131962534D01*
X94335576Y-134394934D01*
G37*
X97515576Y-134394934D02*
X95083176Y-134394934D01*
X95083176Y-131962534D01*
X97515576Y-131962534D01*
X97515576Y-134394934D01*
G36*
X97515576Y-134394934D02*
G01*
X95083176Y-134394934D01*
X95083176Y-131962534D01*
X97515576Y-131962534D01*
X97515576Y-134394934D01*
G37*
%TD*%
D19*
%TO.C,J4*%
X84079376Y-158788734D03*
D20*
X84079376Y-156248734D03*
X86619376Y-158788734D03*
X86619376Y-156248734D03*
X89159376Y-158788734D03*
X89159376Y-156248734D03*
X91699376Y-158788734D03*
X91699376Y-156248734D03*
X94239376Y-158788734D03*
X94239376Y-156248734D03*
X96779376Y-158788734D03*
X96779376Y-156248734D03*
X99319376Y-158788734D03*
X99319376Y-156248734D03*
X101859376Y-158788734D03*
X101859376Y-156248734D03*
X104399376Y-158788734D03*
X104399376Y-156248734D03*
X106939376Y-158788734D03*
X106939376Y-156248734D03*
X109479376Y-158788734D03*
X109479376Y-156248734D03*
X112019376Y-158788734D03*
X112019376Y-156248734D03*
X114559376Y-158788734D03*
X114559376Y-156248734D03*
X117099376Y-158788734D03*
X117099376Y-156248734D03*
X119639376Y-158788734D03*
X119639376Y-156248734D03*
X122179376Y-158788734D03*
X122179376Y-156248734D03*
X124719376Y-158788734D03*
X124719376Y-156248734D03*
X127259376Y-158788734D03*
X127259376Y-156248734D03*
X129799376Y-158788734D03*
X129799376Y-156248734D03*
X132339376Y-158788734D03*
X132339376Y-156248734D03*
%TD*%
D21*
%TO.C,REF\u002A\u002A*%
X137207495Y-157886598D03*
%TD*%
%TO.C,REF\u002A\u002A*%
X79207495Y-157886598D03*
%TD*%
%TO.C,REF\u002A\u002A*%
X138709376Y-119818734D03*
%TD*%
%TO.C,REF\u002A\u002A*%
X80709376Y-119818734D03*
%TD*%
D22*
%TO.C,LED1*%
X82859376Y-152318734D03*
X84759376Y-152318734D03*
%TD*%
D23*
%TO.C,J1*%
X111454477Y-119515733D03*
X102754475Y-119515733D03*
D24*
X109104476Y-126065733D03*
X107104476Y-126065733D03*
X105104475Y-126065733D03*
%TD*%
D23*
%TO.C,J2*%
X130554477Y-119515733D03*
X121854475Y-119515733D03*
D24*
X128204476Y-126065733D03*
X126204476Y-126065733D03*
X124204475Y-126065733D03*
%TD*%
D25*
%TO.C,R5*%
X88109376Y-152318734D03*
X89709376Y-152318734D03*
%TD*%
%LPD*%
M02*
