%TF.GenerationSoftware,KiCad,Pcbnew,9.0.7*%
%TF.CreationDate,2026-01-30T10:33:08-05:00*%
%TF.ProjectId,ALT6 TELEM CPLT EXT,414c5436-2054-4454-9c45-4d2043504c54,rev?*%
%TF.SameCoordinates,Original*%
%TF.FileFunction,Copper,L2,Inr*%
%TF.FilePolarity,Positive*%
%FSLAX46Y46*%
G04 Gerber Fmt 4.6, Leading zero omitted, Abs format (unit mm)*
G04 Created by KiCad (PCBNEW 9.0.7) date 2026-01-30 10:33:08*
%MOMM*%
%LPD*%
G01*
G04 APERTURE LIST*
%TA.AperFunction,ComponentPad*%
%ADD10R,1.370000X1.370000*%
%TD*%
%TA.AperFunction,ComponentPad*%
%ADD11C,1.370000*%
%TD*%
%TA.AperFunction,ComponentPad*%
%ADD12C,5.700000*%
%TD*%
%TA.AperFunction,WasherPad*%
%ADD13O,1.168400X1.752600*%
%TD*%
%TA.AperFunction,ComponentPad*%
%ADD14C,1.320800*%
%TD*%
%TA.AperFunction,ComponentPad*%
%ADD15R,2.280000X2.280000*%
%TD*%
%TA.AperFunction,ComponentPad*%
%ADD16C,2.280000*%
%TD*%
%TA.AperFunction,ComponentPad*%
%ADD17C,3.500000*%
%TD*%
%TA.AperFunction,ViaPad*%
%ADD18C,0.600000*%
%TD*%
G04 APERTURE END LIST*
D10*
%TO.N,Net-(IC1-VBUS)*%
%TO.C,J4*%
X84079376Y-158788734D03*
D11*
%TO.N,Net-(C3-+)*%
X84079376Y-156248734D03*
%TO.N,unconnected-(J4-Pad03)*%
X86619376Y-158788734D03*
%TO.N,Net-(C3-+)*%
X86619376Y-156248734D03*
%TO.N,unconnected-(J4-Pad05)*%
X89159376Y-158788734D03*
%TO.N,GND*%
X89159376Y-156248734D03*
%TO.N,unconnected-(J4-Pad07)*%
X91699376Y-158788734D03*
%TO.N,Net-(J4-Pad08)*%
X91699376Y-156248734D03*
%TO.N,GND*%
X94239376Y-158788734D03*
%TO.N,Net-(IC1-I{slash}O2_2)*%
X94239376Y-156248734D03*
%TO.N,unconnected-(J4-Pad11)*%
X96779376Y-158788734D03*
%TO.N,unconnected-(J4-Pad12)*%
X96779376Y-156248734D03*
%TO.N,unconnected-(J4-Pad13)*%
X99319376Y-158788734D03*
%TO.N,GND*%
X99319376Y-156248734D03*
%TO.N,unconnected-(J4-Pad15)*%
X101859376Y-158788734D03*
%TO.N,unconnected-(J4-Pad16)*%
X101859376Y-156248734D03*
%TO.N,Net-(IC2-VBUS)*%
X104399376Y-158788734D03*
%TO.N,unconnected-(J4-Pad18)*%
X104399376Y-156248734D03*
%TO.N,unconnected-(J4-Pad19)*%
X106939376Y-158788734D03*
%TO.N,GND*%
X106939376Y-156248734D03*
%TO.N,unconnected-(J4-Pad21)*%
X109479376Y-158788734D03*
%TO.N,unconnected-(J4-Pad22)*%
X109479376Y-156248734D03*
%TO.N,unconnected-(J4-Pad23)*%
X112019376Y-158788734D03*
%TO.N,unconnected-(J4-Pad24)*%
X112019376Y-156248734D03*
%TO.N,GND*%
X114559376Y-158788734D03*
%TO.N,unconnected-(J4-Pad26)*%
X114559376Y-156248734D03*
%TO.N,unconnected-(J4-Pad27)*%
X117099376Y-158788734D03*
%TO.N,unconnected-(J4-Pad28)*%
X117099376Y-156248734D03*
%TO.N,unconnected-(J4-Pad29)*%
X119639376Y-158788734D03*
%TO.N,GND*%
X119639376Y-156248734D03*
%TO.N,unconnected-(J4-Pad31)*%
X122179376Y-158788734D03*
%TO.N,Net-(J4-Pad32)*%
X122179376Y-156248734D03*
%TO.N,Net-(IC2-I{slash}O2_2)*%
X124719376Y-158788734D03*
%TO.N,GND*%
X124719376Y-156248734D03*
%TO.N,unconnected-(J4-Pad35)*%
X127259376Y-158788734D03*
%TO.N,unconnected-(J4-Pad36)*%
X127259376Y-156248734D03*
%TO.N,unconnected-(J4-Pad37)*%
X129799376Y-158788734D03*
%TO.N,unconnected-(J4-Pad38)*%
X129799376Y-156248734D03*
%TO.N,GND*%
X132339376Y-158788734D03*
%TO.N,unconnected-(J4-Pad40)*%
X132339376Y-156248734D03*
%TD*%
D12*
%TO.N,N/C*%
%TO.C,REF\u002A\u002A*%
X137207495Y-157886598D03*
%TD*%
%TO.N,N/C*%
%TO.C,REF\u002A\u002A*%
X79207495Y-157886598D03*
%TD*%
%TO.N,N/C*%
%TO.C,REF\u002A\u002A*%
X138709376Y-119818734D03*
%TD*%
%TO.N,N/C*%
%TO.C,REF\u002A\u002A*%
X80709376Y-119818734D03*
%TD*%
D13*
%TO.N,*%
%TO.C,J1*%
X111454477Y-119515733D03*
X102754475Y-119515733D03*
D14*
%TO.N,GND*%
X109104476Y-126065733D03*
%TO.N,Net-(IC1-I{slash}O2_1)*%
X107104476Y-126065733D03*
%TO.N,Net-(IC1-I{slash}O1_1)*%
X105104475Y-126065733D03*
%TD*%
D13*
%TO.N,*%
%TO.C,J2*%
X130554477Y-119515733D03*
X121854475Y-119515733D03*
D14*
%TO.N,GND*%
X128204476Y-126065733D03*
%TO.N,Net-(IC2-I{slash}O2_1)*%
X126204476Y-126065733D03*
%TO.N,Net-(IC2-I{slash}O1_1)*%
X124204475Y-126065733D03*
%TD*%
D15*
%TO.N,Net-(F1-Pad2)*%
%TO.C,J3*%
X93119376Y-133178734D03*
X96299376Y-133178734D03*
D16*
%TO.N,GND*%
X93119376Y-140671734D03*
X96299376Y-140671734D03*
D17*
X79989376Y-128428734D03*
X79989376Y-145421734D03*
%TD*%
D18*
%TO.N,Net-(C3-+)*%
X83159376Y-155268734D03*
X82909376Y-154168734D03*
X84759376Y-128568734D03*
%TO.N,GND*%
X128009376Y-127618734D03*
X128009376Y-128518734D03*
X103409376Y-129918734D03*
X102109376Y-128518734D03*
X100809376Y-129918734D03*
X90809376Y-142318734D03*
X85709376Y-135318734D03*
X105909376Y-129218734D03*
X90809376Y-138218734D03*
X88909376Y-133818734D03*
X88909376Y-142318734D03*
X124909376Y-129218734D03*
X87109376Y-140218734D03*
X87109376Y-142318734D03*
X124909376Y-127218734D03*
X88909376Y-132218734D03*
X105909376Y-128118734D03*
X85709376Y-132218734D03*
X88909376Y-135318734D03*
X87109376Y-138318734D03*
X90809376Y-140218734D03*
X124909376Y-128218734D03*
X89009376Y-138218734D03*
X85709376Y-133818734D03*
X105909376Y-127218734D03*
%TO.N,Net-(C3-+)*%
X82909376Y-145318734D03*
X82909376Y-147718734D03*
X82909376Y-149018734D03*
X82909376Y-135618734D03*
X82909376Y-130418734D03*
X83809376Y-129518734D03*
X82909376Y-137718734D03*
X82909376Y-150218734D03*
X82909376Y-146518734D03*
X82909376Y-136618734D03*
X82909376Y-142818734D03*
X82909376Y-131618734D03*
X82909376Y-144018734D03*
%TO.N,Net-(F1-Pad2)*%
X93119376Y-131218734D03*
X93119376Y-130118734D03*
%TD*%
%TA.AperFunction,Conductor*%
%TO.N,GND*%
G36*
X78825967Y-116838919D02*
G01*
X78871722Y-116891723D01*
X78881666Y-116960881D01*
X78852641Y-117024437D01*
X78827819Y-117046336D01*
X78711086Y-117124334D01*
X78711072Y-117124345D01*
X78456598Y-117333187D01*
X78223829Y-117565956D01*
X78014987Y-117820430D01*
X78014977Y-117820444D01*
X77832094Y-118094148D01*
X77832083Y-118094166D01*
X77676911Y-118384475D01*
X77676904Y-118384489D01*
X77550928Y-118688621D01*
X77455363Y-119003656D01*
X77455360Y-119003667D01*
X77391144Y-119326515D01*
X77391141Y-119326532D01*
X77358876Y-119654137D01*
X77358876Y-119983330D01*
X77391141Y-120310935D01*
X77391144Y-120310952D01*
X77455360Y-120633800D01*
X77455363Y-120633811D01*
X77550928Y-120948846D01*
X77676904Y-121252978D01*
X77676911Y-121252992D01*
X77832083Y-121543301D01*
X77832094Y-121543319D01*
X78014977Y-121817023D01*
X78014987Y-121817037D01*
X78223829Y-122071511D01*
X78456598Y-122304280D01*
X78456603Y-122304284D01*
X78456604Y-122304285D01*
X78711078Y-122513127D01*
X78984797Y-122696020D01*
X79275125Y-122851203D01*
X79579265Y-122977182D01*
X79894289Y-123072744D01*
X79894295Y-123072745D01*
X79894298Y-123072746D01*
X79894309Y-123072749D01*
X80074737Y-123108637D01*
X80217163Y-123136967D01*
X80544776Y-123169234D01*
X80544779Y-123169234D01*
X80873973Y-123169234D01*
X80873976Y-123169234D01*
X81201589Y-123136967D01*
X81379136Y-123101650D01*
X81524442Y-123072749D01*
X81524453Y-123072746D01*
X81524453Y-123072745D01*
X81524463Y-123072744D01*
X81839487Y-122977182D01*
X82143627Y-122851203D01*
X82433955Y-122696020D01*
X82707674Y-122513127D01*
X82962148Y-122304285D01*
X83194927Y-122071506D01*
X83403769Y-121817032D01*
X83586662Y-121543313D01*
X83741845Y-121252985D01*
X83867824Y-120948845D01*
X83963386Y-120633821D01*
X83963388Y-120633811D01*
X83963391Y-120633800D01*
X83992292Y-120488494D01*
X84027609Y-120310947D01*
X84059876Y-119983334D01*
X84059876Y-119654134D01*
X84027609Y-119326521D01*
X83990163Y-119138265D01*
X101669775Y-119138265D01*
X101669775Y-119893200D01*
X101696484Y-120061835D01*
X101696484Y-120061838D01*
X101749242Y-120224210D01*
X101749244Y-120224213D01*
X101826756Y-120376340D01*
X101927112Y-120514468D01*
X102047840Y-120635196D01*
X102185968Y-120735552D01*
X102338095Y-120813064D01*
X102338097Y-120813065D01*
X102500470Y-120865823D01*
X102500471Y-120865823D01*
X102500474Y-120865824D01*
X102669107Y-120892533D01*
X102669108Y-120892533D01*
X102839842Y-120892533D01*
X102839843Y-120892533D01*
X103008476Y-120865824D01*
X103008479Y-120865823D01*
X103008480Y-120865823D01*
X103170852Y-120813065D01*
X103170852Y-120813064D01*
X103170855Y-120813064D01*
X103322982Y-120735552D01*
X103461110Y-120635196D01*
X103581838Y-120514468D01*
X103682194Y-120376340D01*
X103759706Y-120224213D01*
X103812466Y-120061834D01*
X103839175Y-119893201D01*
X103839175Y-119138265D01*
X110369777Y-119138265D01*
X110369777Y-119893200D01*
X110396486Y-120061835D01*
X110396486Y-120061838D01*
X110449244Y-120224210D01*
X110449246Y-120224213D01*
X110526758Y-120376340D01*
X110627114Y-120514468D01*
X110747842Y-120635196D01*
X110885970Y-120735552D01*
X111038097Y-120813064D01*
X111038099Y-120813065D01*
X111200472Y-120865823D01*
X111200473Y-120865823D01*
X111200476Y-120865824D01*
X111369109Y-120892533D01*
X111369110Y-120892533D01*
X111539844Y-120892533D01*
X111539845Y-120892533D01*
X111708478Y-120865824D01*
X111708481Y-120865823D01*
X111708482Y-120865823D01*
X111870854Y-120813065D01*
X111870854Y-120813064D01*
X111870857Y-120813064D01*
X112022984Y-120735552D01*
X112161112Y-120635196D01*
X112281840Y-120514468D01*
X112382196Y-120376340D01*
X112459708Y-120224213D01*
X112512468Y-120061834D01*
X112539177Y-119893201D01*
X112539177Y-119138265D01*
X120769775Y-119138265D01*
X120769775Y-119893200D01*
X120796484Y-120061835D01*
X120796484Y-120061838D01*
X120849242Y-120224210D01*
X120849244Y-120224213D01*
X120926756Y-120376340D01*
X121027112Y-120514468D01*
X121147840Y-120635196D01*
X121285968Y-120735552D01*
X121438095Y-120813064D01*
X121438097Y-120813065D01*
X121600470Y-120865823D01*
X121600471Y-120865823D01*
X121600474Y-120865824D01*
X121769107Y-120892533D01*
X121769108Y-120892533D01*
X121939842Y-120892533D01*
X121939843Y-120892533D01*
X122108476Y-120865824D01*
X122108479Y-120865823D01*
X122108480Y-120865823D01*
X122270852Y-120813065D01*
X122270852Y-120813064D01*
X122270855Y-120813064D01*
X122422982Y-120735552D01*
X122561110Y-120635196D01*
X122681838Y-120514468D01*
X122782194Y-120376340D01*
X122859706Y-120224213D01*
X122912466Y-120061834D01*
X122939175Y-119893201D01*
X122939175Y-119138265D01*
X129469777Y-119138265D01*
X129469777Y-119893200D01*
X129496486Y-120061835D01*
X129496486Y-120061838D01*
X129549244Y-120224210D01*
X129549246Y-120224213D01*
X129626758Y-120376340D01*
X129727114Y-120514468D01*
X129847842Y-120635196D01*
X129985970Y-120735552D01*
X130138097Y-120813064D01*
X130138099Y-120813065D01*
X130300472Y-120865823D01*
X130300473Y-120865823D01*
X130300476Y-120865824D01*
X130469109Y-120892533D01*
X130469110Y-120892533D01*
X130639844Y-120892533D01*
X130639845Y-120892533D01*
X130808478Y-120865824D01*
X130808481Y-120865823D01*
X130808482Y-120865823D01*
X130970854Y-120813065D01*
X130970854Y-120813064D01*
X130970857Y-120813064D01*
X131122984Y-120735552D01*
X131261112Y-120635196D01*
X131381840Y-120514468D01*
X131482196Y-120376340D01*
X131559708Y-120224213D01*
X131612468Y-120061834D01*
X131639177Y-119893201D01*
X131639177Y-119138265D01*
X131612468Y-118969632D01*
X131612467Y-118969628D01*
X131612467Y-118969627D01*
X131559709Y-118807255D01*
X131559707Y-118807252D01*
X131515559Y-118720605D01*
X131482196Y-118655126D01*
X131381840Y-118516998D01*
X131261112Y-118396270D01*
X131122984Y-118295914D01*
X130970857Y-118218402D01*
X130970854Y-118218400D01*
X130808481Y-118165642D01*
X130682003Y-118145610D01*
X130639845Y-118138933D01*
X130469109Y-118138933D01*
X130412898Y-118147836D01*
X130300474Y-118165642D01*
X130300471Y-118165642D01*
X130138099Y-118218400D01*
X130138096Y-118218402D01*
X129985969Y-118295914D01*
X129929965Y-118336604D01*
X129847842Y-118396270D01*
X129847840Y-118396272D01*
X129847839Y-118396272D01*
X129727116Y-118516995D01*
X129727116Y-118516996D01*
X129727114Y-118516998D01*
X129684015Y-118576318D01*
X129626758Y-118655125D01*
X129549246Y-118807252D01*
X129549244Y-118807255D01*
X129496486Y-118969627D01*
X129496486Y-118969630D01*
X129469777Y-119138265D01*
X122939175Y-119138265D01*
X122912466Y-118969632D01*
X122912465Y-118969628D01*
X122912465Y-118969627D01*
X122859707Y-118807255D01*
X122859705Y-118807252D01*
X122815557Y-118720605D01*
X122782194Y-118655126D01*
X122681838Y-118516998D01*
X122561110Y-118396270D01*
X122422982Y-118295914D01*
X122270855Y-118218402D01*
X122270852Y-118218400D01*
X122108479Y-118165642D01*
X121982001Y-118145610D01*
X121939843Y-118138933D01*
X121769107Y-118138933D01*
X121712896Y-118147836D01*
X121600472Y-118165642D01*
X121600469Y-118165642D01*
X121438097Y-118218400D01*
X121438094Y-118218402D01*
X121285967Y-118295914D01*
X121229963Y-118336604D01*
X121147840Y-118396270D01*
X121147838Y-118396272D01*
X121147837Y-118396272D01*
X121027114Y-118516995D01*
X121027114Y-118516996D01*
X121027112Y-118516998D01*
X120984013Y-118576318D01*
X120926756Y-118655125D01*
X120849244Y-118807252D01*
X120849242Y-118807255D01*
X120796484Y-118969627D01*
X120796484Y-118969630D01*
X120769775Y-119138265D01*
X112539177Y-119138265D01*
X112512468Y-118969632D01*
X112512467Y-118969628D01*
X112512467Y-118969627D01*
X112459709Y-118807255D01*
X112459707Y-118807252D01*
X112415559Y-118720605D01*
X112382196Y-118655126D01*
X112281840Y-118516998D01*
X112161112Y-118396270D01*
X112022984Y-118295914D01*
X111870857Y-118218402D01*
X111870854Y-118218400D01*
X111708481Y-118165642D01*
X111582003Y-118145610D01*
X111539845Y-118138933D01*
X111369109Y-118138933D01*
X111312898Y-118147836D01*
X111200474Y-118165642D01*
X111200471Y-118165642D01*
X111038099Y-118218400D01*
X111038096Y-118218402D01*
X110885969Y-118295914D01*
X110829965Y-118336604D01*
X110747842Y-118396270D01*
X110747840Y-118396272D01*
X110747839Y-118396272D01*
X110627116Y-118516995D01*
X110627116Y-118516996D01*
X110627114Y-118516998D01*
X110584015Y-118576318D01*
X110526758Y-118655125D01*
X110449246Y-118807252D01*
X110449244Y-118807255D01*
X110396486Y-118969627D01*
X110396486Y-118969630D01*
X110369777Y-119138265D01*
X103839175Y-119138265D01*
X103812466Y-118969632D01*
X103812465Y-118969628D01*
X103812465Y-118969627D01*
X103759707Y-118807255D01*
X103759705Y-118807252D01*
X103715557Y-118720605D01*
X103682194Y-118655126D01*
X103581838Y-118516998D01*
X103461110Y-118396270D01*
X103322982Y-118295914D01*
X103170855Y-118218402D01*
X103170852Y-118218400D01*
X103008479Y-118165642D01*
X102882001Y-118145610D01*
X102839843Y-118138933D01*
X102669107Y-118138933D01*
X102612896Y-118147836D01*
X102500472Y-118165642D01*
X102500469Y-118165642D01*
X102338097Y-118218400D01*
X102338094Y-118218402D01*
X102185967Y-118295914D01*
X102129963Y-118336604D01*
X102047840Y-118396270D01*
X102047838Y-118396272D01*
X102047837Y-118396272D01*
X101927114Y-118516995D01*
X101927114Y-118516996D01*
X101927112Y-118516998D01*
X101884013Y-118576318D01*
X101826756Y-118655125D01*
X101749244Y-118807252D01*
X101749242Y-118807255D01*
X101696484Y-118969627D01*
X101696484Y-118969630D01*
X101669775Y-119138265D01*
X83990163Y-119138265D01*
X83963386Y-119003647D01*
X83867824Y-118688623D01*
X83741845Y-118384483D01*
X83599157Y-118117531D01*
X83586668Y-118094166D01*
X83586667Y-118094164D01*
X83586662Y-118094155D01*
X83403769Y-117820436D01*
X83194927Y-117565962D01*
X83194926Y-117565961D01*
X83194922Y-117565956D01*
X82962153Y-117333187D01*
X82707679Y-117124345D01*
X82707678Y-117124344D01*
X82707674Y-117124341D01*
X82590930Y-117046335D01*
X82546126Y-116992724D01*
X82537419Y-116923399D01*
X82567573Y-116860372D01*
X82627016Y-116823652D01*
X82659822Y-116819234D01*
X136758930Y-116819234D01*
X136825969Y-116838919D01*
X136871724Y-116891723D01*
X136881668Y-116960881D01*
X136852643Y-117024437D01*
X136827821Y-117046336D01*
X136711086Y-117124335D01*
X136711072Y-117124345D01*
X136456598Y-117333187D01*
X136223829Y-117565956D01*
X136014987Y-117820430D01*
X136014977Y-117820444D01*
X135832094Y-118094148D01*
X135832083Y-118094166D01*
X135676911Y-118384475D01*
X135676904Y-118384489D01*
X135550928Y-118688621D01*
X135455363Y-119003656D01*
X135455360Y-119003667D01*
X135391144Y-119326515D01*
X135391141Y-119326532D01*
X135358876Y-119654137D01*
X135358876Y-119983330D01*
X135391141Y-120310935D01*
X135391144Y-120310952D01*
X135455360Y-120633800D01*
X135455363Y-120633811D01*
X135550928Y-120948846D01*
X135676904Y-121252978D01*
X135676911Y-121252992D01*
X135832083Y-121543301D01*
X135832094Y-121543319D01*
X136014977Y-121817023D01*
X136014987Y-121817037D01*
X136223829Y-122071511D01*
X136456598Y-122304280D01*
X136456603Y-122304284D01*
X136456604Y-122304285D01*
X136711078Y-122513127D01*
X136984797Y-122696020D01*
X137275125Y-122851203D01*
X137579265Y-122977182D01*
X137894289Y-123072744D01*
X137894295Y-123072745D01*
X137894298Y-123072746D01*
X137894309Y-123072749D01*
X138074737Y-123108637D01*
X138217163Y-123136967D01*
X138544776Y-123169234D01*
X138544779Y-123169234D01*
X138873973Y-123169234D01*
X138873976Y-123169234D01*
X139201589Y-123136967D01*
X139379136Y-123101650D01*
X139524442Y-123072749D01*
X139524453Y-123072746D01*
X139524453Y-123072745D01*
X139524463Y-123072744D01*
X139839487Y-122977182D01*
X140143627Y-122851203D01*
X140433955Y-122696020D01*
X140707674Y-122513127D01*
X140962148Y-122304285D01*
X141194927Y-122071506D01*
X141403769Y-121817032D01*
X141586662Y-121543313D01*
X141741845Y-121252985D01*
X141867824Y-120948845D01*
X141963386Y-120633821D01*
X141963388Y-120633811D01*
X141963391Y-120633800D01*
X141992292Y-120488494D01*
X142027609Y-120310947D01*
X142059876Y-119983334D01*
X142059876Y-119654134D01*
X142027609Y-119326521D01*
X141990163Y-119138265D01*
X141963391Y-119003667D01*
X141963388Y-119003656D01*
X141963387Y-119003652D01*
X141963386Y-119003647D01*
X141867824Y-118688623D01*
X141741845Y-118384483D01*
X141599157Y-118117531D01*
X141586668Y-118094166D01*
X141586667Y-118094164D01*
X141586662Y-118094155D01*
X141403769Y-117820436D01*
X141194927Y-117565962D01*
X141194926Y-117565961D01*
X141194922Y-117565956D01*
X140962153Y-117333187D01*
X140707679Y-117124345D01*
X140707678Y-117124344D01*
X140707674Y-117124341D01*
X140590930Y-117046335D01*
X140546126Y-116992724D01*
X140537419Y-116923399D01*
X140567573Y-116860372D01*
X140627016Y-116823652D01*
X140659822Y-116819234D01*
X141643522Y-116819234D01*
X141704964Y-116819234D01*
X141713861Y-116819554D01*
X141745278Y-116821814D01*
X141915139Y-116834033D01*
X141932738Y-116836578D01*
X142125530Y-116878767D01*
X142142586Y-116883805D01*
X142327355Y-116953152D01*
X142343502Y-116960575D01*
X142516447Y-117055654D01*
X142531369Y-117065314D01*
X142688917Y-117184162D01*
X142702316Y-117195868D01*
X142838404Y-117333187D01*
X142841226Y-117336034D01*
X142852812Y-117349539D01*
X142970227Y-117508139D01*
X142979761Y-117523162D01*
X143073273Y-117696942D01*
X143080558Y-117713175D01*
X143148234Y-117898545D01*
X143153121Y-117915654D01*
X143193569Y-118108801D01*
X143195957Y-118126433D01*
X143208617Y-118327706D01*
X143208857Y-118336604D01*
X143208281Y-118400674D01*
X143208876Y-118410409D01*
X143208876Y-161920584D01*
X143208875Y-161920588D01*
X143208875Y-161950597D01*
X143208875Y-161982058D01*
X143208875Y-161982077D01*
X143208562Y-161990887D01*
X143194352Y-162190327D01*
X143191854Y-162207769D01*
X143150442Y-162398859D01*
X143145494Y-162415777D01*
X143077406Y-162599064D01*
X143070108Y-162615111D01*
X142976717Y-162786889D01*
X142967217Y-162801739D01*
X142850412Y-162958537D01*
X142838903Y-162971889D01*
X142701043Y-163110541D01*
X142687757Y-163122126D01*
X142531628Y-163239829D01*
X142516833Y-163249413D01*
X142345598Y-163343784D01*
X142329593Y-163351174D01*
X142146704Y-163420309D01*
X142129814Y-163425355D01*
X141938960Y-163467861D01*
X141921526Y-163470460D01*
X141753359Y-163483411D01*
X141723224Y-163485732D01*
X141713705Y-163486098D01*
X77806014Y-163486098D01*
X77798409Y-163486097D01*
X77798406Y-163486097D01*
X77768396Y-163486097D01*
X77736937Y-163486097D01*
X77736936Y-163486096D01*
X77728094Y-163485781D01*
X77527954Y-163471469D01*
X77510441Y-163468951D01*
X77318718Y-163427245D01*
X77301743Y-163422261D01*
X77117896Y-163353690D01*
X77101808Y-163346343D01*
X76929585Y-163252303D01*
X76914721Y-163242751D01*
X76757630Y-163125154D01*
X76744265Y-163113572D01*
X76605523Y-162974830D01*
X76593937Y-162961459D01*
X76476351Y-162804382D01*
X76466795Y-162789514D01*
X76372750Y-162617281D01*
X76365406Y-162601199D01*
X76296836Y-162417351D01*
X76291852Y-162400375D01*
X76250147Y-162208652D01*
X76247629Y-162191139D01*
X76247570Y-162190318D01*
X76233310Y-161990889D01*
X76232995Y-161982060D01*
X76232995Y-161982058D01*
X76232996Y-161920688D01*
X76232995Y-161920684D01*
X76232995Y-159874459D01*
X76252680Y-159807420D01*
X76305484Y-159761665D01*
X76374642Y-159751721D01*
X76438198Y-159780746D01*
X76460097Y-159805569D01*
X76513089Y-159884878D01*
X76513106Y-159884901D01*
X76721948Y-160139375D01*
X76954717Y-160372144D01*
X76954722Y-160372148D01*
X76954723Y-160372149D01*
X77209197Y-160580991D01*
X77482916Y-160763884D01*
X77773244Y-160919067D01*
X78077384Y-161045046D01*
X78392408Y-161140608D01*
X78392414Y-161140609D01*
X78392417Y-161140610D01*
X78392428Y-161140613D01*
X78572856Y-161176501D01*
X78715282Y-161204831D01*
X79042895Y-161237098D01*
X79042898Y-161237098D01*
X79372092Y-161237098D01*
X79372095Y-161237098D01*
X79699708Y-161204831D01*
X79877255Y-161169514D01*
X80022561Y-161140613D01*
X80022572Y-161140610D01*
X80022572Y-161140609D01*
X80022582Y-161140608D01*
X80337606Y-161045046D01*
X80641746Y-160919067D01*
X80932074Y-160763884D01*
X81205793Y-160580991D01*
X81460267Y-160372149D01*
X81693046Y-160139370D01*
X81901888Y-159884896D01*
X82084781Y-159611177D01*
X82239964Y-159320849D01*
X82365943Y-159016709D01*
X82461505Y-158701685D01*
X82461507Y-158701675D01*
X82461510Y-158701664D01*
X82496890Y-158523792D01*
X82525728Y-158378811D01*
X82557995Y-158051198D01*
X82557995Y-157721998D01*
X82525728Y-157394385D01*
X82477711Y-157152983D01*
X82461510Y-157071531D01*
X82461507Y-157071520D01*
X82461506Y-157071517D01*
X82461505Y-157071511D01*
X82365943Y-156756487D01*
X82239964Y-156452347D01*
X82084781Y-156162019D01*
X81901888Y-155888300D01*
X81693046Y-155633826D01*
X81693045Y-155633825D01*
X81693041Y-155633820D01*
X81460272Y-155401051D01*
X81205798Y-155192209D01*
X81205797Y-155192208D01*
X81205793Y-155192205D01*
X80932074Y-155009312D01*
X80932069Y-155009309D01*
X80932062Y-155009305D01*
X80708035Y-154889561D01*
X80641746Y-154854129D01*
X80641739Y-154854126D01*
X80337607Y-154728150D01*
X80022572Y-154632585D01*
X80022561Y-154632582D01*
X79699713Y-154568366D01*
X79699708Y-154568365D01*
X79699706Y-154568364D01*
X79699696Y-154568363D01*
X79459017Y-154544659D01*
X79372095Y-154536098D01*
X79042895Y-154536098D01*
X78963035Y-154543963D01*
X78715293Y-154568363D01*
X78715276Y-154568366D01*
X78392428Y-154632582D01*
X78392417Y-154632585D01*
X78077382Y-154728150D01*
X77773250Y-154854126D01*
X77773236Y-154854133D01*
X77482927Y-155009305D01*
X77482909Y-155009316D01*
X77209205Y-155192199D01*
X77209191Y-155192209D01*
X76954717Y-155401051D01*
X76721948Y-155633820D01*
X76513106Y-155888294D01*
X76513096Y-155888308D01*
X76460097Y-155967627D01*
X76406485Y-156012432D01*
X76337160Y-156021139D01*
X76274132Y-155990984D01*
X76237413Y-155931541D01*
X76232995Y-155898736D01*
X76232995Y-154089887D01*
X82108876Y-154089887D01*
X82108876Y-154247580D01*
X82139637Y-154402223D01*
X82139640Y-154402235D01*
X82199978Y-154547906D01*
X82199985Y-154547919D01*
X82287586Y-154679022D01*
X82287589Y-154679026D01*
X82403394Y-154794831D01*
X82401924Y-154796300D01*
X82435932Y-154846235D01*
X82437796Y-154916080D01*
X82432490Y-154931783D01*
X82389640Y-155035232D01*
X82389637Y-155035244D01*
X82358876Y-155189887D01*
X82358876Y-155347580D01*
X82389637Y-155502223D01*
X82389640Y-155502235D01*
X82449978Y-155647906D01*
X82449985Y-155647919D01*
X82537586Y-155779022D01*
X82537589Y-155779026D01*
X82649086Y-155890523D01*
X82764481Y-155967627D01*
X82780197Y-155978128D01*
X82822917Y-155995823D01*
X82877319Y-156039660D01*
X82899386Y-156105954D01*
X82897938Y-156129780D01*
X82893876Y-156155427D01*
X82893876Y-156155433D01*
X82893876Y-156342035D01*
X82908471Y-156434187D01*
X82923067Y-156526340D01*
X82923067Y-156526343D01*
X82980728Y-156703805D01*
X82980730Y-156703808D01*
X83065445Y-156870072D01*
X83175127Y-157021036D01*
X83307074Y-157152983D01*
X83458038Y-157262665D01*
X83624302Y-157347380D01*
X83624304Y-157347380D01*
X83624307Y-157347382D01*
X83667152Y-157361303D01*
X83724828Y-157400740D01*
X83752027Y-157465098D01*
X83740113Y-157533944D01*
X83692869Y-157585421D01*
X83628835Y-157603234D01*
X83346506Y-157603234D01*
X83346499Y-157603235D01*
X83286892Y-157609642D01*
X83152047Y-157659936D01*
X83152040Y-157659940D01*
X83036831Y-157746186D01*
X83036828Y-157746189D01*
X82950582Y-157861398D01*
X82950578Y-157861405D01*
X82900284Y-157996251D01*
X82898115Y-158016430D01*
X82893877Y-158055857D01*
X82893876Y-158055869D01*
X82893876Y-159521604D01*
X82893877Y-159521610D01*
X82900284Y-159581217D01*
X82950578Y-159716062D01*
X82950582Y-159716069D01*
X83036828Y-159831278D01*
X83036831Y-159831281D01*
X83152040Y-159917527D01*
X83152047Y-159917531D01*
X83286893Y-159967825D01*
X83286892Y-159967825D01*
X83293820Y-159968569D01*
X83346503Y-159974234D01*
X84812248Y-159974233D01*
X84871859Y-159967825D01*
X85006707Y-159917530D01*
X85121922Y-159831280D01*
X85208172Y-159716065D01*
X85258467Y-159581217D01*
X85264876Y-159521607D01*
X85264875Y-159239272D01*
X85284559Y-159172236D01*
X85337363Y-159126481D01*
X85406522Y-159116537D01*
X85470077Y-159145562D01*
X85506806Y-159200956D01*
X85519257Y-159239275D01*
X85520730Y-159243808D01*
X85605445Y-159410072D01*
X85715127Y-159561036D01*
X85847074Y-159692983D01*
X85998038Y-159802665D01*
X86164302Y-159887380D01*
X86164304Y-159887381D01*
X86341767Y-159945042D01*
X86341768Y-159945042D01*
X86341771Y-159945043D01*
X86526075Y-159974234D01*
X86526076Y-159974234D01*
X86712676Y-159974234D01*
X86712677Y-159974234D01*
X86896981Y-159945043D01*
X86896984Y-159945042D01*
X86896985Y-159945042D01*
X87074447Y-159887381D01*
X87074447Y-159887380D01*
X87074450Y-159887380D01*
X87240714Y-159802665D01*
X87391678Y-159692983D01*
X87523625Y-159561036D01*
X87633307Y-159410072D01*
X87718022Y-159243808D01*
X87719495Y-159239275D01*
X87771445Y-159079390D01*
X87810882Y-159021714D01*
X87875241Y-158994516D01*
X87944087Y-159006431D01*
X87995563Y-159053675D01*
X88007307Y-159079390D01*
X88060728Y-159243805D01*
X88060730Y-159243808D01*
X88145445Y-159410072D01*
X88255127Y-159561036D01*
X88387074Y-159692983D01*
X88538038Y-159802665D01*
X88704302Y-159887380D01*
X88704304Y-159887381D01*
X88881767Y-159945042D01*
X88881768Y-159945042D01*
X88881771Y-159945043D01*
X89066075Y-159974234D01*
X89066076Y-159974234D01*
X89252676Y-159974234D01*
X89252677Y-159974234D01*
X89436981Y-159945043D01*
X89436984Y-159945042D01*
X89436985Y-159945042D01*
X89614447Y-159887381D01*
X89614447Y-159887380D01*
X89614450Y-159887380D01*
X89780714Y-159802665D01*
X89931678Y-159692983D01*
X90063625Y-159561036D01*
X90173307Y-159410072D01*
X90258022Y-159243808D01*
X90259495Y-159239275D01*
X90311445Y-159079390D01*
X90350882Y-159021714D01*
X90415241Y-158994516D01*
X90484087Y-159006431D01*
X90535563Y-159053675D01*
X90547307Y-159079390D01*
X90600728Y-159243805D01*
X90600730Y-159243808D01*
X90685445Y-159410072D01*
X90795127Y-159561036D01*
X90927074Y-159692983D01*
X91078038Y-159802665D01*
X91244302Y-159887380D01*
X91244304Y-159887381D01*
X91421767Y-159945042D01*
X91421768Y-159945042D01*
X91421771Y-159945043D01*
X91606075Y-159974234D01*
X91606076Y-159974234D01*
X91792676Y-159974234D01*
X91792677Y-159974234D01*
X91976981Y-159945043D01*
X91976984Y-159945042D01*
X91976985Y-159945042D01*
X92154447Y-159887381D01*
X92154447Y-159887380D01*
X92154450Y-159887380D01*
X92320714Y-159802665D01*
X92471678Y-159692983D01*
X92603625Y-159561036D01*
X92713307Y-159410072D01*
X92798022Y-159243808D01*
X92799495Y-159239275D01*
X92855684Y-159066343D01*
X92855684Y-159066342D01*
X92855685Y-159066339D01*
X92884876Y-158882035D01*
X92884876Y-158695433D01*
X92855685Y-158511129D01*
X92855684Y-158511125D01*
X92855684Y-158511124D01*
X92798023Y-158333662D01*
X92798021Y-158333659D01*
X92713306Y-158167395D01*
X92603625Y-158016432D01*
X92471678Y-157884485D01*
X92320714Y-157774803D01*
X92154450Y-157690088D01*
X92154447Y-157690086D01*
X91990032Y-157636665D01*
X91932356Y-157597228D01*
X91905158Y-157532869D01*
X91917073Y-157464023D01*
X91964317Y-157412547D01*
X91990032Y-157400803D01*
X92154447Y-157347381D01*
X92154447Y-157347380D01*
X92154450Y-157347380D01*
X92320714Y-157262665D01*
X92471678Y-157152983D01*
X92603625Y-157021036D01*
X92713307Y-156870072D01*
X92798022Y-156703808D01*
X92798023Y-156703805D01*
X92851445Y-156539390D01*
X92890882Y-156481714D01*
X92955241Y-156454516D01*
X93024087Y-156466431D01*
X93075563Y-156513675D01*
X93087307Y-156539390D01*
X93140728Y-156703805D01*
X93140730Y-156703808D01*
X93225445Y-156870072D01*
X93335127Y-157021036D01*
X93467074Y-157152983D01*
X93618038Y-157262665D01*
X93784302Y-157347380D01*
X93784304Y-157347381D01*
X93961767Y-157405042D01*
X93961768Y-157405042D01*
X93961771Y-157405043D01*
X94146075Y-157434234D01*
X94146076Y-157434234D01*
X94332676Y-157434234D01*
X94332677Y-157434234D01*
X94516981Y-157405043D01*
X94516984Y-157405042D01*
X94516985Y-157405042D01*
X94694447Y-157347381D01*
X94694447Y-157347380D01*
X94694450Y-157347380D01*
X94860714Y-157262665D01*
X95011678Y-157152983D01*
X95143625Y-157021036D01*
X95253307Y-156870072D01*
X95338022Y-156703808D01*
X95338023Y-156703805D01*
X95391445Y-156539390D01*
X95430882Y-156481714D01*
X95495241Y-156454516D01*
X95564087Y-156466431D01*
X95615563Y-156513675D01*
X95627307Y-156539390D01*
X95680728Y-156703805D01*
X95680730Y-156703808D01*
X95765445Y-156870072D01*
X95875127Y-157021036D01*
X96007074Y-157152983D01*
X96158038Y-157262665D01*
X96324302Y-157347380D01*
X96324304Y-157347381D01*
X96488719Y-157400803D01*
X96546395Y-157440241D01*
X96573593Y-157504599D01*
X96561678Y-157573446D01*
X96514434Y-157624921D01*
X96488719Y-157636665D01*
X96324304Y-157690086D01*
X96324301Y-157690088D01*
X96158037Y-157774803D01*
X96096832Y-157819272D01*
X96007074Y-157884485D01*
X96007072Y-157884487D01*
X96007071Y-157884487D01*
X95875129Y-158016429D01*
X95875129Y-158016430D01*
X95875127Y-158016432D01*
X95846479Y-158055863D01*
X95765445Y-158167395D01*
X95680730Y-158333659D01*
X95680728Y-158333662D01*
X95623067Y-158511124D01*
X95623067Y-158511127D01*
X95593876Y-158695433D01*
X95593876Y-158882034D01*
X95623067Y-159066340D01*
X95623067Y-159066343D01*
X95680728Y-159243805D01*
X95680730Y-159243808D01*
X95765445Y-159410072D01*
X95875127Y-159561036D01*
X96007074Y-159692983D01*
X96158038Y-159802665D01*
X96324302Y-159887380D01*
X96324304Y-159887381D01*
X96501767Y-159945042D01*
X96501768Y-159945042D01*
X96501771Y-159945043D01*
X96686075Y-159974234D01*
X96686076Y-159974234D01*
X96872676Y-159974234D01*
X96872677Y-159974234D01*
X97056981Y-159945043D01*
X97056984Y-159945042D01*
X97056985Y-159945042D01*
X97234447Y-159887381D01*
X97234447Y-159887380D01*
X97234450Y-159887380D01*
X97400714Y-159802665D01*
X97551678Y-159692983D01*
X97683625Y-159561036D01*
X97793307Y-159410072D01*
X97878022Y-159243808D01*
X97879495Y-159239275D01*
X97931445Y-159079390D01*
X97970882Y-159021714D01*
X98035241Y-158994516D01*
X98104087Y-159006431D01*
X98155563Y-159053675D01*
X98167307Y-159079390D01*
X98220728Y-159243805D01*
X98220730Y-159243808D01*
X98305445Y-159410072D01*
X98415127Y-159561036D01*
X98547074Y-159692983D01*
X98698038Y-159802665D01*
X98864302Y-159887380D01*
X98864304Y-159887381D01*
X99041767Y-159945042D01*
X99041768Y-159945042D01*
X99041771Y-159945043D01*
X99226075Y-159974234D01*
X99226076Y-159974234D01*
X99412676Y-159974234D01*
X99412677Y-159974234D01*
X99596981Y-159945043D01*
X99596984Y-159945042D01*
X99596985Y-159945042D01*
X99774447Y-159887381D01*
X99774447Y-159887380D01*
X99774450Y-159887380D01*
X99940714Y-159802665D01*
X100091678Y-159692983D01*
X100223625Y-159561036D01*
X100333307Y-159410072D01*
X100418022Y-159243808D01*
X100419495Y-159239275D01*
X100471445Y-159079390D01*
X100510882Y-159021714D01*
X100575241Y-158994516D01*
X100644087Y-159006431D01*
X100695563Y-159053675D01*
X100707307Y-159079390D01*
X100760728Y-159243805D01*
X100760730Y-159243808D01*
X100845445Y-159410072D01*
X100955127Y-159561036D01*
X101087074Y-159692983D01*
X101238038Y-159802665D01*
X101404302Y-159887380D01*
X101404304Y-159887381D01*
X101581767Y-159945042D01*
X101581768Y-159945042D01*
X101581771Y-159945043D01*
X101766075Y-159974234D01*
X101766076Y-159974234D01*
X101952676Y-159974234D01*
X101952677Y-159974234D01*
X102136981Y-159945043D01*
X102136984Y-159945042D01*
X102136985Y-159945042D01*
X102314447Y-159887381D01*
X102314447Y-159887380D01*
X102314450Y-159887380D01*
X102480714Y-159802665D01*
X102631678Y-159692983D01*
X102763625Y-159561036D01*
X102873307Y-159410072D01*
X102958022Y-159243808D01*
X102959495Y-159239275D01*
X103011445Y-159079390D01*
X103050882Y-159021714D01*
X103115241Y-158994516D01*
X103184087Y-159006431D01*
X103235563Y-159053675D01*
X103247307Y-159079390D01*
X103300728Y-159243805D01*
X103300730Y-159243808D01*
X103385445Y-159410072D01*
X103495127Y-159561036D01*
X103627074Y-159692983D01*
X103778038Y-159802665D01*
X103944302Y-159887380D01*
X103944304Y-159887381D01*
X104121767Y-159945042D01*
X104121768Y-159945042D01*
X104121771Y-159945043D01*
X104306075Y-159974234D01*
X104306076Y-159974234D01*
X104492676Y-159974234D01*
X104492677Y-159974234D01*
X104676981Y-159945043D01*
X104676984Y-159945042D01*
X104676985Y-159945042D01*
X104854447Y-159887381D01*
X104854447Y-159887380D01*
X104854450Y-159887380D01*
X105020714Y-159802665D01*
X105171678Y-159692983D01*
X105303625Y-159561036D01*
X105413307Y-159410072D01*
X105498022Y-159243808D01*
X105499495Y-159239275D01*
X105551445Y-159079390D01*
X105590882Y-159021714D01*
X105655241Y-158994516D01*
X105724087Y-159006431D01*
X105775563Y-159053675D01*
X105787307Y-159079390D01*
X105840728Y-159243805D01*
X105840730Y-159243808D01*
X105925445Y-159410072D01*
X106035127Y-159561036D01*
X106167074Y-159692983D01*
X106318038Y-159802665D01*
X106484302Y-159887380D01*
X106484304Y-159887381D01*
X106661767Y-159945042D01*
X106661768Y-159945042D01*
X106661771Y-159945043D01*
X106846075Y-159974234D01*
X106846076Y-159974234D01*
X107032676Y-159974234D01*
X107032677Y-159974234D01*
X107216981Y-159945043D01*
X107216984Y-159945042D01*
X107216985Y-159945042D01*
X107394447Y-159887381D01*
X107394447Y-159887380D01*
X107394450Y-159887380D01*
X107560714Y-159802665D01*
X107711678Y-159692983D01*
X107843625Y-159561036D01*
X107953307Y-159410072D01*
X108038022Y-159243808D01*
X108039495Y-159239275D01*
X108091445Y-159079390D01*
X108130882Y-159021714D01*
X108195241Y-158994516D01*
X108264087Y-159006431D01*
X108315563Y-159053675D01*
X108327307Y-159079390D01*
X108380728Y-159243805D01*
X108380730Y-159243808D01*
X108465445Y-159410072D01*
X108575127Y-159561036D01*
X108707074Y-159692983D01*
X108858038Y-159802665D01*
X109024302Y-159887380D01*
X109024304Y-159887381D01*
X109201767Y-159945042D01*
X109201768Y-159945042D01*
X109201771Y-159945043D01*
X109386075Y-159974234D01*
X109386076Y-159974234D01*
X109572676Y-159974234D01*
X109572677Y-159974234D01*
X109756981Y-159945043D01*
X109756984Y-159945042D01*
X109756985Y-159945042D01*
X109934447Y-159887381D01*
X109934447Y-159887380D01*
X109934450Y-159887380D01*
X110100714Y-159802665D01*
X110251678Y-159692983D01*
X110383625Y-159561036D01*
X110493307Y-159410072D01*
X110578022Y-159243808D01*
X110579495Y-159239275D01*
X110631445Y-159079390D01*
X110670882Y-159021714D01*
X110735241Y-158994516D01*
X110804087Y-159006431D01*
X110855563Y-159053675D01*
X110867307Y-159079390D01*
X110920728Y-159243805D01*
X110920730Y-159243808D01*
X111005445Y-159410072D01*
X111115127Y-159561036D01*
X111247074Y-159692983D01*
X111398038Y-159802665D01*
X111564302Y-159887380D01*
X111564304Y-159887381D01*
X111741767Y-159945042D01*
X111741768Y-159945042D01*
X111741771Y-159945043D01*
X111926075Y-159974234D01*
X111926076Y-159974234D01*
X112112676Y-159974234D01*
X112112677Y-159974234D01*
X112296981Y-159945043D01*
X112296984Y-159945042D01*
X112296985Y-159945042D01*
X112474447Y-159887381D01*
X112474447Y-159887380D01*
X112474450Y-159887380D01*
X112640714Y-159802665D01*
X112791678Y-159692983D01*
X112923625Y-159561036D01*
X113033307Y-159410072D01*
X113118022Y-159243808D01*
X113119495Y-159239275D01*
X113175684Y-159066343D01*
X113175684Y-159066342D01*
X113175685Y-159066339D01*
X113204876Y-158882035D01*
X113204876Y-158695433D01*
X113175685Y-158511129D01*
X113175684Y-158511125D01*
X113175684Y-158511124D01*
X113118023Y-158333662D01*
X113118021Y-158333659D01*
X113033306Y-158167395D01*
X112923625Y-158016432D01*
X112791678Y-157884485D01*
X112640714Y-157774803D01*
X112474450Y-157690088D01*
X112474447Y-157690086D01*
X112310032Y-157636665D01*
X112252356Y-157597228D01*
X112225158Y-157532869D01*
X112237073Y-157464023D01*
X112284317Y-157412547D01*
X112310032Y-157400803D01*
X112474447Y-157347381D01*
X112474447Y-157347380D01*
X112474450Y-157347380D01*
X112640714Y-157262665D01*
X112791678Y-157152983D01*
X112923625Y-157021036D01*
X113033307Y-156870072D01*
X113118022Y-156703808D01*
X113118023Y-156703805D01*
X113171445Y-156539390D01*
X113210882Y-156481714D01*
X113275241Y-156454516D01*
X113344087Y-156466431D01*
X113395563Y-156513675D01*
X113407307Y-156539390D01*
X113460728Y-156703805D01*
X113460730Y-156703808D01*
X113545445Y-156870072D01*
X113655127Y-157021036D01*
X113787074Y-157152983D01*
X113938038Y-157262665D01*
X114104302Y-157347380D01*
X114104304Y-157347381D01*
X114281767Y-157405042D01*
X114281768Y-157405042D01*
X114281771Y-157405043D01*
X114466075Y-157434234D01*
X114466076Y-157434234D01*
X114652676Y-157434234D01*
X114652677Y-157434234D01*
X114836981Y-157405043D01*
X114836984Y-157405042D01*
X114836985Y-157405042D01*
X115014447Y-157347381D01*
X115014447Y-157347380D01*
X115014450Y-157347380D01*
X115180714Y-157262665D01*
X115331678Y-157152983D01*
X115463625Y-157021036D01*
X115573307Y-156870072D01*
X115658022Y-156703808D01*
X115658023Y-156703805D01*
X115711445Y-156539390D01*
X115750882Y-156481714D01*
X115815241Y-156454516D01*
X115884087Y-156466431D01*
X115935563Y-156513675D01*
X115947307Y-156539390D01*
X116000728Y-156703805D01*
X116000730Y-156703808D01*
X116085445Y-156870072D01*
X116195127Y-157021036D01*
X116327074Y-157152983D01*
X116478038Y-157262665D01*
X116644302Y-157347380D01*
X116644304Y-157347381D01*
X116808719Y-157400803D01*
X116866395Y-157440241D01*
X116893593Y-157504599D01*
X116881678Y-157573446D01*
X116834434Y-157624921D01*
X116808719Y-157636665D01*
X116644304Y-157690086D01*
X116644301Y-157690088D01*
X116478037Y-157774803D01*
X116416832Y-157819272D01*
X116327074Y-157884485D01*
X116327072Y-157884487D01*
X116327071Y-157884487D01*
X116195129Y-158016429D01*
X116195129Y-158016430D01*
X116195127Y-158016432D01*
X116166479Y-158055863D01*
X116085445Y-158167395D01*
X116000730Y-158333659D01*
X116000728Y-158333662D01*
X115943067Y-158511124D01*
X115943067Y-158511127D01*
X115913876Y-158695433D01*
X115913876Y-158882034D01*
X115943067Y-159066340D01*
X115943067Y-159066343D01*
X116000728Y-159243805D01*
X116000730Y-159243808D01*
X116085445Y-159410072D01*
X116195127Y-159561036D01*
X116327074Y-159692983D01*
X116478038Y-159802665D01*
X116644302Y-159887380D01*
X116644304Y-159887381D01*
X116821767Y-159945042D01*
X116821768Y-159945042D01*
X116821771Y-159945043D01*
X117006075Y-159974234D01*
X117006076Y-159974234D01*
X117192676Y-159974234D01*
X117192677Y-159974234D01*
X117376981Y-159945043D01*
X117376984Y-159945042D01*
X117376985Y-159945042D01*
X117554447Y-159887381D01*
X117554447Y-159887380D01*
X117554450Y-159887380D01*
X117720714Y-159802665D01*
X117871678Y-159692983D01*
X118003625Y-159561036D01*
X118113307Y-159410072D01*
X118198022Y-159243808D01*
X118199495Y-159239275D01*
X118251445Y-159079390D01*
X118290882Y-159021714D01*
X118355241Y-158994516D01*
X118424087Y-159006431D01*
X118475563Y-159053675D01*
X118487307Y-159079390D01*
X118540728Y-159243805D01*
X118540730Y-159243808D01*
X118625445Y-159410072D01*
X118735127Y-159561036D01*
X118867074Y-159692983D01*
X119018038Y-159802665D01*
X119184302Y-159887380D01*
X119184304Y-159887381D01*
X119361767Y-159945042D01*
X119361768Y-159945042D01*
X119361771Y-159945043D01*
X119546075Y-159974234D01*
X119546076Y-159974234D01*
X119732676Y-159974234D01*
X119732677Y-159974234D01*
X119916981Y-159945043D01*
X119916984Y-159945042D01*
X119916985Y-159945042D01*
X120094447Y-159887381D01*
X120094447Y-159887380D01*
X120094450Y-159887380D01*
X120260714Y-159802665D01*
X120411678Y-159692983D01*
X120543625Y-159561036D01*
X120653307Y-159410072D01*
X120738022Y-159243808D01*
X120739495Y-159239275D01*
X120791445Y-159079390D01*
X120830882Y-159021714D01*
X120895241Y-158994516D01*
X120964087Y-159006431D01*
X121015563Y-159053675D01*
X121027307Y-159079390D01*
X121080728Y-159243805D01*
X121080730Y-159243808D01*
X121165445Y-159410072D01*
X121275127Y-159561036D01*
X121407074Y-159692983D01*
X121558038Y-159802665D01*
X121724302Y-159887380D01*
X121724304Y-159887381D01*
X121901767Y-159945042D01*
X121901768Y-159945042D01*
X121901771Y-159945043D01*
X122086075Y-159974234D01*
X122086076Y-159974234D01*
X122272676Y-159974234D01*
X122272677Y-159974234D01*
X122456981Y-159945043D01*
X122456984Y-159945042D01*
X122456985Y-159945042D01*
X122634447Y-159887381D01*
X122634447Y-159887380D01*
X122634450Y-159887380D01*
X122800714Y-159802665D01*
X122951678Y-159692983D01*
X123083625Y-159561036D01*
X123193307Y-159410072D01*
X123278022Y-159243808D01*
X123279495Y-159239275D01*
X123331445Y-159079390D01*
X123370882Y-159021714D01*
X123435241Y-158994516D01*
X123504087Y-159006431D01*
X123555563Y-159053675D01*
X123567307Y-159079390D01*
X123620728Y-159243805D01*
X123620730Y-159243808D01*
X123705445Y-159410072D01*
X123815127Y-159561036D01*
X123947074Y-159692983D01*
X124098038Y-159802665D01*
X124264302Y-159887380D01*
X124264304Y-159887381D01*
X124441767Y-159945042D01*
X124441768Y-159945042D01*
X124441771Y-159945043D01*
X124626075Y-159974234D01*
X124626076Y-159974234D01*
X124812676Y-159974234D01*
X124812677Y-159974234D01*
X124996981Y-159945043D01*
X124996984Y-159945042D01*
X124996985Y-159945042D01*
X125174447Y-159887381D01*
X125174447Y-159887380D01*
X125174450Y-159887380D01*
X125340714Y-159802665D01*
X125491678Y-159692983D01*
X125623625Y-159561036D01*
X125733307Y-159410072D01*
X125818022Y-159243808D01*
X125819495Y-159239275D01*
X125871445Y-159079390D01*
X125910882Y-159021714D01*
X125975241Y-158994516D01*
X126044087Y-159006431D01*
X126095563Y-159053675D01*
X126107307Y-159079390D01*
X126160728Y-159243805D01*
X126160730Y-159243808D01*
X126245445Y-159410072D01*
X126355127Y-159561036D01*
X126487074Y-159692983D01*
X126638038Y-159802665D01*
X126804302Y-159887380D01*
X126804304Y-159887381D01*
X126981767Y-159945042D01*
X126981768Y-159945042D01*
X126981771Y-159945043D01*
X127166075Y-159974234D01*
X127166076Y-159974234D01*
X127352676Y-159974234D01*
X127352677Y-159974234D01*
X127536981Y-159945043D01*
X127536984Y-159945042D01*
X127536985Y-159945042D01*
X127714447Y-159887381D01*
X127714447Y-159887380D01*
X127714450Y-159887380D01*
X127880714Y-159802665D01*
X128031678Y-159692983D01*
X128163625Y-159561036D01*
X128273307Y-159410072D01*
X128358022Y-159243808D01*
X128359495Y-159239275D01*
X128411445Y-159079390D01*
X128450882Y-159021714D01*
X128515241Y-158994516D01*
X128584087Y-159006431D01*
X128635563Y-159053675D01*
X128647307Y-159079390D01*
X128700728Y-159243805D01*
X128700730Y-159243808D01*
X128785445Y-159410072D01*
X128895127Y-159561036D01*
X129027074Y-159692983D01*
X129178038Y-159802665D01*
X129344302Y-159887380D01*
X129344304Y-159887381D01*
X129521767Y-159945042D01*
X129521768Y-159945042D01*
X129521771Y-159945043D01*
X129706075Y-159974234D01*
X129706076Y-159974234D01*
X129892676Y-159974234D01*
X129892677Y-159974234D01*
X130076981Y-159945043D01*
X130076984Y-159945042D01*
X130076985Y-159945042D01*
X130254447Y-159887381D01*
X130254447Y-159887380D01*
X130254450Y-159887380D01*
X130420714Y-159802665D01*
X130571678Y-159692983D01*
X130703625Y-159561036D01*
X130813307Y-159410072D01*
X130898022Y-159243808D01*
X130899495Y-159239275D01*
X130955684Y-159066343D01*
X130955684Y-159066342D01*
X130955685Y-159066339D01*
X130984876Y-158882035D01*
X130984876Y-158695433D01*
X130955685Y-158511129D01*
X130955684Y-158511125D01*
X130955684Y-158511124D01*
X130898023Y-158333662D01*
X130898021Y-158333659D01*
X130813306Y-158167395D01*
X130703625Y-158016432D01*
X130571678Y-157884485D01*
X130420714Y-157774803D01*
X130317077Y-157721998D01*
X133856995Y-157721998D01*
X133856995Y-158051198D01*
X133857455Y-158055869D01*
X133889260Y-158378799D01*
X133889263Y-158378816D01*
X133953479Y-158701664D01*
X133953482Y-158701675D01*
X134049047Y-159016710D01*
X134175023Y-159320842D01*
X134175030Y-159320856D01*
X134330202Y-159611165D01*
X134330213Y-159611183D01*
X134513096Y-159884887D01*
X134513106Y-159884901D01*
X134721948Y-160139375D01*
X134954717Y-160372144D01*
X134954722Y-160372148D01*
X134954723Y-160372149D01*
X135209197Y-160580991D01*
X135482916Y-160763884D01*
X135773244Y-160919067D01*
X136077384Y-161045046D01*
X136392408Y-161140608D01*
X136392414Y-161140609D01*
X136392417Y-161140610D01*
X136392428Y-161140613D01*
X136572856Y-161176501D01*
X136715282Y-161204831D01*
X137042895Y-161237098D01*
X137042898Y-161237098D01*
X137372092Y-161237098D01*
X137372095Y-161237098D01*
X137699708Y-161204831D01*
X137877255Y-161169514D01*
X138022561Y-161140613D01*
X138022572Y-161140610D01*
X138022572Y-161140609D01*
X138022582Y-161140608D01*
X138337606Y-161045046D01*
X138641746Y-160919067D01*
X138932074Y-160763884D01*
X139205793Y-160580991D01*
X139460267Y-160372149D01*
X139693046Y-160139370D01*
X139901888Y-159884896D01*
X140084781Y-159611177D01*
X140239964Y-159320849D01*
X140365943Y-159016709D01*
X140461505Y-158701685D01*
X140461507Y-158701675D01*
X140461510Y-158701664D01*
X140496890Y-158523792D01*
X140525728Y-158378811D01*
X140557995Y-158051198D01*
X140557995Y-157721998D01*
X140525728Y-157394385D01*
X140477711Y-157152983D01*
X140461510Y-157071531D01*
X140461507Y-157071520D01*
X140461506Y-157071517D01*
X140461505Y-157071511D01*
X140365943Y-156756487D01*
X140239964Y-156452347D01*
X140084781Y-156162019D01*
X139901888Y-155888300D01*
X139693046Y-155633826D01*
X139693045Y-155633825D01*
X139693041Y-155633820D01*
X139460272Y-155401051D01*
X139205798Y-155192209D01*
X139205797Y-155192208D01*
X139205793Y-155192205D01*
X138932074Y-155009312D01*
X138932069Y-155009309D01*
X138932062Y-155009305D01*
X138708035Y-154889561D01*
X138641746Y-154854129D01*
X138641739Y-154854126D01*
X138337607Y-154728150D01*
X138022572Y-154632585D01*
X138022561Y-154632582D01*
X137699713Y-154568366D01*
X137699708Y-154568365D01*
X137699706Y-154568364D01*
X137699696Y-154568363D01*
X137459017Y-154544659D01*
X137372095Y-154536098D01*
X137042895Y-154536098D01*
X136963035Y-154543963D01*
X136715293Y-154568363D01*
X136715276Y-154568366D01*
X136392428Y-154632582D01*
X136392417Y-154632585D01*
X136077382Y-154728150D01*
X135773250Y-154854126D01*
X135773236Y-154854133D01*
X135482927Y-155009305D01*
X135482909Y-155009316D01*
X135209205Y-155192199D01*
X135209191Y-155192209D01*
X134954717Y-155401051D01*
X134721948Y-155633820D01*
X134513106Y-155888294D01*
X134513096Y-155888308D01*
X134330213Y-156162012D01*
X134330202Y-156162030D01*
X134175030Y-156452339D01*
X134175023Y-156452353D01*
X134049047Y-156756485D01*
X133953482Y-157071520D01*
X133953479Y-157071531D01*
X133889263Y-157394379D01*
X133889260Y-157394396D01*
X133869284Y-157597228D01*
X133856995Y-157721998D01*
X130317077Y-157721998D01*
X130254450Y-157690088D01*
X130254447Y-157690086D01*
X130090032Y-157636665D01*
X130032356Y-157597228D01*
X130005158Y-157532869D01*
X130017073Y-157464023D01*
X130064317Y-157412547D01*
X130090032Y-157400803D01*
X130254447Y-157347381D01*
X130254447Y-157347380D01*
X130254450Y-157347380D01*
X130420714Y-157262665D01*
X130571678Y-157152983D01*
X130703625Y-157021036D01*
X130813307Y-156870072D01*
X130898022Y-156703808D01*
X130898023Y-156703805D01*
X130951445Y-156539390D01*
X130990882Y-156481714D01*
X131055241Y-156454516D01*
X131124087Y-156466431D01*
X131175563Y-156513675D01*
X131187307Y-156539390D01*
X131240728Y-156703805D01*
X131240730Y-156703808D01*
X131325445Y-156870072D01*
X131435127Y-157021036D01*
X131567074Y-157152983D01*
X131718038Y-157262665D01*
X131884302Y-157347380D01*
X131884304Y-157347381D01*
X132061767Y-157405042D01*
X132061768Y-157405042D01*
X132061771Y-157405043D01*
X132246075Y-157434234D01*
X132246076Y-157434234D01*
X132432676Y-157434234D01*
X132432677Y-157434234D01*
X132616981Y-157405043D01*
X132616984Y-157405042D01*
X132616985Y-157405042D01*
X132794447Y-157347381D01*
X132794447Y-157347380D01*
X132794450Y-157347380D01*
X132960714Y-157262665D01*
X133111678Y-157152983D01*
X133243625Y-157021036D01*
X133353307Y-156870072D01*
X133438022Y-156703808D01*
X133438023Y-156703805D01*
X133495684Y-156526343D01*
X133495684Y-156526342D01*
X133495685Y-156526339D01*
X133524876Y-156342035D01*
X133524876Y-156155433D01*
X133495685Y-155971129D01*
X133495684Y-155971125D01*
X133495684Y-155971124D01*
X133438023Y-155793662D01*
X133438021Y-155793659D01*
X133430566Y-155779026D01*
X133353307Y-155627396D01*
X133243625Y-155476432D01*
X133111678Y-155344485D01*
X132960714Y-155234803D01*
X132794450Y-155150088D01*
X132794447Y-155150086D01*
X132616984Y-155092425D01*
X132478753Y-155070531D01*
X132432677Y-155063234D01*
X132246075Y-155063234D01*
X132184640Y-155072964D01*
X132061769Y-155092425D01*
X132061766Y-155092425D01*
X131884304Y-155150086D01*
X131884301Y-155150088D01*
X131718037Y-155234803D01*
X131631907Y-155297380D01*
X131567074Y-155344485D01*
X131567072Y-155344487D01*
X131567071Y-155344487D01*
X131435129Y-155476429D01*
X131435129Y-155476430D01*
X131435127Y-155476432D01*
X131416389Y-155502223D01*
X131325445Y-155627395D01*
X131240730Y-155793659D01*
X131240728Y-155793662D01*
X131187307Y-155958077D01*
X131147869Y-156015753D01*
X131083511Y-156042951D01*
X131014664Y-156031036D01*
X130963189Y-155983792D01*
X130951445Y-155958077D01*
X130898023Y-155793662D01*
X130898021Y-155793659D01*
X130890566Y-155779026D01*
X130813307Y-155627396D01*
X130703625Y-155476432D01*
X130571678Y-155344485D01*
X130420714Y-155234803D01*
X130254450Y-155150088D01*
X130254447Y-155150086D01*
X130076984Y-155092425D01*
X129938753Y-155070531D01*
X129892677Y-155063234D01*
X129706075Y-155063234D01*
X129644640Y-155072964D01*
X129521769Y-155092425D01*
X129521766Y-155092425D01*
X129344304Y-155150086D01*
X129344301Y-155150088D01*
X129178037Y-155234803D01*
X129091907Y-155297380D01*
X129027074Y-155344485D01*
X129027072Y-155344487D01*
X129027071Y-155344487D01*
X128895129Y-155476429D01*
X128895129Y-155476430D01*
X128895127Y-155476432D01*
X128876389Y-155502223D01*
X128785445Y-155627395D01*
X128700730Y-155793659D01*
X128700728Y-155793662D01*
X128647307Y-155958077D01*
X128607869Y-156015753D01*
X128543511Y-156042951D01*
X128474664Y-156031036D01*
X128423189Y-155983792D01*
X128411445Y-155958077D01*
X128358023Y-155793662D01*
X128358021Y-155793659D01*
X128350566Y-155779026D01*
X128273307Y-155627396D01*
X128163625Y-155476432D01*
X128031678Y-155344485D01*
X127880714Y-155234803D01*
X127714450Y-155150088D01*
X127714447Y-155150086D01*
X127536984Y-155092425D01*
X127398753Y-155070531D01*
X127352677Y-155063234D01*
X127166075Y-155063234D01*
X127104640Y-155072964D01*
X126981769Y-155092425D01*
X126981766Y-155092425D01*
X126804304Y-155150086D01*
X126804301Y-155150088D01*
X126638037Y-155234803D01*
X126551907Y-155297380D01*
X126487074Y-155344485D01*
X126487072Y-155344487D01*
X126487071Y-155344487D01*
X126355129Y-155476429D01*
X126355129Y-155476430D01*
X126355127Y-155476432D01*
X126336389Y-155502223D01*
X126245445Y-155627395D01*
X126160730Y-155793659D01*
X126160728Y-155793662D01*
X126103067Y-155971124D01*
X126103067Y-155971127D01*
X126093231Y-156033231D01*
X126073876Y-156155433D01*
X126073876Y-156342035D01*
X126088471Y-156434187D01*
X126103067Y-156526340D01*
X126103067Y-156526343D01*
X126160728Y-156703805D01*
X126160730Y-156703808D01*
X126245445Y-156870072D01*
X126355127Y-157021036D01*
X126487074Y-157152983D01*
X126638038Y-157262665D01*
X126804302Y-157347380D01*
X126804304Y-157347381D01*
X126968719Y-157400803D01*
X127026395Y-157440241D01*
X127053593Y-157504599D01*
X127041678Y-157573446D01*
X126994434Y-157624921D01*
X126968719Y-157636665D01*
X126804304Y-157690086D01*
X126804301Y-157690088D01*
X126638037Y-157774803D01*
X126576832Y-157819272D01*
X126487074Y-157884485D01*
X126487072Y-157884487D01*
X126487071Y-157884487D01*
X126355129Y-158016429D01*
X126355129Y-158016430D01*
X126355127Y-158016432D01*
X126326479Y-158055863D01*
X126245445Y-158167395D01*
X126160730Y-158333659D01*
X126160728Y-158333662D01*
X126107307Y-158498077D01*
X126067869Y-158555753D01*
X126003511Y-158582951D01*
X125934664Y-158571036D01*
X125883189Y-158523792D01*
X125871445Y-158498077D01*
X125818023Y-158333662D01*
X125818021Y-158333659D01*
X125733306Y-158167395D01*
X125623625Y-158016432D01*
X125491678Y-157884485D01*
X125340714Y-157774803D01*
X125174450Y-157690088D01*
X125174447Y-157690086D01*
X124996984Y-157632425D01*
X124853135Y-157609642D01*
X124812677Y-157603234D01*
X124626075Y-157603234D01*
X124564640Y-157612964D01*
X124441769Y-157632425D01*
X124441766Y-157632425D01*
X124264304Y-157690086D01*
X124264301Y-157690088D01*
X124098037Y-157774803D01*
X124036832Y-157819272D01*
X123947074Y-157884485D01*
X123947072Y-157884487D01*
X123947071Y-157884487D01*
X123815129Y-158016429D01*
X123815129Y-158016430D01*
X123815127Y-158016432D01*
X123786479Y-158055863D01*
X123705445Y-158167395D01*
X123620730Y-158333659D01*
X123620728Y-158333662D01*
X123567307Y-158498077D01*
X123527869Y-158555753D01*
X123463511Y-158582951D01*
X123394664Y-158571036D01*
X123343189Y-158523792D01*
X123331445Y-158498077D01*
X123278023Y-158333662D01*
X123278021Y-158333659D01*
X123193306Y-158167395D01*
X123083625Y-158016432D01*
X122951678Y-157884485D01*
X122800714Y-157774803D01*
X122634450Y-157690088D01*
X122634447Y-157690086D01*
X122470032Y-157636665D01*
X122412356Y-157597228D01*
X122385158Y-157532869D01*
X122397073Y-157464023D01*
X122444317Y-157412547D01*
X122470032Y-157400803D01*
X122634447Y-157347381D01*
X122634447Y-157347380D01*
X122634450Y-157347380D01*
X122800714Y-157262665D01*
X122951678Y-157152983D01*
X123083625Y-157021036D01*
X123193307Y-156870072D01*
X123278022Y-156703808D01*
X123278023Y-156703805D01*
X123335684Y-156526343D01*
X123335684Y-156526342D01*
X123335685Y-156526339D01*
X123364876Y-156342035D01*
X123364876Y-156155433D01*
X123335685Y-155971129D01*
X123335684Y-155971125D01*
X123335684Y-155971124D01*
X123278023Y-155793662D01*
X123278021Y-155793659D01*
X123270566Y-155779026D01*
X123193307Y-155627396D01*
X123083625Y-155476432D01*
X122951678Y-155344485D01*
X122800714Y-155234803D01*
X122634450Y-155150088D01*
X122634447Y-155150086D01*
X122456984Y-155092425D01*
X122318753Y-155070531D01*
X122272677Y-155063234D01*
X122086075Y-155063234D01*
X122024640Y-155072964D01*
X121901769Y-155092425D01*
X121901766Y-155092425D01*
X121724304Y-155150086D01*
X121724301Y-155150088D01*
X121558037Y-155234803D01*
X121471907Y-155297380D01*
X121407074Y-155344485D01*
X121407072Y-155344487D01*
X121407071Y-155344487D01*
X121275129Y-155476429D01*
X121275129Y-155476430D01*
X121275127Y-155476432D01*
X121256389Y-155502223D01*
X121165445Y-155627395D01*
X121080730Y-155793659D01*
X121080728Y-155793662D01*
X121023067Y-155971124D01*
X121023067Y-155971127D01*
X121013231Y-156033231D01*
X120993876Y-156155433D01*
X120993876Y-156342035D01*
X121008471Y-156434187D01*
X121023067Y-156526340D01*
X121023067Y-156526343D01*
X121080728Y-156703805D01*
X121080730Y-156703808D01*
X121165445Y-156870072D01*
X121275127Y-157021036D01*
X121407074Y-157152983D01*
X121558038Y-157262665D01*
X121724302Y-157347380D01*
X121724304Y-157347381D01*
X121888719Y-157400803D01*
X121946395Y-157440241D01*
X121973593Y-157504599D01*
X121961678Y-157573446D01*
X121914434Y-157624921D01*
X121888719Y-157636665D01*
X121724304Y-157690086D01*
X121724301Y-157690088D01*
X121558037Y-157774803D01*
X121496832Y-157819272D01*
X121407074Y-157884485D01*
X121407072Y-157884487D01*
X121407071Y-157884487D01*
X121275129Y-158016429D01*
X121275129Y-158016430D01*
X121275127Y-158016432D01*
X121246479Y-158055863D01*
X121165445Y-158167395D01*
X121080730Y-158333659D01*
X121080728Y-158333662D01*
X121027307Y-158498077D01*
X120987869Y-158555753D01*
X120923511Y-158582951D01*
X120854664Y-158571036D01*
X120803189Y-158523792D01*
X120791445Y-158498077D01*
X120738023Y-158333662D01*
X120738021Y-158333659D01*
X120653306Y-158167395D01*
X120543625Y-158016432D01*
X120411678Y-157884485D01*
X120260714Y-157774803D01*
X120094450Y-157690088D01*
X120094447Y-157690086D01*
X119916984Y-157632425D01*
X119773135Y-157609642D01*
X119732677Y-157603234D01*
X119546075Y-157603234D01*
X119484640Y-157612964D01*
X119361769Y-157632425D01*
X119361766Y-157632425D01*
X119184304Y-157690086D01*
X119184301Y-157690088D01*
X119018037Y-157774803D01*
X118956832Y-157819272D01*
X118867074Y-157884485D01*
X118867072Y-157884487D01*
X118867071Y-157884487D01*
X118735129Y-158016429D01*
X118735129Y-158016430D01*
X118735127Y-158016432D01*
X118706479Y-158055863D01*
X118625445Y-158167395D01*
X118540730Y-158333659D01*
X118540728Y-158333662D01*
X118487307Y-158498077D01*
X118447869Y-158555753D01*
X118383511Y-158582951D01*
X118314664Y-158571036D01*
X118263189Y-158523792D01*
X118251445Y-158498077D01*
X118198023Y-158333662D01*
X118198021Y-158333659D01*
X118113306Y-158167395D01*
X118003625Y-158016432D01*
X117871678Y-157884485D01*
X117720714Y-157774803D01*
X117554450Y-157690088D01*
X117554447Y-157690086D01*
X117390032Y-157636665D01*
X117332356Y-157597228D01*
X117305158Y-157532869D01*
X117317073Y-157464023D01*
X117364317Y-157412547D01*
X117390032Y-157400803D01*
X117554447Y-157347381D01*
X117554447Y-157347380D01*
X117554450Y-157347380D01*
X117720714Y-157262665D01*
X117871678Y-157152983D01*
X118003625Y-157021036D01*
X118113307Y-156870072D01*
X118198022Y-156703808D01*
X118198023Y-156703805D01*
X118255684Y-156526343D01*
X118255684Y-156526342D01*
X118255685Y-156526339D01*
X118284876Y-156342035D01*
X118284876Y-156155433D01*
X118255685Y-155971129D01*
X118255684Y-155971125D01*
X118255684Y-155971124D01*
X118198023Y-155793662D01*
X118198021Y-155793659D01*
X118190566Y-155779026D01*
X118113307Y-155627396D01*
X118003625Y-155476432D01*
X117871678Y-155344485D01*
X117720714Y-155234803D01*
X117554450Y-155150088D01*
X117554447Y-155150086D01*
X117376984Y-155092425D01*
X117238753Y-155070531D01*
X117192677Y-155063234D01*
X117006075Y-155063234D01*
X116944640Y-155072964D01*
X116821769Y-155092425D01*
X116821766Y-155092425D01*
X116644304Y-155150086D01*
X116644301Y-155150088D01*
X116478037Y-155234803D01*
X116391907Y-155297380D01*
X116327074Y-155344485D01*
X116327072Y-155344487D01*
X116327071Y-155344487D01*
X116195129Y-155476429D01*
X116195129Y-155476430D01*
X116195127Y-155476432D01*
X116176389Y-155502223D01*
X116085445Y-155627395D01*
X116000730Y-155793659D01*
X116000728Y-155793662D01*
X115947307Y-155958077D01*
X115907869Y-156015753D01*
X115843511Y-156042951D01*
X115774664Y-156031036D01*
X115723189Y-155983792D01*
X115711445Y-155958077D01*
X115658023Y-155793662D01*
X115658021Y-155793659D01*
X115650566Y-155779026D01*
X115573307Y-155627396D01*
X115463625Y-155476432D01*
X115331678Y-155344485D01*
X115180714Y-155234803D01*
X115014450Y-155150088D01*
X115014447Y-155150086D01*
X114836984Y-155092425D01*
X114698753Y-155070531D01*
X114652677Y-155063234D01*
X114466075Y-155063234D01*
X114404640Y-155072964D01*
X114281769Y-155092425D01*
X114281766Y-155092425D01*
X114104304Y-155150086D01*
X114104301Y-155150088D01*
X113938037Y-155234803D01*
X113851907Y-155297380D01*
X113787074Y-155344485D01*
X113787072Y-155344487D01*
X113787071Y-155344487D01*
X113655129Y-155476429D01*
X113655129Y-155476430D01*
X113655127Y-155476432D01*
X113636389Y-155502223D01*
X113545445Y-155627395D01*
X113460730Y-155793659D01*
X113460728Y-155793662D01*
X113407307Y-155958077D01*
X113367869Y-156015753D01*
X113303511Y-156042951D01*
X113234664Y-156031036D01*
X113183189Y-155983792D01*
X113171445Y-155958077D01*
X113118023Y-155793662D01*
X113118021Y-155793659D01*
X113110566Y-155779026D01*
X113033307Y-155627396D01*
X112923625Y-155476432D01*
X112791678Y-155344485D01*
X112640714Y-155234803D01*
X112474450Y-155150088D01*
X112474447Y-155150086D01*
X112296984Y-155092425D01*
X112158753Y-155070531D01*
X112112677Y-155063234D01*
X111926075Y-155063234D01*
X111864640Y-155072964D01*
X111741769Y-155092425D01*
X111741766Y-155092425D01*
X111564304Y-155150086D01*
X111564301Y-155150088D01*
X111398037Y-155234803D01*
X111311907Y-155297380D01*
X111247074Y-155344485D01*
X111247072Y-155344487D01*
X111247071Y-155344487D01*
X111115129Y-155476429D01*
X111115129Y-155476430D01*
X111115127Y-155476432D01*
X111096389Y-155502223D01*
X111005445Y-155627395D01*
X110920730Y-155793659D01*
X110920728Y-155793662D01*
X110867307Y-155958077D01*
X110827869Y-156015753D01*
X110763511Y-156042951D01*
X110694664Y-156031036D01*
X110643189Y-155983792D01*
X110631445Y-155958077D01*
X110578023Y-155793662D01*
X110578021Y-155793659D01*
X110570566Y-155779026D01*
X110493307Y-155627396D01*
X110383625Y-155476432D01*
X110251678Y-155344485D01*
X110100714Y-155234803D01*
X109934450Y-155150088D01*
X109934447Y-155150086D01*
X109756984Y-155092425D01*
X109618753Y-155070531D01*
X109572677Y-155063234D01*
X109386075Y-155063234D01*
X109324640Y-155072964D01*
X109201769Y-155092425D01*
X109201766Y-155092425D01*
X109024304Y-155150086D01*
X109024301Y-155150088D01*
X108858037Y-155234803D01*
X108771907Y-155297380D01*
X108707074Y-155344485D01*
X108707072Y-155344487D01*
X108707071Y-155344487D01*
X108575129Y-155476429D01*
X108575129Y-155476430D01*
X108575127Y-155476432D01*
X108556389Y-155502223D01*
X108465445Y-155627395D01*
X108380730Y-155793659D01*
X108380728Y-155793662D01*
X108323067Y-155971124D01*
X108323067Y-155971127D01*
X108313231Y-156033231D01*
X108293876Y-156155433D01*
X108293876Y-156342035D01*
X108308471Y-156434187D01*
X108323067Y-156526340D01*
X108323067Y-156526343D01*
X108380728Y-156703805D01*
X108380730Y-156703808D01*
X108465445Y-156870072D01*
X108575127Y-157021036D01*
X108707074Y-157152983D01*
X108858038Y-157262665D01*
X109024302Y-157347380D01*
X109024304Y-157347381D01*
X109188719Y-157400803D01*
X109246395Y-157440241D01*
X109273593Y-157504599D01*
X109261678Y-157573446D01*
X109214434Y-157624921D01*
X109188719Y-157636665D01*
X109024304Y-157690086D01*
X109024301Y-157690088D01*
X108858037Y-157774803D01*
X108796832Y-157819272D01*
X108707074Y-157884485D01*
X108707072Y-157884487D01*
X108707071Y-157884487D01*
X108575129Y-158016429D01*
X108575129Y-158016430D01*
X108575127Y-158016432D01*
X108546479Y-158055863D01*
X108465445Y-158167395D01*
X108380730Y-158333659D01*
X108380728Y-158333662D01*
X108327307Y-158498077D01*
X108287869Y-158555753D01*
X108223511Y-158582951D01*
X108154664Y-158571036D01*
X108103189Y-158523792D01*
X108091445Y-158498077D01*
X108038023Y-158333662D01*
X108038021Y-158333659D01*
X107953306Y-158167395D01*
X107843625Y-158016432D01*
X107711678Y-157884485D01*
X107560714Y-157774803D01*
X107394450Y-157690088D01*
X107394447Y-157690086D01*
X107216984Y-157632425D01*
X107073135Y-157609642D01*
X107032677Y-157603234D01*
X106846075Y-157603234D01*
X106784640Y-157612964D01*
X106661769Y-157632425D01*
X106661766Y-157632425D01*
X106484304Y-157690086D01*
X106484301Y-157690088D01*
X106318037Y-157774803D01*
X106256832Y-157819272D01*
X106167074Y-157884485D01*
X106167072Y-157884487D01*
X106167071Y-157884487D01*
X106035129Y-158016429D01*
X106035129Y-158016430D01*
X106035127Y-158016432D01*
X106006479Y-158055863D01*
X105925445Y-158167395D01*
X105840730Y-158333659D01*
X105840728Y-158333662D01*
X105787307Y-158498077D01*
X105747869Y-158555753D01*
X105683511Y-158582951D01*
X105614664Y-158571036D01*
X105563189Y-158523792D01*
X105551445Y-158498077D01*
X105498023Y-158333662D01*
X105498021Y-158333659D01*
X105413306Y-158167395D01*
X105303625Y-158016432D01*
X105171678Y-157884485D01*
X105020714Y-157774803D01*
X104854450Y-157690088D01*
X104854447Y-157690086D01*
X104690032Y-157636665D01*
X104632356Y-157597228D01*
X104605158Y-157532869D01*
X104617073Y-157464023D01*
X104664317Y-157412547D01*
X104690032Y-157400803D01*
X104854447Y-157347381D01*
X104854447Y-157347380D01*
X104854450Y-157347380D01*
X105020714Y-157262665D01*
X105171678Y-157152983D01*
X105303625Y-157021036D01*
X105413307Y-156870072D01*
X105498022Y-156703808D01*
X105498023Y-156703805D01*
X105555684Y-156526343D01*
X105555684Y-156526342D01*
X105555685Y-156526339D01*
X105584876Y-156342035D01*
X105584876Y-156155433D01*
X105555685Y-155971129D01*
X105555684Y-155971125D01*
X105555684Y-155971124D01*
X105498023Y-155793662D01*
X105498021Y-155793659D01*
X105490566Y-155779026D01*
X105413307Y-155627396D01*
X105303625Y-155476432D01*
X105171678Y-155344485D01*
X105020714Y-155234803D01*
X104854450Y-155150088D01*
X104854447Y-155150086D01*
X104676984Y-155092425D01*
X104538753Y-155070531D01*
X104492677Y-155063234D01*
X104306075Y-155063234D01*
X104244640Y-155072964D01*
X104121769Y-155092425D01*
X104121766Y-155092425D01*
X103944304Y-155150086D01*
X103944301Y-155150088D01*
X103778037Y-155234803D01*
X103691907Y-155297380D01*
X103627074Y-155344485D01*
X103627072Y-155344487D01*
X103627071Y-155344487D01*
X103495129Y-155476429D01*
X103495129Y-155476430D01*
X103495127Y-155476432D01*
X103476389Y-155502223D01*
X103385445Y-155627395D01*
X103300730Y-155793659D01*
X103300728Y-155793662D01*
X103247307Y-155958077D01*
X103207869Y-156015753D01*
X103143511Y-156042951D01*
X103074664Y-156031036D01*
X103023189Y-155983792D01*
X103011445Y-155958077D01*
X102958023Y-155793662D01*
X102958021Y-155793659D01*
X102950566Y-155779026D01*
X102873307Y-155627396D01*
X102763625Y-155476432D01*
X102631678Y-155344485D01*
X102480714Y-155234803D01*
X102314450Y-155150088D01*
X102314447Y-155150086D01*
X102136984Y-155092425D01*
X101998753Y-155070531D01*
X101952677Y-155063234D01*
X101766075Y-155063234D01*
X101704640Y-155072964D01*
X101581769Y-155092425D01*
X101581766Y-155092425D01*
X101404304Y-155150086D01*
X101404301Y-155150088D01*
X101238037Y-155234803D01*
X101151907Y-155297380D01*
X101087074Y-155344485D01*
X101087072Y-155344487D01*
X101087071Y-155344487D01*
X100955129Y-155476429D01*
X100955129Y-155476430D01*
X100955127Y-155476432D01*
X100936389Y-155502223D01*
X100845445Y-155627395D01*
X100760730Y-155793659D01*
X100760728Y-155793662D01*
X100703067Y-155971124D01*
X100703067Y-155971127D01*
X100693231Y-156033231D01*
X100673876Y-156155433D01*
X100673876Y-156342035D01*
X100688471Y-156434187D01*
X100703067Y-156526340D01*
X100703067Y-156526343D01*
X100760728Y-156703805D01*
X100760730Y-156703808D01*
X100845445Y-156870072D01*
X100955127Y-157021036D01*
X101087074Y-157152983D01*
X101238038Y-157262665D01*
X101404302Y-157347380D01*
X101404304Y-157347381D01*
X101568719Y-157400803D01*
X101626395Y-157440241D01*
X101653593Y-157504599D01*
X101641678Y-157573446D01*
X101594434Y-157624921D01*
X101568719Y-157636665D01*
X101404304Y-157690086D01*
X101404301Y-157690088D01*
X101238037Y-157774803D01*
X101176832Y-157819272D01*
X101087074Y-157884485D01*
X101087072Y-157884487D01*
X101087071Y-157884487D01*
X100955129Y-158016429D01*
X100955129Y-158016430D01*
X100955127Y-158016432D01*
X100926479Y-158055863D01*
X100845445Y-158167395D01*
X100760730Y-158333659D01*
X100760728Y-158333662D01*
X100707307Y-158498077D01*
X100667869Y-158555753D01*
X100603511Y-158582951D01*
X100534664Y-158571036D01*
X100483189Y-158523792D01*
X100471445Y-158498077D01*
X100418023Y-158333662D01*
X100418021Y-158333659D01*
X100333306Y-158167395D01*
X100223625Y-158016432D01*
X100091678Y-157884485D01*
X99940714Y-157774803D01*
X99774450Y-157690088D01*
X99774447Y-157690086D01*
X99596984Y-157632425D01*
X99453135Y-157609642D01*
X99412677Y-157603234D01*
X99226075Y-157603234D01*
X99164640Y-157612964D01*
X99041769Y-157632425D01*
X99041766Y-157632425D01*
X98864304Y-157690086D01*
X98864301Y-157690088D01*
X98698037Y-157774803D01*
X98636832Y-157819272D01*
X98547074Y-157884485D01*
X98547072Y-157884487D01*
X98547071Y-157884487D01*
X98415129Y-158016429D01*
X98415129Y-158016430D01*
X98415127Y-158016432D01*
X98386479Y-158055863D01*
X98305445Y-158167395D01*
X98220730Y-158333659D01*
X98220728Y-158333662D01*
X98167307Y-158498077D01*
X98127869Y-158555753D01*
X98063511Y-158582951D01*
X97994664Y-158571036D01*
X97943189Y-158523792D01*
X97931445Y-158498077D01*
X97878023Y-158333662D01*
X97878021Y-158333659D01*
X97793306Y-158167395D01*
X97683625Y-158016432D01*
X97551678Y-157884485D01*
X97400714Y-157774803D01*
X97234450Y-157690088D01*
X97234447Y-157690086D01*
X97070032Y-157636665D01*
X97012356Y-157597228D01*
X96985158Y-157532869D01*
X96997073Y-157464023D01*
X97044317Y-157412547D01*
X97070032Y-157400803D01*
X97234447Y-157347381D01*
X97234447Y-157347380D01*
X97234450Y-157347380D01*
X97400714Y-157262665D01*
X97551678Y-157152983D01*
X97683625Y-157021036D01*
X97793307Y-156870072D01*
X97878022Y-156703808D01*
X97878023Y-156703805D01*
X97935684Y-156526343D01*
X97935684Y-156526342D01*
X97935685Y-156526339D01*
X97964876Y-156342035D01*
X97964876Y-156155433D01*
X97935685Y-155971129D01*
X97935684Y-155971125D01*
X97935684Y-155971124D01*
X97878023Y-155793662D01*
X97878021Y-155793659D01*
X97870566Y-155779026D01*
X97793307Y-155627396D01*
X97683625Y-155476432D01*
X97551678Y-155344485D01*
X97400714Y-155234803D01*
X97234450Y-155150088D01*
X97234447Y-155150086D01*
X97056984Y-155092425D01*
X96918753Y-155070531D01*
X96872677Y-155063234D01*
X96686075Y-155063234D01*
X96624640Y-155072964D01*
X96501769Y-155092425D01*
X96501766Y-155092425D01*
X96324304Y-155150086D01*
X96324301Y-155150088D01*
X96158037Y-155234803D01*
X96071907Y-155297380D01*
X96007074Y-155344485D01*
X96007072Y-155344487D01*
X96007071Y-155344487D01*
X95875129Y-155476429D01*
X95875129Y-155476430D01*
X95875127Y-155476432D01*
X95856389Y-155502223D01*
X95765445Y-155627395D01*
X95680730Y-155793659D01*
X95680728Y-155793662D01*
X95627307Y-155958077D01*
X95587869Y-156015753D01*
X95523511Y-156042951D01*
X95454664Y-156031036D01*
X95403189Y-155983792D01*
X95391445Y-155958077D01*
X95338023Y-155793662D01*
X95338021Y-155793659D01*
X95330566Y-155779026D01*
X95253307Y-155627396D01*
X95143625Y-155476432D01*
X95011678Y-155344485D01*
X94860714Y-155234803D01*
X94694450Y-155150088D01*
X94694447Y-155150086D01*
X94516984Y-155092425D01*
X94378753Y-155070531D01*
X94332677Y-155063234D01*
X94146075Y-155063234D01*
X94084640Y-155072964D01*
X93961769Y-155092425D01*
X93961766Y-155092425D01*
X93784304Y-155150086D01*
X93784301Y-155150088D01*
X93618037Y-155234803D01*
X93531907Y-155297380D01*
X93467074Y-155344485D01*
X93467072Y-155344487D01*
X93467071Y-155344487D01*
X93335129Y-155476429D01*
X93335129Y-155476430D01*
X93335127Y-155476432D01*
X93316389Y-155502223D01*
X93225445Y-155627395D01*
X93140730Y-155793659D01*
X93140728Y-155793662D01*
X93087307Y-155958077D01*
X93047869Y-156015753D01*
X92983511Y-156042951D01*
X92914664Y-156031036D01*
X92863189Y-155983792D01*
X92851445Y-155958077D01*
X92798023Y-155793662D01*
X92798021Y-155793659D01*
X92790566Y-155779026D01*
X92713307Y-155627396D01*
X92603625Y-155476432D01*
X92471678Y-155344485D01*
X92320714Y-155234803D01*
X92154450Y-155150088D01*
X92154447Y-155150086D01*
X91976984Y-155092425D01*
X91838753Y-155070531D01*
X91792677Y-155063234D01*
X91606075Y-155063234D01*
X91544640Y-155072964D01*
X91421769Y-155092425D01*
X91421766Y-155092425D01*
X91244304Y-155150086D01*
X91244301Y-155150088D01*
X91078037Y-155234803D01*
X90991907Y-155297380D01*
X90927074Y-155344485D01*
X90927072Y-155344487D01*
X90927071Y-155344487D01*
X90795129Y-155476429D01*
X90795129Y-155476430D01*
X90795127Y-155476432D01*
X90776389Y-155502223D01*
X90685445Y-155627395D01*
X90600730Y-155793659D01*
X90600728Y-155793662D01*
X90543067Y-155971124D01*
X90543067Y-155971127D01*
X90533231Y-156033231D01*
X90513876Y-156155433D01*
X90513876Y-156342035D01*
X90528471Y-156434187D01*
X90543067Y-156526340D01*
X90543067Y-156526343D01*
X90600728Y-156703805D01*
X90600730Y-156703808D01*
X90685445Y-156870072D01*
X90795127Y-157021036D01*
X90927074Y-157152983D01*
X91078038Y-157262665D01*
X91244302Y-157347380D01*
X91244304Y-157347381D01*
X91408719Y-157400803D01*
X91466395Y-157440241D01*
X91493593Y-157504599D01*
X91481678Y-157573446D01*
X91434434Y-157624921D01*
X91408719Y-157636665D01*
X91244304Y-157690086D01*
X91244301Y-157690088D01*
X91078037Y-157774803D01*
X91016832Y-157819272D01*
X90927074Y-157884485D01*
X90927072Y-157884487D01*
X90927071Y-157884487D01*
X90795129Y-158016429D01*
X90795129Y-158016430D01*
X90795127Y-158016432D01*
X90766479Y-158055863D01*
X90685445Y-158167395D01*
X90600730Y-158333659D01*
X90600728Y-158333662D01*
X90547307Y-158498077D01*
X90507869Y-158555753D01*
X90443511Y-158582951D01*
X90374664Y-158571036D01*
X90323189Y-158523792D01*
X90311445Y-158498077D01*
X90258023Y-158333662D01*
X90258021Y-158333659D01*
X90173306Y-158167395D01*
X90063625Y-158016432D01*
X89931678Y-157884485D01*
X89780714Y-157774803D01*
X89614450Y-157690088D01*
X89614447Y-157690086D01*
X89436984Y-157632425D01*
X89293135Y-157609642D01*
X89252677Y-157603234D01*
X89066075Y-157603234D01*
X89004640Y-157612964D01*
X88881769Y-157632425D01*
X88881766Y-157632425D01*
X88704304Y-157690086D01*
X88704301Y-157690088D01*
X88538037Y-157774803D01*
X88476832Y-157819272D01*
X88387074Y-157884485D01*
X88387072Y-157884487D01*
X88387071Y-157884487D01*
X88255129Y-158016429D01*
X88255129Y-158016430D01*
X88255127Y-158016432D01*
X88226479Y-158055863D01*
X88145445Y-158167395D01*
X88060730Y-158333659D01*
X88060728Y-158333662D01*
X88007307Y-158498077D01*
X87967869Y-158555753D01*
X87903511Y-158582951D01*
X87834664Y-158571036D01*
X87783189Y-158523792D01*
X87771445Y-158498077D01*
X87718023Y-158333662D01*
X87718021Y-158333659D01*
X87633306Y-158167395D01*
X87523625Y-158016432D01*
X87391678Y-157884485D01*
X87240714Y-157774803D01*
X87074450Y-157690088D01*
X87074447Y-157690086D01*
X86910032Y-157636665D01*
X86852356Y-157597228D01*
X86825158Y-157532869D01*
X86837073Y-157464023D01*
X86884317Y-157412547D01*
X86910032Y-157400803D01*
X87074447Y-157347381D01*
X87074447Y-157347380D01*
X87074450Y-157347380D01*
X87240714Y-157262665D01*
X87391678Y-157152983D01*
X87523625Y-157021036D01*
X87633307Y-156870072D01*
X87718022Y-156703808D01*
X87718023Y-156703805D01*
X87775684Y-156526343D01*
X87775684Y-156526342D01*
X87775685Y-156526339D01*
X87804876Y-156342035D01*
X87804876Y-156155433D01*
X87775685Y-155971129D01*
X87775684Y-155971125D01*
X87775684Y-155971124D01*
X87718023Y-155793662D01*
X87718021Y-155793659D01*
X87710566Y-155779026D01*
X87633307Y-155627396D01*
X87523625Y-155476432D01*
X87391678Y-155344485D01*
X87240714Y-155234803D01*
X87074450Y-155150088D01*
X87074447Y-155150086D01*
X86896984Y-155092425D01*
X86758753Y-155070531D01*
X86712677Y-155063234D01*
X86526075Y-155063234D01*
X86464640Y-155072964D01*
X86341769Y-155092425D01*
X86341766Y-155092425D01*
X86164304Y-155150086D01*
X86164301Y-155150088D01*
X85998037Y-155234803D01*
X85911907Y-155297380D01*
X85847074Y-155344485D01*
X85847072Y-155344487D01*
X85847071Y-155344487D01*
X85715129Y-155476429D01*
X85715129Y-155476430D01*
X85715127Y-155476432D01*
X85696389Y-155502223D01*
X85605445Y-155627395D01*
X85520730Y-155793659D01*
X85520728Y-155793662D01*
X85467307Y-155958077D01*
X85427869Y-156015753D01*
X85363511Y-156042951D01*
X85294664Y-156031036D01*
X85243189Y-155983792D01*
X85231445Y-155958077D01*
X85178023Y-155793662D01*
X85178021Y-155793659D01*
X85170566Y-155779026D01*
X85093307Y-155627396D01*
X84983625Y-155476432D01*
X84851678Y-155344485D01*
X84700714Y-155234803D01*
X84534450Y-155150088D01*
X84534447Y-155150086D01*
X84356984Y-155092425D01*
X84218753Y-155070531D01*
X84172677Y-155063234D01*
X84023564Y-155063234D01*
X83956525Y-155043549D01*
X83910770Y-154990745D01*
X83909003Y-154986686D01*
X83868773Y-154889561D01*
X83868766Y-154889548D01*
X83781165Y-154758445D01*
X83781162Y-154758441D01*
X83665358Y-154642637D01*
X83666830Y-154641164D01*
X83632827Y-154591259D01*
X83630948Y-154521414D01*
X83636257Y-154505693D01*
X83679113Y-154402231D01*
X83709876Y-154247576D01*
X83709876Y-154089892D01*
X83709876Y-154089889D01*
X83709875Y-154089887D01*
X83679114Y-153935244D01*
X83679113Y-153935237D01*
X83679111Y-153935232D01*
X83618773Y-153789561D01*
X83618766Y-153789548D01*
X83531165Y-153658445D01*
X83531162Y-153658441D01*
X83419668Y-153546947D01*
X83419664Y-153546944D01*
X83288561Y-153459343D01*
X83288548Y-153459336D01*
X83142877Y-153398998D01*
X83142865Y-153398995D01*
X82988221Y-153368234D01*
X82988218Y-153368234D01*
X82830534Y-153368234D01*
X82830531Y-153368234D01*
X82675886Y-153398995D01*
X82675874Y-153398998D01*
X82530203Y-153459336D01*
X82530190Y-153459343D01*
X82399087Y-153546944D01*
X82399083Y-153546947D01*
X82287589Y-153658441D01*
X82287586Y-153658445D01*
X82199985Y-153789548D01*
X82199978Y-153789561D01*
X82139640Y-153935232D01*
X82139637Y-153935244D01*
X82108876Y-154089887D01*
X76232995Y-154089887D01*
X76232995Y-151224957D01*
X76237303Y-151193848D01*
X76232995Y-151159341D01*
X76232995Y-151124573D01*
X76228585Y-151108116D01*
X76225023Y-151088833D01*
X76218709Y-151028038D01*
X76218285Y-151022925D01*
X76212177Y-150924695D01*
X76211968Y-150919627D01*
X76209903Y-150819829D01*
X76209876Y-150817262D01*
X76209877Y-150752786D01*
X76209876Y-150752782D01*
X76209876Y-142739887D01*
X82108876Y-142739887D01*
X82108876Y-142897580D01*
X82139637Y-143052223D01*
X82139640Y-143052235D01*
X82199978Y-143197906D01*
X82199985Y-143197919D01*
X82287586Y-143329022D01*
X82287589Y-143329026D01*
X82289616Y-143331053D01*
X82290338Y-143332376D01*
X82291452Y-143333733D01*
X82291194Y-143333944D01*
X82323101Y-143392376D01*
X82318117Y-143462068D01*
X82291377Y-143503673D01*
X82291452Y-143503735D01*
X82290928Y-143504373D01*
X82289616Y-143506415D01*
X82287589Y-143508441D01*
X82287586Y-143508445D01*
X82199985Y-143639548D01*
X82199978Y-143639561D01*
X82139640Y-143785232D01*
X82139637Y-143785244D01*
X82108876Y-143939887D01*
X82108876Y-144097580D01*
X82139637Y-144252223D01*
X82139640Y-144252235D01*
X82199978Y-144397906D01*
X82199985Y-144397919D01*
X82287586Y-144529022D01*
X82287589Y-144529026D01*
X82339616Y-144581053D01*
X82373101Y-144642376D01*
X82368117Y-144712068D01*
X82339616Y-144756415D01*
X82287589Y-144808441D01*
X82287586Y-144808445D01*
X82199985Y-144939548D01*
X82199978Y-144939561D01*
X82139640Y-145085232D01*
X82139637Y-145085244D01*
X82108876Y-145239887D01*
X82108876Y-145397580D01*
X82139637Y-145552223D01*
X82139640Y-145552235D01*
X82199978Y-145697906D01*
X82199985Y-145697919D01*
X82287586Y-145829022D01*
X82287589Y-145829026D01*
X82289616Y-145831053D01*
X82290338Y-145832376D01*
X82291452Y-145833733D01*
X82291194Y-145833944D01*
X82323101Y-145892376D01*
X82318117Y-145962068D01*
X82291377Y-146003673D01*
X82291452Y-146003735D01*
X82290928Y-146004373D01*
X82289616Y-146006415D01*
X82287589Y-146008441D01*
X82287586Y-146008445D01*
X82199985Y-146139548D01*
X82199978Y-146139561D01*
X82139640Y-146285232D01*
X82139637Y-146285244D01*
X82108876Y-146439887D01*
X82108876Y-146597580D01*
X82139637Y-146752223D01*
X82139640Y-146752235D01*
X82199978Y-146897906D01*
X82199985Y-146897919D01*
X82287586Y-147029022D01*
X82287589Y-147029026D01*
X82289616Y-147031053D01*
X82290338Y-147032376D01*
X82291452Y-147033733D01*
X82291194Y-147033944D01*
X82323101Y-147092376D01*
X82318117Y-147162068D01*
X82291377Y-147203673D01*
X82291452Y-147203735D01*
X82290928Y-147204373D01*
X82289616Y-147206415D01*
X82287589Y-147208441D01*
X82287586Y-147208445D01*
X82199985Y-147339548D01*
X82199978Y-147339561D01*
X82139640Y-147485232D01*
X82139637Y-147485244D01*
X82108876Y-147639887D01*
X82108876Y-147797580D01*
X82139637Y-147952223D01*
X82139640Y-147952235D01*
X82199978Y-148097906D01*
X82199985Y-148097919D01*
X82287586Y-148229022D01*
X82287589Y-148229026D01*
X82339616Y-148281053D01*
X82373101Y-148342376D01*
X82368117Y-148412068D01*
X82339616Y-148456415D01*
X82287589Y-148508441D01*
X82287586Y-148508445D01*
X82199985Y-148639548D01*
X82199978Y-148639561D01*
X82139640Y-148785232D01*
X82139637Y-148785244D01*
X82108876Y-148939887D01*
X82108876Y-149097580D01*
X82139637Y-149252223D01*
X82139640Y-149252235D01*
X82199978Y-149397906D01*
X82199985Y-149397919D01*
X82287586Y-149529022D01*
X82287589Y-149529026D01*
X82289616Y-149531053D01*
X82290338Y-149532376D01*
X82291452Y-149533733D01*
X82291194Y-149533944D01*
X82323101Y-149592376D01*
X82318117Y-149662068D01*
X82291377Y-149703673D01*
X82291452Y-149703735D01*
X82290928Y-149704373D01*
X82289616Y-149706415D01*
X82287589Y-149708441D01*
X82287586Y-149708445D01*
X82199985Y-149839548D01*
X82199978Y-149839561D01*
X82139640Y-149985232D01*
X82139637Y-149985244D01*
X82108876Y-150139887D01*
X82108876Y-150297580D01*
X82139637Y-150452223D01*
X82139640Y-150452235D01*
X82199978Y-150597906D01*
X82199985Y-150597919D01*
X82287586Y-150729022D01*
X82287589Y-150729026D01*
X82399083Y-150840520D01*
X82399087Y-150840523D01*
X82530190Y-150928124D01*
X82530203Y-150928131D01*
X82675874Y-150988469D01*
X82675879Y-150988471D01*
X82830529Y-151019233D01*
X82830532Y-151019234D01*
X82830534Y-151019234D01*
X82988220Y-151019234D01*
X82988221Y-151019233D01*
X83142873Y-150988471D01*
X83288555Y-150928128D01*
X83419665Y-150840523D01*
X83531165Y-150729023D01*
X83618770Y-150597913D01*
X83679113Y-150452231D01*
X83709876Y-150297576D01*
X83709876Y-150139892D01*
X83709876Y-150139889D01*
X83709875Y-150139887D01*
X83679114Y-149985244D01*
X83679113Y-149985237D01*
X83679111Y-149985232D01*
X83618773Y-149839561D01*
X83618766Y-149839548D01*
X83531165Y-149708445D01*
X83529142Y-149706422D01*
X83528419Y-149705099D01*
X83527300Y-149703735D01*
X83527558Y-149703522D01*
X83495652Y-149645102D01*
X83500631Y-149575410D01*
X83527375Y-149533794D01*
X83527300Y-149533733D01*
X83527830Y-149533085D01*
X83529142Y-149531046D01*
X83531165Y-149529023D01*
X83618770Y-149397913D01*
X83679113Y-149252231D01*
X83709876Y-149097576D01*
X83709876Y-148939892D01*
X83709876Y-148939889D01*
X83709875Y-148939887D01*
X83679114Y-148785244D01*
X83679113Y-148785237D01*
X83679111Y-148785232D01*
X83618773Y-148639561D01*
X83618766Y-148639548D01*
X83531165Y-148508445D01*
X83531162Y-148508441D01*
X83479136Y-148456415D01*
X83445651Y-148395092D01*
X83450635Y-148325400D01*
X83479136Y-148281053D01*
X83531162Y-148229026D01*
X83531165Y-148229023D01*
X83618770Y-148097913D01*
X83679113Y-147952231D01*
X83709876Y-147797576D01*
X83709876Y-147639892D01*
X83709876Y-147639889D01*
X83709875Y-147639887D01*
X83679114Y-147485244D01*
X83679113Y-147485237D01*
X83679111Y-147485232D01*
X83618773Y-147339561D01*
X83618766Y-147339548D01*
X83531165Y-147208445D01*
X83529142Y-147206422D01*
X83528419Y-147205099D01*
X83527300Y-147203735D01*
X83527558Y-147203522D01*
X83495652Y-147145102D01*
X83500631Y-147075410D01*
X83527375Y-147033794D01*
X83527300Y-147033733D01*
X83527830Y-147033085D01*
X83529142Y-147031046D01*
X83531165Y-147029023D01*
X83618770Y-146897913D01*
X83679113Y-146752231D01*
X83709876Y-146597576D01*
X83709876Y-146439892D01*
X83709876Y-146439889D01*
X83709875Y-146439887D01*
X83679114Y-146285244D01*
X83679113Y-146285237D01*
X83679111Y-146285232D01*
X83618773Y-146139561D01*
X83618766Y-146139548D01*
X83531165Y-146008445D01*
X83529142Y-146006422D01*
X83528419Y-146005099D01*
X83527300Y-146003735D01*
X83527558Y-146003522D01*
X83495652Y-145945102D01*
X83500631Y-145875410D01*
X83527375Y-145833794D01*
X83527300Y-145833733D01*
X83527830Y-145833085D01*
X83529142Y-145831046D01*
X83531165Y-145829023D01*
X83618770Y-145697913D01*
X83679113Y-145552231D01*
X83709876Y-145397576D01*
X83709876Y-145239892D01*
X83709876Y-145239889D01*
X83709875Y-145239887D01*
X83679114Y-145085244D01*
X83679113Y-145085237D01*
X83679111Y-145085232D01*
X83618773Y-144939561D01*
X83618766Y-144939548D01*
X83531165Y-144808445D01*
X83531162Y-144808441D01*
X83479136Y-144756415D01*
X83445651Y-144695092D01*
X83450635Y-144625400D01*
X83479136Y-144581053D01*
X83531162Y-144529026D01*
X83531165Y-144529023D01*
X83618770Y-144397913D01*
X83679113Y-144252231D01*
X83709876Y-144097576D01*
X83709876Y-143939892D01*
X83709876Y-143939889D01*
X83709875Y-143939887D01*
X83679114Y-143785244D01*
X83679113Y-143785237D01*
X83679111Y-143785232D01*
X83618773Y-143639561D01*
X83618766Y-143639548D01*
X83531165Y-143508445D01*
X83529142Y-143506422D01*
X83528419Y-143505099D01*
X83527300Y-143503735D01*
X83527558Y-143503522D01*
X83495652Y-143445102D01*
X83500631Y-143375410D01*
X83527375Y-143333794D01*
X83527300Y-143333733D01*
X83527830Y-143333085D01*
X83529142Y-143331046D01*
X83531165Y-143329023D01*
X83618770Y-143197913D01*
X83679113Y-143052231D01*
X83709876Y-142897576D01*
X83709876Y-142739892D01*
X83709876Y-142739889D01*
X83709875Y-142739887D01*
X83679114Y-142585244D01*
X83679113Y-142585237D01*
X83679111Y-142585232D01*
X83618773Y-142439561D01*
X83618766Y-142439548D01*
X83531165Y-142308445D01*
X83531162Y-142308441D01*
X83419668Y-142196947D01*
X83419664Y-142196944D01*
X83288561Y-142109343D01*
X83288548Y-142109336D01*
X83142877Y-142048998D01*
X83142865Y-142048995D01*
X82988221Y-142018234D01*
X82988218Y-142018234D01*
X82830534Y-142018234D01*
X82830531Y-142018234D01*
X82675886Y-142048995D01*
X82675874Y-142048998D01*
X82530203Y-142109336D01*
X82530190Y-142109343D01*
X82399087Y-142196944D01*
X82399083Y-142196947D01*
X82287589Y-142308441D01*
X82287586Y-142308445D01*
X82199985Y-142439548D01*
X82199978Y-142439561D01*
X82139640Y-142585232D01*
X82139637Y-142585244D01*
X82108876Y-142739887D01*
X76209876Y-142739887D01*
X76209876Y-135539887D01*
X82108876Y-135539887D01*
X82108876Y-135697580D01*
X82139637Y-135852223D01*
X82139640Y-135852235D01*
X82199978Y-135997906D01*
X82199985Y-135997919D01*
X82234680Y-136049843D01*
X82255558Y-136116520D01*
X82237074Y-136183901D01*
X82234680Y-136187625D01*
X82199985Y-136239548D01*
X82199978Y-136239561D01*
X82139640Y-136385232D01*
X82139637Y-136385244D01*
X82108876Y-136539887D01*
X82108876Y-136697580D01*
X82139637Y-136852223D01*
X82139640Y-136852235D01*
X82199978Y-136997906D01*
X82199985Y-136997919D01*
X82268089Y-137099843D01*
X82288967Y-137166521D01*
X82270483Y-137233901D01*
X82268089Y-137237625D01*
X82199985Y-137339548D01*
X82199978Y-137339561D01*
X82139640Y-137485232D01*
X82139637Y-137485244D01*
X82108876Y-137639887D01*
X82108876Y-137797580D01*
X82139637Y-137952223D01*
X82139640Y-137952235D01*
X82199978Y-138097906D01*
X82199985Y-138097919D01*
X82287586Y-138229022D01*
X82287589Y-138229026D01*
X82399083Y-138340520D01*
X82399087Y-138340523D01*
X82530190Y-138428124D01*
X82530203Y-138428131D01*
X82675874Y-138488469D01*
X82675879Y-138488471D01*
X82830529Y-138519233D01*
X82830532Y-138519234D01*
X82830534Y-138519234D01*
X82988220Y-138519234D01*
X82988221Y-138519233D01*
X83142873Y-138488471D01*
X83288555Y-138428128D01*
X83419665Y-138340523D01*
X83531165Y-138229023D01*
X83618770Y-138097913D01*
X83679113Y-137952231D01*
X83709876Y-137797576D01*
X83709876Y-137639892D01*
X83709876Y-137639889D01*
X83709875Y-137639887D01*
X83679114Y-137485244D01*
X83679113Y-137485237D01*
X83679111Y-137485232D01*
X83618773Y-137339561D01*
X83618769Y-137339554D01*
X83618765Y-137339548D01*
X83550660Y-137237622D01*
X83529784Y-137170948D01*
X83548268Y-137103568D01*
X83550633Y-137099886D01*
X83618770Y-136997913D01*
X83679113Y-136852231D01*
X83709876Y-136697576D01*
X83709876Y-136539892D01*
X83709876Y-136539889D01*
X83709875Y-136539887D01*
X83679114Y-136385244D01*
X83679113Y-136385237D01*
X83679111Y-136385232D01*
X83618772Y-136239559D01*
X83618770Y-136239556D01*
X83618770Y-136239555D01*
X83584070Y-136187623D01*
X83563192Y-136120949D01*
X83581676Y-136053569D01*
X83584052Y-136049870D01*
X83618770Y-135997913D01*
X83679113Y-135852231D01*
X83709876Y-135697576D01*
X83709876Y-135539892D01*
X83709876Y-135539889D01*
X83709875Y-135539887D01*
X83679114Y-135385244D01*
X83679113Y-135385237D01*
X83679111Y-135385232D01*
X83618773Y-135239561D01*
X83618766Y-135239548D01*
X83531165Y-135108445D01*
X83531162Y-135108441D01*
X83419668Y-134996947D01*
X83419664Y-134996944D01*
X83288561Y-134909343D01*
X83288548Y-134909336D01*
X83142877Y-134848998D01*
X83142865Y-134848995D01*
X82988221Y-134818234D01*
X82988218Y-134818234D01*
X82830534Y-134818234D01*
X82830531Y-134818234D01*
X82675886Y-134848995D01*
X82675874Y-134848998D01*
X82530203Y-134909336D01*
X82530190Y-134909343D01*
X82399087Y-134996944D01*
X82399083Y-134996947D01*
X82287589Y-135108441D01*
X82287586Y-135108445D01*
X82199985Y-135239548D01*
X82199978Y-135239561D01*
X82139640Y-135385232D01*
X82139637Y-135385244D01*
X82108876Y-135539887D01*
X76209876Y-135539887D01*
X76209876Y-130339887D01*
X82108876Y-130339887D01*
X82108876Y-130497580D01*
X82139637Y-130652223D01*
X82139640Y-130652235D01*
X82199978Y-130797906D01*
X82199985Y-130797919D01*
X82287586Y-130929022D01*
X82287589Y-130929026D01*
X82289616Y-130931053D01*
X82290338Y-130932376D01*
X82291452Y-130933733D01*
X82291194Y-130933944D01*
X82323101Y-130992376D01*
X82318117Y-131062068D01*
X82291377Y-131103673D01*
X82291452Y-131103735D01*
X82290928Y-131104373D01*
X82289616Y-131106415D01*
X82287589Y-131108441D01*
X82287586Y-131108445D01*
X82199985Y-131239548D01*
X82199978Y-131239561D01*
X82139640Y-131385232D01*
X82139637Y-131385244D01*
X82108876Y-131539887D01*
X82108876Y-131697580D01*
X82139637Y-131852223D01*
X82139640Y-131852235D01*
X82199978Y-131997906D01*
X82199985Y-131997919D01*
X82287586Y-132129022D01*
X82287589Y-132129026D01*
X82399083Y-132240520D01*
X82399087Y-132240523D01*
X82530190Y-132328124D01*
X82530203Y-132328131D01*
X82675874Y-132388469D01*
X82675879Y-132388471D01*
X82830529Y-132419233D01*
X82830532Y-132419234D01*
X82830534Y-132419234D01*
X82988220Y-132419234D01*
X82988221Y-132419233D01*
X83142873Y-132388471D01*
X83288555Y-132328128D01*
X83419665Y-132240523D01*
X83531165Y-132129023D01*
X83618770Y-131997913D01*
X83621688Y-131990869D01*
X91478876Y-131990869D01*
X91478876Y-134366604D01*
X91478877Y-134366610D01*
X91485284Y-134426217D01*
X91535578Y-134561062D01*
X91535582Y-134561069D01*
X91621828Y-134676278D01*
X91621831Y-134676281D01*
X91737040Y-134762527D01*
X91737047Y-134762531D01*
X91871893Y-134812825D01*
X91871892Y-134812825D01*
X91878820Y-134813569D01*
X91931503Y-134819234D01*
X94307248Y-134819233D01*
X94366859Y-134812825D01*
X94501707Y-134762530D01*
X94616922Y-134676280D01*
X94616924Y-134676276D01*
X94621695Y-134671507D01*
X94683018Y-134638022D01*
X94752710Y-134643006D01*
X94797057Y-134671507D01*
X94801831Y-134676281D01*
X94917040Y-134762527D01*
X94917047Y-134762531D01*
X95051893Y-134812825D01*
X95051892Y-134812825D01*
X95058820Y-134813569D01*
X95111503Y-134819234D01*
X97487248Y-134819233D01*
X97546859Y-134812825D01*
X97681707Y-134762530D01*
X97796922Y-134676280D01*
X97883172Y-134561065D01*
X97933467Y-134426217D01*
X97939876Y-134366607D01*
X97939875Y-131990862D01*
X97933467Y-131931251D01*
X97903994Y-131852231D01*
X97883173Y-131796405D01*
X97883169Y-131796398D01*
X97796923Y-131681189D01*
X97796920Y-131681186D01*
X97681711Y-131594940D01*
X97681704Y-131594936D01*
X97546858Y-131544642D01*
X97546859Y-131544642D01*
X97487259Y-131538235D01*
X97487257Y-131538234D01*
X97487249Y-131538234D01*
X97487240Y-131538234D01*
X95111505Y-131538234D01*
X95111499Y-131538235D01*
X95051892Y-131544642D01*
X94917047Y-131594936D01*
X94917040Y-131594940D01*
X94801831Y-131681186D01*
X94797057Y-131685961D01*
X94735734Y-131719446D01*
X94666042Y-131714462D01*
X94621695Y-131685961D01*
X94616920Y-131681186D01*
X94501711Y-131594940D01*
X94501704Y-131594936D01*
X94366858Y-131544642D01*
X94366859Y-131544642D01*
X94307259Y-131538235D01*
X94307257Y-131538234D01*
X94307249Y-131538234D01*
X94307241Y-131538234D01*
X94023101Y-131538234D01*
X93956062Y-131518549D01*
X93910307Y-131465745D01*
X93900363Y-131396587D01*
X93901484Y-131390043D01*
X93919875Y-131297580D01*
X93919876Y-131297578D01*
X93919876Y-131139889D01*
X93919875Y-131139887D01*
X93912684Y-131103735D01*
X93889113Y-130985237D01*
X93867511Y-130933085D01*
X93828773Y-130839561D01*
X93828769Y-130839554D01*
X93828765Y-130839548D01*
X93760660Y-130737622D01*
X93739784Y-130670948D01*
X93758268Y-130603568D01*
X93760633Y-130599886D01*
X93828770Y-130497913D01*
X93889113Y-130352231D01*
X93919876Y-130197576D01*
X93919876Y-130039892D01*
X93919876Y-130039889D01*
X93919875Y-130039887D01*
X93893729Y-129908445D01*
X93889113Y-129885237D01*
X93889111Y-129885232D01*
X93828773Y-129739561D01*
X93828766Y-129739548D01*
X93741165Y-129608445D01*
X93741162Y-129608441D01*
X93629668Y-129496947D01*
X93629664Y-129496944D01*
X93498561Y-129409343D01*
X93498548Y-129409336D01*
X93352877Y-129348998D01*
X93352865Y-129348995D01*
X93198221Y-129318234D01*
X93198218Y-129318234D01*
X93040534Y-129318234D01*
X93040531Y-129318234D01*
X92885886Y-129348995D01*
X92885874Y-129348998D01*
X92740203Y-129409336D01*
X92740190Y-129409343D01*
X92609087Y-129496944D01*
X92609083Y-129496947D01*
X92497589Y-129608441D01*
X92497586Y-129608445D01*
X92409985Y-129739548D01*
X92409978Y-129739561D01*
X92349640Y-129885232D01*
X92349637Y-129885244D01*
X92318876Y-130039887D01*
X92318876Y-130197580D01*
X92349637Y-130352223D01*
X92349640Y-130352235D01*
X92409978Y-130497906D01*
X92409985Y-130497919D01*
X92478089Y-130599843D01*
X92498967Y-130666521D01*
X92480483Y-130733901D01*
X92478089Y-130737625D01*
X92409985Y-130839548D01*
X92409978Y-130839561D01*
X92349640Y-130985232D01*
X92349637Y-130985244D01*
X92318876Y-131139887D01*
X92318876Y-131297580D01*
X92337268Y-131390043D01*
X92331041Y-131459635D01*
X92288178Y-131514812D01*
X92222288Y-131538056D01*
X92215651Y-131538234D01*
X91931506Y-131538234D01*
X91931499Y-131538235D01*
X91871892Y-131544642D01*
X91737047Y-131594936D01*
X91737040Y-131594940D01*
X91621831Y-131681186D01*
X91621828Y-131681189D01*
X91535582Y-131796398D01*
X91535578Y-131796405D01*
X91485284Y-131931251D01*
X91478877Y-131990850D01*
X91478877Y-131990857D01*
X91478876Y-131990869D01*
X83621688Y-131990869D01*
X83679113Y-131852231D01*
X83709876Y-131697576D01*
X83709876Y-131539892D01*
X83709876Y-131539889D01*
X83709875Y-131539887D01*
X83692439Y-131452231D01*
X83679113Y-131385237D01*
X83642803Y-131297576D01*
X83618773Y-131239561D01*
X83618766Y-131239548D01*
X83531165Y-131108445D01*
X83529142Y-131106422D01*
X83528419Y-131105099D01*
X83527300Y-131103735D01*
X83527558Y-131103522D01*
X83495652Y-131045102D01*
X83500631Y-130975410D01*
X83527375Y-130933794D01*
X83527300Y-130933733D01*
X83527830Y-130933085D01*
X83529142Y-130931046D01*
X83531165Y-130929023D01*
X83618770Y-130797913D01*
X83679113Y-130652231D01*
X83709876Y-130497576D01*
X83709876Y-130443234D01*
X83729561Y-130376195D01*
X83782365Y-130330440D01*
X83833876Y-130319234D01*
X83888220Y-130319234D01*
X83888221Y-130319233D01*
X84042873Y-130288471D01*
X84188555Y-130228128D01*
X84319665Y-130140523D01*
X84431165Y-130029023D01*
X84518770Y-129897913D01*
X84579113Y-129752231D01*
X84609876Y-129597576D01*
X84609876Y-129493234D01*
X84629561Y-129426195D01*
X84682365Y-129380440D01*
X84733876Y-129369234D01*
X84838220Y-129369234D01*
X84838221Y-129369233D01*
X84992873Y-129338471D01*
X85138555Y-129278128D01*
X85269665Y-129190523D01*
X85381165Y-129079023D01*
X85468770Y-128947913D01*
X85529113Y-128802231D01*
X85559876Y-128647576D01*
X85559876Y-128489892D01*
X85559876Y-128489889D01*
X85559875Y-128489887D01*
X85529114Y-128335244D01*
X85529113Y-128335237D01*
X85529111Y-128335232D01*
X85468773Y-128189561D01*
X85468766Y-128189548D01*
X85381165Y-128058445D01*
X85381162Y-128058441D01*
X85269668Y-127946947D01*
X85269664Y-127946944D01*
X85138561Y-127859343D01*
X85138548Y-127859336D01*
X84992877Y-127798998D01*
X84992865Y-127798995D01*
X84838221Y-127768234D01*
X84838218Y-127768234D01*
X84680534Y-127768234D01*
X84680531Y-127768234D01*
X84525886Y-127798995D01*
X84525874Y-127798998D01*
X84380203Y-127859336D01*
X84380190Y-127859343D01*
X84249087Y-127946944D01*
X84249083Y-127946947D01*
X84137589Y-128058441D01*
X84137586Y-128058445D01*
X84049985Y-128189548D01*
X84049978Y-128189561D01*
X83989640Y-128335232D01*
X83989637Y-128335244D01*
X83958876Y-128489887D01*
X83958876Y-128594234D01*
X83939191Y-128661273D01*
X83886387Y-128707028D01*
X83834876Y-128718234D01*
X83730531Y-128718234D01*
X83575886Y-128748995D01*
X83575874Y-128748998D01*
X83430203Y-128809336D01*
X83430190Y-128809343D01*
X83299087Y-128896944D01*
X83299083Y-128896947D01*
X83187589Y-129008441D01*
X83187586Y-129008445D01*
X83099985Y-129139548D01*
X83099978Y-129139561D01*
X83039640Y-129285232D01*
X83039637Y-129285244D01*
X83008876Y-129439887D01*
X83008876Y-129494234D01*
X82989191Y-129561273D01*
X82936387Y-129607028D01*
X82884876Y-129618234D01*
X82830531Y-129618234D01*
X82675886Y-129648995D01*
X82675874Y-129648998D01*
X82530203Y-129709336D01*
X82530190Y-129709343D01*
X82399087Y-129796944D01*
X82399083Y-129796947D01*
X82287589Y-129908441D01*
X82287586Y-129908445D01*
X82199985Y-130039548D01*
X82199978Y-130039561D01*
X82139640Y-130185232D01*
X82139637Y-130185244D01*
X82108876Y-130339887D01*
X76209876Y-130339887D01*
X76209876Y-125974362D01*
X103943575Y-125974362D01*
X103943575Y-126157103D01*
X103972159Y-126337574D01*
X103972160Y-126337578D01*
X104028627Y-126511364D01*
X104111584Y-126674177D01*
X104218990Y-126822009D01*
X104348199Y-126951218D01*
X104496031Y-127058624D01*
X104658844Y-127141581D01*
X104832630Y-127198048D01*
X104900310Y-127208767D01*
X105013105Y-127226633D01*
X105013110Y-127226633D01*
X105195845Y-127226633D01*
X105296106Y-127210752D01*
X105376320Y-127198048D01*
X105550106Y-127141581D01*
X105712919Y-127058624D01*
X105860751Y-126951218D01*
X105989960Y-126822009D01*
X106004157Y-126802468D01*
X106059483Y-126759802D01*
X106129096Y-126753821D01*
X106190892Y-126786425D01*
X106204792Y-126802466D01*
X106218991Y-126822009D01*
X106348200Y-126951218D01*
X106496032Y-127058624D01*
X106658845Y-127141581D01*
X106832631Y-127198048D01*
X106900311Y-127208767D01*
X107013106Y-127226633D01*
X107013111Y-127226633D01*
X107195846Y-127226633D01*
X107296107Y-127210752D01*
X107376321Y-127198048D01*
X107550107Y-127141581D01*
X107712920Y-127058624D01*
X107860752Y-126951218D01*
X107989961Y-126822009D01*
X108097367Y-126674177D01*
X108180324Y-126511364D01*
X108236791Y-126337578D01*
X108249495Y-126257364D01*
X108265376Y-126157103D01*
X108265376Y-125974362D01*
X123043575Y-125974362D01*
X123043575Y-126157103D01*
X123072159Y-126337574D01*
X123072160Y-126337578D01*
X123128627Y-126511364D01*
X123211584Y-126674177D01*
X123318990Y-126822009D01*
X123448199Y-126951218D01*
X123596031Y-127058624D01*
X123758844Y-127141581D01*
X123932630Y-127198048D01*
X124000310Y-127208767D01*
X124113105Y-127226633D01*
X124113110Y-127226633D01*
X124295845Y-127226633D01*
X124396106Y-127210752D01*
X124476320Y-127198048D01*
X124650106Y-127141581D01*
X124812919Y-127058624D01*
X124960751Y-126951218D01*
X125089960Y-126822009D01*
X125104157Y-126802468D01*
X125159483Y-126759802D01*
X125229096Y-126753821D01*
X125290892Y-126786425D01*
X125304792Y-126802466D01*
X125318991Y-126822009D01*
X125448200Y-126951218D01*
X125596032Y-127058624D01*
X125758845Y-127141581D01*
X125932631Y-127198048D01*
X126000311Y-127208767D01*
X126113106Y-127226633D01*
X126113111Y-127226633D01*
X126295846Y-127226633D01*
X126396107Y-127210752D01*
X126476321Y-127198048D01*
X126650107Y-127141581D01*
X126812920Y-127058624D01*
X126960752Y-126951218D01*
X127089961Y-126822009D01*
X127197367Y-126674177D01*
X127280324Y-126511364D01*
X127336791Y-126337578D01*
X127349495Y-126257364D01*
X127365376Y-126157103D01*
X127365376Y-125974362D01*
X127336791Y-125793891D01*
X127336791Y-125793888D01*
X127280324Y-125620102D01*
X127197367Y-125457289D01*
X127089961Y-125309457D01*
X126960752Y-125180248D01*
X126812920Y-125072842D01*
X126650107Y-124989885D01*
X126476321Y-124933418D01*
X126476319Y-124933417D01*
X126476317Y-124933417D01*
X126295846Y-124904833D01*
X126295841Y-124904833D01*
X126113111Y-124904833D01*
X126113106Y-124904833D01*
X125932634Y-124933417D01*
X125758842Y-124989886D01*
X125596031Y-125072842D01*
X125448197Y-125180250D01*
X125318990Y-125309457D01*
X125304792Y-125329000D01*
X125249461Y-125371665D01*
X125179848Y-125377643D01*
X125118053Y-125345036D01*
X125104159Y-125329000D01*
X125089960Y-125309457D01*
X124960751Y-125180248D01*
X124812919Y-125072842D01*
X124650106Y-124989885D01*
X124476320Y-124933418D01*
X124476318Y-124933417D01*
X124476316Y-124933417D01*
X124295845Y-124904833D01*
X124295840Y-124904833D01*
X124113110Y-124904833D01*
X124113105Y-124904833D01*
X123932633Y-124933417D01*
X123758841Y-124989886D01*
X123596030Y-125072842D01*
X123448196Y-125180250D01*
X123318992Y-125309454D01*
X123211584Y-125457288D01*
X123128628Y-125620099D01*
X123072159Y-125793891D01*
X123043575Y-125974362D01*
X108265376Y-125974362D01*
X108236791Y-125793891D01*
X108236791Y-125793888D01*
X108180324Y-125620102D01*
X108097367Y-125457289D01*
X107989961Y-125309457D01*
X107860752Y-125180248D01*
X107712920Y-125072842D01*
X107550107Y-124989885D01*
X107376321Y-124933418D01*
X107376319Y-124933417D01*
X107376317Y-124933417D01*
X107195846Y-124904833D01*
X107195841Y-124904833D01*
X107013111Y-124904833D01*
X107013106Y-124904833D01*
X106832634Y-124933417D01*
X106658842Y-124989886D01*
X106496031Y-125072842D01*
X106348197Y-125180250D01*
X106218990Y-125309457D01*
X106204792Y-125329000D01*
X106149461Y-125371665D01*
X106079848Y-125377643D01*
X106018053Y-125345036D01*
X106004159Y-125329000D01*
X105989960Y-125309457D01*
X105860751Y-125180248D01*
X105712919Y-125072842D01*
X105550106Y-124989885D01*
X105376320Y-124933418D01*
X105376318Y-124933417D01*
X105376316Y-124933417D01*
X105195845Y-124904833D01*
X105195840Y-124904833D01*
X105013110Y-124904833D01*
X105013105Y-124904833D01*
X104832633Y-124933417D01*
X104658841Y-124989886D01*
X104496030Y-125072842D01*
X104348196Y-125180250D01*
X104218992Y-125309454D01*
X104111584Y-125457288D01*
X104028628Y-125620099D01*
X103972159Y-125793891D01*
X103943575Y-125974362D01*
X76209876Y-125974362D01*
X76209876Y-119322522D01*
X76210102Y-119315034D01*
X76219627Y-119157592D01*
X76227651Y-119024964D01*
X76229451Y-119010135D01*
X76281164Y-118727961D01*
X76284739Y-118713459D01*
X76370084Y-118439586D01*
X76375390Y-118425598D01*
X76493118Y-118164022D01*
X76500063Y-118150789D01*
X76648466Y-117905305D01*
X76656963Y-117892995D01*
X76833871Y-117667192D01*
X76843784Y-117656002D01*
X77046632Y-117453157D01*
X77057824Y-117443243D01*
X77283627Y-117266340D01*
X77295930Y-117257848D01*
X77541415Y-117109450D01*
X77554660Y-117102498D01*
X77816234Y-116984775D01*
X77830222Y-116979470D01*
X78104101Y-116894128D01*
X78118603Y-116890554D01*
X78400758Y-116838849D01*
X78415612Y-116837045D01*
X78706374Y-116819460D01*
X78713857Y-116819234D01*
X78758930Y-116819234D01*
X78825967Y-116838919D01*
G37*
%TD.AperFunction*%
%TD*%
M02*
