%TF.GenerationSoftware,KiCad,Pcbnew,9.0.7*%
%TF.CreationDate,2026-01-30T10:33:09-05:00*%
%TF.ProjectId,ALT6 TELEM CPLT EXT,414c5436-2054-4454-9c45-4d2043504c54,rev?*%
%TF.SameCoordinates,Original*%
%TF.FileFunction,Soldermask,Top*%
%TF.FilePolarity,Negative*%
%FSLAX46Y46*%
G04 Gerber Fmt 4.6, Leading zero omitted, Abs format (unit mm)*
G04 Created by KiCad (PCBNEW 9.0.7) date 2026-01-30 10:33:09*
%MOMM*%
%LPD*%
G01*
G04 APERTURE LIST*
G04 Aperture macros list*
%AMRoundRect*
0 Rectangle with rounded corners*
0 $1 Rounding radius*
0 $2 $3 $4 $5 $6 $7 $8 $9 X,Y pos of 4 corners*
0 Add a 4 corners polygon primitive as box body*
4,1,4,$2,$3,$4,$5,$6,$7,$8,$9,$2,$3,0*
0 Add four circle primitives for the rounded corners*
1,1,$1+$1,$2,$3*
1,1,$1+$1,$4,$5*
1,1,$1+$1,$6,$7*
1,1,$1+$1,$8,$9*
0 Add four rect primitives between the rounded corners*
20,1,$1+$1,$2,$3,$4,$5,0*
20,1,$1+$1,$4,$5,$6,$7,0*
20,1,$1+$1,$6,$7,$8,$9,0*
20,1,$1+$1,$8,$9,$2,$3,0*%
G04 Aperture macros list end*
%ADD10C,1.826200*%
%ADD11C,1.216200*%
%ADD12C,0.010000*%
%ADD13RoundRect,0.102000X0.685000X0.685000X-0.685000X0.685000X-0.685000X-0.685000X0.685000X-0.685000X0*%
%ADD14C,1.574000*%
%ADD15C,5.700000*%
%ADD16R,0.950000X1.400000*%
%ADD17O,1.168400X1.752600*%
%ADD18C,1.320800*%
%ADD19R,0.900000X1.000000*%
G04 APERTURE END LIST*
D10*
%TO.C,J3*%
X80902476Y-128428734D02*
G75*
G02*
X79076276Y-128428734I-913100J0D01*
G01*
X79076276Y-128428734D02*
G75*
G02*
X80902476Y-128428734I913100J0D01*
G01*
X80902476Y-145421734D02*
G75*
G02*
X79076276Y-145421734I-913100J0D01*
G01*
X79076276Y-145421734D02*
G75*
G02*
X80902476Y-145421734I913100J0D01*
G01*
D11*
X93727476Y-140671734D02*
G75*
G02*
X92511276Y-140671734I-608100J0D01*
G01*
X92511276Y-140671734D02*
G75*
G02*
X93727476Y-140671734I608100J0D01*
G01*
X96907476Y-140671734D02*
G75*
G02*
X95691276Y-140671734I-608100J0D01*
G01*
X95691276Y-140671734D02*
G75*
G02*
X96907476Y-140671734I608100J0D01*
G01*
D12*
X94335576Y-134394934D02*
X91903176Y-134394934D01*
X91903176Y-131962534D01*
X94335576Y-131962534D01*
X94335576Y-134394934D01*
G36*
X94335576Y-134394934D02*
G01*
X91903176Y-134394934D01*
X91903176Y-131962534D01*
X94335576Y-131962534D01*
X94335576Y-134394934D01*
G37*
X97515576Y-134394934D02*
X95083176Y-134394934D01*
X95083176Y-131962534D01*
X97515576Y-131962534D01*
X97515576Y-134394934D01*
G36*
X97515576Y-134394934D02*
G01*
X95083176Y-134394934D01*
X95083176Y-131962534D01*
X97515576Y-131962534D01*
X97515576Y-134394934D01*
G37*
%TD*%
D13*
%TO.C,J4*%
X84079376Y-158788734D03*
D14*
X84079376Y-156248734D03*
X86619376Y-158788734D03*
X86619376Y-156248734D03*
X89159376Y-158788734D03*
X89159376Y-156248734D03*
X91699376Y-158788734D03*
X91699376Y-156248734D03*
X94239376Y-158788734D03*
X94239376Y-156248734D03*
X96779376Y-158788734D03*
X96779376Y-156248734D03*
X99319376Y-158788734D03*
X99319376Y-156248734D03*
X101859376Y-158788734D03*
X101859376Y-156248734D03*
X104399376Y-158788734D03*
X104399376Y-156248734D03*
X106939376Y-158788734D03*
X106939376Y-156248734D03*
X109479376Y-158788734D03*
X109479376Y-156248734D03*
X112019376Y-158788734D03*
X112019376Y-156248734D03*
X114559376Y-158788734D03*
X114559376Y-156248734D03*
X117099376Y-158788734D03*
X117099376Y-156248734D03*
X119639376Y-158788734D03*
X119639376Y-156248734D03*
X122179376Y-158788734D03*
X122179376Y-156248734D03*
X124719376Y-158788734D03*
X124719376Y-156248734D03*
X127259376Y-158788734D03*
X127259376Y-156248734D03*
X129799376Y-158788734D03*
X129799376Y-156248734D03*
X132339376Y-158788734D03*
X132339376Y-156248734D03*
%TD*%
D15*
%TO.C,REF\u002A\u002A*%
X137207495Y-157886598D03*
%TD*%
%TO.C,REF\u002A\u002A*%
X79207495Y-157886598D03*
%TD*%
%TO.C,REF\u002A\u002A*%
X138709376Y-119818734D03*
%TD*%
%TO.C,REF\u002A\u002A*%
X80709376Y-119818734D03*
%TD*%
D16*
%TO.C,LED1*%
X82859376Y-152318734D03*
X84759376Y-152318734D03*
%TD*%
D17*
%TO.C,J1*%
X111454477Y-119515733D03*
X102754475Y-119515733D03*
D18*
X109104476Y-126065733D03*
X107104476Y-126065733D03*
X105104475Y-126065733D03*
%TD*%
D17*
%TO.C,J2*%
X130554477Y-119515733D03*
X121854475Y-119515733D03*
D18*
X128204476Y-126065733D03*
X126204476Y-126065733D03*
X124204475Y-126065733D03*
%TD*%
D19*
%TO.C,R5*%
X88109376Y-152318734D03*
X89709376Y-152318734D03*
%TD*%
M02*
