%TF.GenerationSoftware,KiCad,Pcbnew,9.0.7*%
%TF.CreationDate,2026-01-30T10:33:08-05:00*%
%TF.ProjectId,ALT6 TELEM CPLT EXT,414c5436-2054-4454-9c45-4d2043504c54,rev?*%
%TF.SameCoordinates,Original*%
%TF.FileFunction,Copper,L4,Bot*%
%TF.FilePolarity,Positive*%
%FSLAX46Y46*%
G04 Gerber Fmt 4.6, Leading zero omitted, Abs format (unit mm)*
G04 Created by KiCad (PCBNEW 9.0.7) date 2026-01-30 10:33:08*
%MOMM*%
%LPD*%
G01*
G04 APERTURE LIST*
%TA.AperFunction,SMDPad,CuDef*%
%ADD10R,0.980000X0.860000*%
%TD*%
%TA.AperFunction,ComponentPad*%
%ADD11R,1.370000X1.370000*%
%TD*%
%TA.AperFunction,ComponentPad*%
%ADD12C,1.370000*%
%TD*%
%TA.AperFunction,ComponentPad*%
%ADD13C,5.700000*%
%TD*%
%TA.AperFunction,SMDPad,CuDef*%
%ADD14R,2.200000X2.150000*%
%TD*%
%TA.AperFunction,WasherPad*%
%ADD15O,1.168400X1.752600*%
%TD*%
%TA.AperFunction,ComponentPad*%
%ADD16C,1.320800*%
%TD*%
%TA.AperFunction,ComponentPad*%
%ADD17R,2.280000X2.280000*%
%TD*%
%TA.AperFunction,ComponentPad*%
%ADD18C,2.280000*%
%TD*%
%TA.AperFunction,ComponentPad*%
%ADD19C,3.500000*%
%TD*%
%TA.AperFunction,SMDPad,CuDef*%
%ADD20R,0.970000X0.980000*%
%TD*%
%TA.AperFunction,SMDPad,CuDef*%
%ADD21R,2.000000X5.300000*%
%TD*%
%TA.AperFunction,SMDPad,CuDef*%
%ADD22R,0.600000X1.200000*%
%TD*%
%TA.AperFunction,SMDPad,CuDef*%
%ADD23R,2.400000X2.900000*%
%TD*%
%TA.AperFunction,ViaPad*%
%ADD24C,0.600000*%
%TD*%
%TA.AperFunction,Conductor*%
%ADD25C,0.600000*%
%TD*%
%TA.AperFunction,Conductor*%
%ADD26C,1.300000*%
%TD*%
%TA.AperFunction,Conductor*%
%ADD27C,1.000000*%
%TD*%
%TA.AperFunction,Conductor*%
%ADD28C,1.600000*%
%TD*%
G04 APERTURE END LIST*
D10*
%TO.P,R3,1*%
%TO.N,Net-(J4-Pad32)*%
X124009376Y-139918734D03*
%TO.P,R3,2*%
%TO.N,Net-(R3-Pad2)*%
X124009376Y-138388734D03*
%TD*%
%TO.P,R2,1*%
%TO.N,Net-(J4-Pad08)*%
X105009376Y-139533734D03*
%TO.P,R2,2*%
%TO.N,Net-(R1-Pad1)*%
X105009376Y-138003734D03*
%TD*%
D11*
%TO.P,J4,01,01*%
%TO.N,Net-(IC1-VBUS)*%
X84079376Y-158788734D03*
D12*
%TO.P,J4,02,02*%
%TO.N,Net-(C3-+)*%
X84079376Y-156248734D03*
%TO.P,J4,03,03*%
%TO.N,unconnected-(J4-Pad03)*%
X86619376Y-158788734D03*
%TO.P,J4,04,04*%
%TO.N,Net-(C3-+)*%
X86619376Y-156248734D03*
%TO.P,J4,05,05*%
%TO.N,unconnected-(J4-Pad05)*%
X89159376Y-158788734D03*
%TO.P,J4,06,06*%
%TO.N,GND*%
X89159376Y-156248734D03*
%TO.P,J4,07,07*%
%TO.N,unconnected-(J4-Pad07)*%
X91699376Y-158788734D03*
%TO.P,J4,08,08*%
%TO.N,Net-(J4-Pad08)*%
X91699376Y-156248734D03*
%TO.P,J4,09,09*%
%TO.N,GND*%
X94239376Y-158788734D03*
%TO.P,J4,10,10*%
%TO.N,Net-(IC1-I{slash}O2_2)*%
X94239376Y-156248734D03*
%TO.P,J4,11,11*%
%TO.N,unconnected-(J4-Pad11)*%
X96779376Y-158788734D03*
%TO.P,J4,12,12*%
%TO.N,unconnected-(J4-Pad12)*%
X96779376Y-156248734D03*
%TO.P,J4,13,13*%
%TO.N,unconnected-(J4-Pad13)*%
X99319376Y-158788734D03*
%TO.P,J4,14,14*%
%TO.N,GND*%
X99319376Y-156248734D03*
%TO.P,J4,15,15*%
%TO.N,unconnected-(J4-Pad15)*%
X101859376Y-158788734D03*
%TO.P,J4,16,16*%
%TO.N,unconnected-(J4-Pad16)*%
X101859376Y-156248734D03*
%TO.P,J4,17,17*%
%TO.N,Net-(IC2-VBUS)*%
X104399376Y-158788734D03*
%TO.P,J4,18,18*%
%TO.N,unconnected-(J4-Pad18)*%
X104399376Y-156248734D03*
%TO.P,J4,19,19*%
%TO.N,unconnected-(J4-Pad19)*%
X106939376Y-158788734D03*
%TO.P,J4,20,20*%
%TO.N,GND*%
X106939376Y-156248734D03*
%TO.P,J4,21,21*%
%TO.N,unconnected-(J4-Pad21)*%
X109479376Y-158788734D03*
%TO.P,J4,22,22*%
%TO.N,unconnected-(J4-Pad22)*%
X109479376Y-156248734D03*
%TO.P,J4,23,23*%
%TO.N,unconnected-(J4-Pad23)*%
X112019376Y-158788734D03*
%TO.P,J4,24,24*%
%TO.N,unconnected-(J4-Pad24)*%
X112019376Y-156248734D03*
%TO.P,J4,25,25*%
%TO.N,GND*%
X114559376Y-158788734D03*
%TO.P,J4,26,26*%
%TO.N,unconnected-(J4-Pad26)*%
X114559376Y-156248734D03*
%TO.P,J4,27,27*%
%TO.N,unconnected-(J4-Pad27)*%
X117099376Y-158788734D03*
%TO.P,J4,28,28*%
%TO.N,unconnected-(J4-Pad28)*%
X117099376Y-156248734D03*
%TO.P,J4,29,29*%
%TO.N,unconnected-(J4-Pad29)*%
X119639376Y-158788734D03*
%TO.P,J4,30,30*%
%TO.N,GND*%
X119639376Y-156248734D03*
%TO.P,J4,31,31*%
%TO.N,unconnected-(J4-Pad31)*%
X122179376Y-158788734D03*
%TO.P,J4,32,32*%
%TO.N,Net-(J4-Pad32)*%
X122179376Y-156248734D03*
%TO.P,J4,33,33*%
%TO.N,Net-(IC2-I{slash}O2_2)*%
X124719376Y-158788734D03*
%TO.P,J4,34,34*%
%TO.N,GND*%
X124719376Y-156248734D03*
%TO.P,J4,35,35*%
%TO.N,unconnected-(J4-Pad35)*%
X127259376Y-158788734D03*
%TO.P,J4,36,36*%
%TO.N,unconnected-(J4-Pad36)*%
X127259376Y-156248734D03*
%TO.P,J4,37,37*%
%TO.N,unconnected-(J4-Pad37)*%
X129799376Y-158788734D03*
%TO.P,J4,38,38*%
%TO.N,unconnected-(J4-Pad38)*%
X129799376Y-156248734D03*
%TO.P,J4,39,39*%
%TO.N,GND*%
X132339376Y-158788734D03*
%TO.P,J4,40,40*%
%TO.N,unconnected-(J4-Pad40)*%
X132339376Y-156248734D03*
%TD*%
D13*
%TO.P,REF\u002A\u002A,1*%
%TO.N,N/C*%
X137207495Y-157886598D03*
%TD*%
%TO.P,REF\u002A\u002A,1*%
%TO.N,N/C*%
X79207495Y-157886598D03*
%TD*%
%TO.P,REF\u002A\u002A,1*%
%TO.N,N/C*%
X138709376Y-119818734D03*
%TD*%
%TO.P,REF\u002A\u002A,1*%
%TO.N,N/C*%
X80709376Y-119818734D03*
%TD*%
D14*
%TO.P,D1,1,K*%
%TO.N,GND*%
X87309376Y-133818734D03*
%TO.P,D1,2,A*%
%TO.N,Net-(C3-+)*%
X82909376Y-133818734D03*
%TD*%
D15*
%TO.P,J1,*%
%TO.N,*%
X111454477Y-119515733D03*
X102754475Y-119515733D03*
D16*
%TO.P,J1,1*%
%TO.N,GND*%
X109104476Y-126065733D03*
%TO.P,J1,2*%
%TO.N,Net-(IC1-I{slash}O2_1)*%
X107104476Y-126065733D03*
%TO.P,J1,3*%
%TO.N,Net-(IC1-I{slash}O1_1)*%
X105104475Y-126065733D03*
%TD*%
D15*
%TO.P,J2,*%
%TO.N,*%
X130554477Y-119515733D03*
X121854475Y-119515733D03*
D16*
%TO.P,J2,1*%
%TO.N,GND*%
X128204476Y-126065733D03*
%TO.P,J2,2*%
%TO.N,Net-(IC2-I{slash}O2_1)*%
X126204476Y-126065733D03*
%TO.P,J2,3*%
%TO.N,Net-(IC2-I{slash}O1_1)*%
X124204475Y-126065733D03*
%TD*%
D17*
%TO.P,J3,1_1*%
%TO.N,Net-(F1-Pad2)*%
X93119376Y-133178734D03*
%TO.P,J3,1_2*%
X96299376Y-133178734D03*
D18*
%TO.P,J3,2_1*%
%TO.N,GND*%
X93119376Y-140671734D03*
%TO.P,J3,2_2*%
X96299376Y-140671734D03*
D19*
%TO.P,J3,S1,SHIELD1*%
X79989376Y-128428734D03*
%TO.P,J3,S2,SHIELD2*%
X79989376Y-145421734D03*
%TD*%
D10*
%TO.P,R1,1*%
%TO.N,Net-(R1-Pad1)*%
X105009376Y-136283734D03*
%TO.P,R1,2*%
%TO.N,Net-(IC1-I{slash}O1_2)*%
X105009376Y-134753734D03*
%TD*%
D20*
%TO.P,C2,1*%
%TO.N,GND*%
X128009376Y-129874734D03*
%TO.P,C2,2*%
%TO.N,Net-(IC2-VBUS)*%
X128009376Y-131362734D03*
%TD*%
D21*
%TO.P,F1,1,1*%
%TO.N,Net-(C3-+)*%
X86509376Y-126818734D03*
%TO.P,F1,2,2*%
%TO.N,Net-(F1-Pad2)*%
X93109376Y-126818734D03*
%TD*%
D10*
%TO.P,R4,1*%
%TO.N,Net-(R3-Pad2)*%
X124009376Y-136483734D03*
%TO.P,R4,2*%
%TO.N,Net-(IC2-I{slash}O1_2)*%
X124009376Y-134953734D03*
%TD*%
D22*
%TO.P,IC2,1,I/O1_1*%
%TO.N,Net-(IC2-I{slash}O1_1)*%
X123959376Y-130368734D03*
%TO.P,IC2,2,GND*%
%TO.N,GND*%
X124909376Y-130368734D03*
%TO.P,IC2,3,I/O2_1*%
%TO.N,Net-(IC2-I{slash}O2_1)*%
X125859376Y-130368734D03*
%TO.P,IC2,4,I/O2_2*%
%TO.N,Net-(IC2-I{slash}O2_2)*%
X125859376Y-132868734D03*
%TO.P,IC2,5,VBUS*%
%TO.N,Net-(IC2-VBUS)*%
X124909376Y-132868734D03*
%TO.P,IC2,6,I/O1_2*%
%TO.N,Net-(IC2-I{slash}O1_2)*%
X123959376Y-132868734D03*
%TD*%
D23*
%TO.P,C3,1,+*%
%TO.N,Net-(C3-+)*%
X82859376Y-140218734D03*
%TO.P,C3,2,-*%
%TO.N,GND*%
X88959376Y-140218734D03*
%TD*%
D20*
%TO.P,C1,1*%
%TO.N,GND*%
X102109376Y-129874734D03*
%TO.P,C1,2*%
%TO.N,Net-(IC1-VBUS)*%
X102109376Y-131362734D03*
%TD*%
D22*
%TO.P,IC1,1,I/O1_1*%
%TO.N,Net-(IC1-I{slash}O1_1)*%
X104959376Y-130368734D03*
%TO.P,IC1,2,GND*%
%TO.N,GND*%
X105909376Y-130368734D03*
%TO.P,IC1,3,I/O2_1*%
%TO.N,Net-(IC1-I{slash}O2_1)*%
X106859376Y-130368734D03*
%TO.P,IC1,4,I/O2_2*%
%TO.N,Net-(IC1-I{slash}O2_2)*%
X106859376Y-132868734D03*
%TO.P,IC1,5,VBUS*%
%TO.N,Net-(IC1-VBUS)*%
X105909376Y-132868734D03*
%TO.P,IC1,6,I/O1_2*%
%TO.N,Net-(IC1-I{slash}O1_2)*%
X104959376Y-132868734D03*
%TD*%
D24*
%TO.N,Net-(C3-+)*%
X83159376Y-155268734D03*
X82909376Y-154168734D03*
X84759376Y-128568734D03*
%TO.N,GND*%
X128009376Y-127618734D03*
X128009376Y-128518734D03*
X103409376Y-129918734D03*
X102109376Y-128518734D03*
X100809376Y-129918734D03*
X90809376Y-142318734D03*
X85709376Y-135318734D03*
X105909376Y-129218734D03*
X90809376Y-138218734D03*
X88909376Y-133818734D03*
X88909376Y-142318734D03*
X124909376Y-129218734D03*
X87109376Y-140218734D03*
X87109376Y-142318734D03*
X124909376Y-127218734D03*
X88909376Y-132218734D03*
X105909376Y-128118734D03*
X85709376Y-132218734D03*
X88909376Y-135318734D03*
X87109376Y-138318734D03*
X90809376Y-140218734D03*
X124909376Y-128218734D03*
X89009376Y-138218734D03*
X85709376Y-133818734D03*
X105909376Y-127218734D03*
%TO.N,Net-(C3-+)*%
X82909376Y-145318734D03*
X82909376Y-147718734D03*
X82909376Y-149018734D03*
X82909376Y-135618734D03*
X82909376Y-130418734D03*
X83809376Y-129518734D03*
X82909376Y-137718734D03*
X82909376Y-150218734D03*
X82909376Y-146518734D03*
X82909376Y-136618734D03*
X82909376Y-142818734D03*
X82909376Y-131618734D03*
X82909376Y-144018734D03*
%TO.N,Net-(F1-Pad2)*%
X93119376Y-131218734D03*
X93119376Y-130118734D03*
%TD*%
D25*
%TO.N,Net-(R1-Pad1)*%
X105009376Y-138003734D02*
X105009376Y-136283734D01*
%TO.N,Net-(J4-Pad08)*%
X105009376Y-140418734D02*
X105009376Y-139533734D01*
%TO.N,Net-(R3-Pad2)*%
X124009376Y-138338734D02*
X123959376Y-138388734D01*
X124009376Y-136483734D02*
X124009376Y-138338734D01*
%TO.N,Net-(J4-Pad32)*%
X124009376Y-154418734D02*
X124009376Y-139968734D01*
X122179376Y-156248734D02*
X124009376Y-154418734D01*
%TO.N,Net-(J4-Pad08)*%
X91699376Y-153728734D02*
X105009376Y-140418734D01*
X91699376Y-156248734D02*
X91699376Y-153728734D01*
%TO.N,Net-(IC1-VBUS)*%
X85265376Y-157602734D02*
X84079376Y-158788734D01*
X87805376Y-155822734D02*
X87805376Y-156907992D01*
X87805376Y-156907992D02*
X87110634Y-157602734D01*
X102109376Y-141518734D02*
X87805376Y-155822734D01*
X102109376Y-131362734D02*
X102109376Y-141518734D01*
X87110634Y-157602734D02*
X85265376Y-157602734D01*
%TO.N,Net-(IC1-I{slash}O2_2)*%
X106859376Y-140568734D02*
X106859376Y-132868734D01*
X94239376Y-153188734D02*
X106859376Y-140568734D01*
X94239376Y-156248734D02*
X94239376Y-153188734D01*
D26*
%TO.N,Net-(C3-+)*%
X85379376Y-156248734D02*
X85359376Y-156268734D01*
X86619376Y-156248734D02*
X85379376Y-156248734D01*
X85339376Y-156248734D02*
X85359376Y-156268734D01*
X84079376Y-156248734D02*
X85339376Y-156248734D01*
X82909376Y-155078734D02*
X83029376Y-155198734D01*
X82909376Y-153918734D02*
X82909376Y-155078734D01*
X83029376Y-155198734D02*
X84079376Y-156248734D01*
X82909376Y-140268734D02*
X82859376Y-140218734D01*
X82909376Y-150218734D02*
X82909376Y-140268734D01*
D25*
%TO.N,GND*%
X128009376Y-129874734D02*
X128009376Y-126260833D01*
X128009376Y-126260833D02*
X128204476Y-126065733D01*
X90809376Y-142318734D02*
X90809376Y-142068734D01*
X90809376Y-142068734D02*
X88959376Y-140218734D01*
X90809376Y-138368734D02*
X88959376Y-140218734D01*
X90809376Y-138218734D02*
X90809376Y-138368734D01*
X87109376Y-138368734D02*
X88959376Y-140218734D01*
X87109376Y-138318734D02*
X87109376Y-138368734D01*
X87109376Y-142068734D02*
X88959376Y-140218734D01*
X87109376Y-142318734D02*
X87109376Y-142068734D01*
X88909376Y-140268734D02*
X88959376Y-140218734D01*
X88909376Y-142318734D02*
X88909376Y-140268734D01*
X89009376Y-140168734D02*
X88959376Y-140218734D01*
X89009376Y-138218734D02*
X89009376Y-140168734D01*
X87109376Y-140218734D02*
X88959376Y-140218734D01*
X90809376Y-140218734D02*
X88959376Y-140218734D01*
X102109376Y-128518734D02*
X102109376Y-129874734D01*
X102153376Y-129918734D02*
X102109376Y-129874734D01*
X103409376Y-129918734D02*
X102153376Y-129918734D01*
X102065376Y-129918734D02*
X102109376Y-129874734D01*
X100809376Y-129918734D02*
X102065376Y-129918734D01*
X88909376Y-135318734D02*
X88809376Y-135318734D01*
X88809376Y-135318734D02*
X87309376Y-133818734D01*
X85809376Y-135318734D02*
X87309376Y-133818734D01*
X85709376Y-135318734D02*
X85809376Y-135318734D01*
X88909376Y-132218734D02*
X87309376Y-133818734D01*
X85709376Y-132218734D02*
X87309376Y-133818734D01*
X88909376Y-133818734D02*
X87309376Y-133818734D01*
X85709376Y-133818734D02*
X87309376Y-133818734D01*
X124909376Y-130368734D02*
X124909376Y-129218734D01*
X105909376Y-127218734D02*
X105909376Y-129218734D01*
X105909376Y-129218734D02*
X105909376Y-130368734D01*
X124909376Y-127218734D02*
X124909376Y-129218734D01*
%TO.N,Net-(IC1-VBUS)*%
X105909376Y-132868734D02*
X105909376Y-131916734D01*
X105909376Y-131916734D02*
X105462376Y-131469734D01*
X102216376Y-131469734D02*
X102109376Y-131362734D01*
X105462376Y-131469734D02*
X102216376Y-131469734D01*
D27*
%TO.N,Net-(IC2-VBUS)*%
X139309376Y-161718734D02*
X141809376Y-159218734D01*
X141809376Y-159218734D02*
X141809376Y-143218734D01*
D25*
X127902376Y-131469734D02*
X128009376Y-131362734D01*
D27*
X107329376Y-161718734D02*
X139309376Y-161718734D01*
X141809376Y-143218734D02*
X129953376Y-131362734D01*
D25*
X125356376Y-131469734D02*
X127902376Y-131469734D01*
D27*
X104399376Y-158788734D02*
X107329376Y-161718734D01*
D25*
X124909376Y-131916734D02*
X125356376Y-131469734D01*
D27*
X129953376Y-131362734D02*
X128009376Y-131362734D01*
D25*
X124909376Y-132868734D02*
X124909376Y-131916734D01*
%TO.N,Net-(IC1-I{slash}O1_1)*%
X104959376Y-126210832D02*
X105104475Y-126065733D01*
X104959376Y-130368734D02*
X104959376Y-126210832D01*
%TO.N,Net-(IC1-I{slash}O1_2)*%
X104959376Y-132868734D02*
X104959376Y-134703734D01*
X104959376Y-134703734D02*
X105009376Y-134753734D01*
%TO.N,Net-(IC1-I{slash}O2_1)*%
X106859376Y-126310833D02*
X107104476Y-126065733D01*
X106859376Y-130368734D02*
X106859376Y-126310833D01*
%TO.N,Net-(IC2-I{slash}O2_2)*%
X125905376Y-157602734D02*
X125905376Y-132914734D01*
X124719376Y-158788734D02*
X125905376Y-157602734D01*
X125905376Y-132914734D02*
X125859376Y-132868734D01*
%TO.N,Net-(IC2-I{slash}O1_2)*%
X123959376Y-134903734D02*
X124009376Y-134953734D01*
X123959376Y-132868734D02*
X123959376Y-134903734D01*
%TO.N,Net-(IC2-I{slash}O2_1)*%
X125859376Y-126410833D02*
X126204476Y-126065733D01*
X125859376Y-130368734D02*
X125859376Y-126410833D01*
%TO.N,Net-(IC2-I{slash}O1_1)*%
X123959376Y-126310832D02*
X124204475Y-126065733D01*
X123959376Y-130368734D02*
X123959376Y-126310832D01*
D26*
%TO.N,Net-(C3-+)*%
X86509376Y-126818734D02*
X82909376Y-130418734D01*
X82909376Y-130418734D02*
X82909376Y-133418734D01*
X82909376Y-133818734D02*
X82909376Y-139968734D01*
D28*
%TO.N,Net-(F1-Pad2)*%
X93119376Y-133178734D02*
X93119376Y-127228734D01*
%TD*%
M02*
