M48
; DRILL file {KiCad 9.0.7} date 2026-01-30T10:33:05-0500
; FORMAT={-:-/ absolute / metric / decimal}
; #@! TF.CreationDate,2026-01-30T10:33:05-05:00
; #@! TF.GenerationSoftware,Kicad,Pcbnew,9.0.7
; #@! TF.FileFunction,Plated,1,4,PTH
FMAT,2
METRIC
; #@! TA.AperFunction,Plated,PTH,ViaDrill
T1C0.300
; #@! TA.AperFunction,Plated,PTH,ComponentDrill
T2C0.813
; #@! TA.AperFunction,Plated,PTH,ComponentDrill
T3C1.020
; #@! TA.AperFunction,Plated,PTH,ComponentDrill
T4C1.780
; #@! TA.AperFunction,Plated,PTH,ComponentDrill
T5C3.000
; #@! TA.AperFunction,Plated,PTH,ComponentDrill
T6C3.200
%
G90
G05
T1
X82.909Y-130.419
X82.909Y-131.619
X82.909Y-135.619
X82.909Y-136.619
X82.909Y-137.719
X82.909Y-142.819
X82.909Y-144.019
X82.909Y-145.319
X82.909Y-146.519
X82.909Y-147.719
X82.909Y-149.019
X82.909Y-150.219
X82.909Y-154.169
X83.159Y-155.269
X83.809Y-129.519
X84.759Y-128.569
X85.709Y-132.219
X85.709Y-133.819
X85.709Y-135.319
X87.109Y-138.319
X87.109Y-140.219
X87.109Y-142.319
X88.909Y-132.219
X88.909Y-133.819
X88.909Y-135.319
X88.909Y-142.319
X89.009Y-138.219
X90.809Y-138.219
X90.809Y-140.219
X90.809Y-142.319
X93.119Y-130.119
X93.119Y-131.219
X100.809Y-129.919
X102.109Y-128.519
X103.409Y-129.919
X105.909Y-127.219
X105.909Y-128.119
X105.909Y-129.219
X124.909Y-127.219
X124.909Y-128.219
X124.909Y-129.219
X128.009Y-127.619
X128.009Y-128.519
T2
X105.104Y-126.066
X107.104Y-126.066
X109.104Y-126.066
X124.204Y-126.066
X126.204Y-126.066
X128.204Y-126.066
T3
X84.079Y-156.249
X84.079Y-158.789
X86.619Y-156.249
X86.619Y-158.789
X89.159Y-156.249
X89.159Y-158.789
X91.699Y-156.249
X91.699Y-158.789
X94.239Y-156.249
X94.239Y-158.789
X96.779Y-156.249
X96.779Y-158.789
X99.319Y-156.249
X99.319Y-158.789
X101.859Y-156.249
X101.859Y-158.789
X104.399Y-156.249
X104.399Y-158.789
X106.939Y-156.249
X106.939Y-158.789
X109.479Y-156.249
X109.479Y-158.789
X112.019Y-156.249
X112.019Y-158.789
X114.559Y-156.249
X114.559Y-158.789
X117.099Y-156.249
X117.099Y-158.789
X119.639Y-156.249
X119.639Y-158.789
X122.179Y-156.249
X122.179Y-158.789
X124.719Y-156.249
X124.719Y-158.789
X127.259Y-156.249
X127.259Y-158.789
X129.799Y-156.249
X129.799Y-158.789
X132.339Y-156.249
X132.339Y-158.789
T4
X93.119Y-133.179
X93.119Y-140.672
X96.299Y-133.179
X96.299Y-140.672
T5
X79.989Y-128.429
X79.989Y-145.422
T6
X79.207Y-157.887
X80.709Y-119.819
X137.207Y-157.887
X138.709Y-119.819
M30
