%TF.GenerationSoftware,KiCad,Pcbnew,9.0.7*%
%TF.CreationDate,2026-01-30T10:33:09-05:00*%
%TF.ProjectId,ALT6 TELEM CPLT EXT,414c5436-2054-4454-9c45-4d2043504c54,rev?*%
%TF.SameCoordinates,Original*%
%TF.FileFunction,Legend,Bot*%
%TF.FilePolarity,Positive*%
%FSLAX46Y46*%
G04 Gerber Fmt 4.6, Leading zero omitted, Abs format (unit mm)*
G04 Created by KiCad (PCBNEW 9.0.7) date 2026-01-30 10:33:09*
%MOMM*%
%LPD*%
G01*
G04 APERTURE LIST*
G04 Aperture macros list*
%AMRoundRect*
0 Rectangle with rounded corners*
0 $1 Rounding radius*
0 $2 $3 $4 $5 $6 $7 $8 $9 X,Y pos of 4 corners*
0 Add a 4 corners polygon primitive as box body*
4,1,4,$2,$3,$4,$5,$6,$7,$8,$9,$2,$3,0*
0 Add four circle primitives for the rounded corners*
1,1,$1+$1,$2,$3*
1,1,$1+$1,$4,$5*
1,1,$1+$1,$6,$7*
1,1,$1+$1,$8,$9*
0 Add four rect primitives between the rounded corners*
20,1,$1+$1,$2,$3,$4,$5,0*
20,1,$1+$1,$4,$5,$6,$7,0*
20,1,$1+$1,$6,$7,$8,$9,0*
20,1,$1+$1,$8,$9,$2,$3,0*%
G04 Aperture macros list end*
%ADD10C,0.200000*%
%ADD11C,0.508000*%
%ADD12C,0.100000*%
%ADD13C,1.826200*%
%ADD14C,1.216200*%
%ADD15C,0.010000*%
%ADD16RoundRect,0.102000X0.490000X-0.430000X0.490000X0.430000X-0.490000X0.430000X-0.490000X-0.430000X0*%
%ADD17RoundRect,0.102000X0.685000X0.685000X-0.685000X0.685000X-0.685000X-0.685000X0.685000X-0.685000X0*%
%ADD18C,1.574000*%
%ADD19C,5.700000*%
%ADD20R,2.200000X2.150000*%
%ADD21O,1.168400X1.752600*%
%ADD22C,1.320800*%
%ADD23RoundRect,0.102000X-0.485000X0.490000X-0.485000X-0.490000X0.485000X-0.490000X0.485000X0.490000X0*%
%ADD24R,2.000000X5.300000*%
%ADD25R,0.600000X1.200000*%
%ADD26R,2.400000X2.900000*%
G04 APERTURE END LIST*
D10*
%TO.C,D1*%
X82409376Y-132008734D02*
X88384376Y-132008734D01*
X87809376Y-135628734D02*
X82409376Y-135628734D01*
D11*
%TO.C,J1*%
X114394276Y-126065733D02*
G75*
G02*
X113632276Y-126065733I-381000J0D01*
G01*
X113632276Y-126065733D02*
G75*
G02*
X114394276Y-126065733I381000J0D01*
G01*
%TO.C,J2*%
X133494276Y-126065733D02*
G75*
G02*
X132732276Y-126065733I-381000J0D01*
G01*
X132732276Y-126065733D02*
G75*
G02*
X133494276Y-126065733I381000J0D01*
G01*
D10*
%TO.C,F1*%
X85009376Y-126718734D02*
X85009376Y-126718734D01*
X85009376Y-126918734D02*
X85009376Y-126918734D01*
D12*
X87809376Y-124258734D02*
X91809376Y-124258734D01*
X87809376Y-129378734D02*
X91809376Y-129378734D01*
D10*
X85009376Y-126718734D02*
G75*
G02*
X85009376Y-126918734I0J-100000D01*
G01*
X85009376Y-126918734D02*
G75*
G02*
X85009376Y-126718734I0J100000D01*
G01*
%TO.C,IC2*%
X123309376Y-129768734D02*
X123309376Y-130968734D01*
X123447376Y-131318734D02*
X123447376Y-131918734D01*
X123447376Y-131918734D02*
X126371376Y-131918734D01*
X126371376Y-131318734D02*
X123447376Y-131318734D01*
X126371376Y-131918734D02*
X126371376Y-131318734D01*
%TO.C,C3*%
X81109376Y-140218734D02*
X81109376Y-140218734D01*
X81209376Y-140218734D02*
X81209376Y-140218734D01*
X81209376Y-140218734D02*
X81209376Y-140218734D01*
X82259376Y-138068734D02*
X82259376Y-138068734D01*
X82259376Y-138068734D02*
X89559376Y-138068734D01*
X82309376Y-142368734D02*
X82309376Y-142368734D01*
X82309376Y-142368734D02*
X89559376Y-142368734D01*
X89559376Y-138068734D02*
X82259376Y-138068734D01*
X89559376Y-138068734D02*
X89559376Y-138068734D01*
X89559376Y-142368734D02*
X82309376Y-142368734D01*
X89559376Y-142368734D02*
X89559376Y-142368734D01*
X81109376Y-140218734D02*
G75*
G02*
X81209376Y-140218734I50000J0D01*
G01*
X81209376Y-140218734D02*
G75*
G02*
X81109376Y-140218734I-50000J0D01*
G01*
X81209376Y-140218734D02*
G75*
G02*
X81109376Y-140218734I-50000J0D01*
G01*
%TO.C,IC1*%
X104309376Y-129768734D02*
X104309376Y-130968734D01*
X104447376Y-131318734D02*
X104447376Y-131918734D01*
X104447376Y-131918734D02*
X107371376Y-131918734D01*
X107371376Y-131318734D02*
X104447376Y-131318734D01*
X107371376Y-131918734D02*
X107371376Y-131318734D01*
%TD*%
%LPC*%
D13*
%TO.C,J3*%
X80902476Y-128428734D02*
G75*
G02*
X79076276Y-128428734I-913100J0D01*
G01*
X79076276Y-128428734D02*
G75*
G02*
X80902476Y-128428734I913100J0D01*
G01*
X80902476Y-145421734D02*
G75*
G02*
X79076276Y-145421734I-913100J0D01*
G01*
X79076276Y-145421734D02*
G75*
G02*
X80902476Y-145421734I913100J0D01*
G01*
D14*
X93727476Y-140671734D02*
G75*
G02*
X92511276Y-140671734I-608100J0D01*
G01*
X92511276Y-140671734D02*
G75*
G02*
X93727476Y-140671734I608100J0D01*
G01*
X96907476Y-140671734D02*
G75*
G02*
X95691276Y-140671734I-608100J0D01*
G01*
X95691276Y-140671734D02*
G75*
G02*
X96907476Y-140671734I608100J0D01*
G01*
D15*
X94335576Y-134394934D02*
X91903176Y-134394934D01*
X91903176Y-131962534D01*
X94335576Y-131962534D01*
X94335576Y-134394934D01*
G36*
X94335576Y-134394934D02*
G01*
X91903176Y-134394934D01*
X91903176Y-131962534D01*
X94335576Y-131962534D01*
X94335576Y-134394934D01*
G37*
X97515576Y-134394934D02*
X95083176Y-134394934D01*
X95083176Y-131962534D01*
X97515576Y-131962534D01*
X97515576Y-134394934D01*
G36*
X97515576Y-134394934D02*
G01*
X95083176Y-134394934D01*
X95083176Y-131962534D01*
X97515576Y-131962534D01*
X97515576Y-134394934D01*
G37*
%TD*%
D16*
%TO.C,R3*%
X124009376Y-139918734D03*
X124009376Y-138388734D03*
%TD*%
%TO.C,R2*%
X105009376Y-139533734D03*
X105009376Y-138003734D03*
%TD*%
D17*
%TO.C,J4*%
X84079376Y-158788734D03*
D18*
X84079376Y-156248734D03*
X86619376Y-158788734D03*
X86619376Y-156248734D03*
X89159376Y-158788734D03*
X89159376Y-156248734D03*
X91699376Y-158788734D03*
X91699376Y-156248734D03*
X94239376Y-158788734D03*
X94239376Y-156248734D03*
X96779376Y-158788734D03*
X96779376Y-156248734D03*
X99319376Y-158788734D03*
X99319376Y-156248734D03*
X101859376Y-158788734D03*
X101859376Y-156248734D03*
X104399376Y-158788734D03*
X104399376Y-156248734D03*
X106939376Y-158788734D03*
X106939376Y-156248734D03*
X109479376Y-158788734D03*
X109479376Y-156248734D03*
X112019376Y-158788734D03*
X112019376Y-156248734D03*
X114559376Y-158788734D03*
X114559376Y-156248734D03*
X117099376Y-158788734D03*
X117099376Y-156248734D03*
X119639376Y-158788734D03*
X119639376Y-156248734D03*
X122179376Y-158788734D03*
X122179376Y-156248734D03*
X124719376Y-158788734D03*
X124719376Y-156248734D03*
X127259376Y-158788734D03*
X127259376Y-156248734D03*
X129799376Y-158788734D03*
X129799376Y-156248734D03*
X132339376Y-158788734D03*
X132339376Y-156248734D03*
%TD*%
D19*
%TO.C,REF\u002A\u002A*%
X137207495Y-157886598D03*
%TD*%
%TO.C,REF\u002A\u002A*%
X79207495Y-157886598D03*
%TD*%
%TO.C,REF\u002A\u002A*%
X138709376Y-119818734D03*
%TD*%
%TO.C,REF\u002A\u002A*%
X80709376Y-119818734D03*
%TD*%
D20*
%TO.C,D1*%
X87309376Y-133818734D03*
X82909376Y-133818734D03*
%TD*%
D21*
%TO.C,J1*%
X111454477Y-119515733D03*
X102754475Y-119515733D03*
D22*
X109104476Y-126065733D03*
X107104476Y-126065733D03*
X105104475Y-126065733D03*
%TD*%
D21*
%TO.C,J2*%
X130554477Y-119515733D03*
X121854475Y-119515733D03*
D22*
X128204476Y-126065733D03*
X126204476Y-126065733D03*
X124204475Y-126065733D03*
%TD*%
D16*
%TO.C,R1*%
X105009376Y-136283734D03*
X105009376Y-134753734D03*
%TD*%
D23*
%TO.C,C2*%
X128009376Y-129874734D03*
X128009376Y-131362734D03*
%TD*%
D24*
%TO.C,F1*%
X86509376Y-126818734D03*
X93109376Y-126818734D03*
%TD*%
D16*
%TO.C,R4*%
X124009376Y-136483734D03*
X124009376Y-134953734D03*
%TD*%
D25*
%TO.C,IC2*%
X123959376Y-130368734D03*
X124909376Y-130368734D03*
X125859376Y-130368734D03*
X125859376Y-132868734D03*
X124909376Y-132868734D03*
X123959376Y-132868734D03*
%TD*%
D26*
%TO.C,C3*%
X82859376Y-140218734D03*
X88959376Y-140218734D03*
%TD*%
D23*
%TO.C,C1*%
X102109376Y-129874734D03*
X102109376Y-131362734D03*
%TD*%
D25*
%TO.C,IC1*%
X104959376Y-130368734D03*
X105909376Y-130368734D03*
X106859376Y-130368734D03*
X106859376Y-132868734D03*
X105909376Y-132868734D03*
X104959376Y-132868734D03*
%TD*%
%LPD*%
M02*
