M48
; DRILL file {KiCad 9.0.7} date 2026-02-24T18:40:30-0500
; FORMAT={-:-/ absolute / metric / decimal}
; #@! TF.CreationDate,2026-02-24T18:40:30-05:00
; #@! TF.GenerationSoftware,Kicad,Pcbnew,9.0.7
; #@! TF.FileFunction,Plated,1,4,PTH
FMAT,2
METRIC
; #@! TA.AperFunction,Plated,PTH,ViaDrill
T1C0.300
; #@! TA.AperFunction,Plated,PTH,ComponentDrill
T2C0.813
; #@! TA.AperFunction,Plated,PTH,ComponentDrill
T3C1.020
; #@! TA.AperFunction,Plated,PTH,ComponentDrill
T4C3.200
%
G90
G05
T1
X78.549Y-129.979
X78.549Y-131.403
X78.549Y-132.698
X78.549Y-134.19
X78.549Y-137.434
X78.549Y-138.661
X78.549Y-140.059
X79.474Y-129.054
X79.509Y-141.018
X80.409Y-128.119
X80.573Y-142.082
X81.276Y-134.369
X81.276Y-135.969
X81.376Y-137.469
X81.481Y-142.99
X82.605Y-144.115
X82.605Y-145.462
X82.859Y-148.311
X82.859Y-149.584
X82.859Y-150.932
X82.859Y-153.854
X82.866Y-155.036
X84.376Y-137.469
X84.476Y-134.369
X84.476Y-135.969
X86.346Y-145.069
X86.346Y-148.769
X88.146Y-149.019
X88.246Y-144.919
X89.617Y-130.164
X89.744Y-139.675
X90.046Y-145.069
X90.046Y-148.769
X90.616Y-131.164
X90.785Y-138.634
X91.701Y-132.249
X91.892Y-137.527
X92.94Y-133.488
X92.94Y-135.065
X92.94Y-136.479
X99.992Y-128.099
X99.992Y-128.999
X99.992Y-130.099
X103.178Y-128.546
X103.178Y-129.446
X113.292Y-128.246
X113.292Y-129.246
X113.292Y-130.246
X116.292Y-128.346
X116.292Y-129.246
X125.892Y-128.146
X125.892Y-129.146
X125.892Y-130.146
X128.992Y-128.546
X128.992Y-129.446
T2
X87.733Y-137.675
X87.733Y-139.675
X99.187Y-126.946
X101.187Y-126.946
X103.187Y-126.946
X112.287Y-126.993
X114.287Y-126.993
X116.287Y-126.993
X125.187Y-126.993
X127.187Y-126.993
X129.187Y-126.993
T3
X84.079Y-156.249
X84.079Y-158.789
X86.619Y-156.249
X86.619Y-158.789
X89.159Y-156.249
X89.159Y-158.789
X91.699Y-156.249
X91.699Y-158.789
X94.239Y-156.249
X94.239Y-158.789
X96.779Y-156.249
X96.779Y-158.789
X99.319Y-156.249
X99.319Y-158.789
X101.859Y-156.249
X101.859Y-158.789
X104.399Y-156.249
X104.399Y-158.789
X106.939Y-156.249
X106.939Y-158.789
X109.479Y-156.249
X109.479Y-158.789
X112.019Y-156.249
X112.019Y-158.789
X114.559Y-156.249
X114.559Y-158.789
X117.099Y-156.249
X117.099Y-158.789
X119.639Y-156.249
X119.639Y-158.789
X122.179Y-156.249
X122.179Y-158.789
X124.719Y-156.249
X124.719Y-158.789
X127.259Y-156.249
X127.259Y-158.789
X129.799Y-156.249
X129.799Y-158.789
X132.339Y-156.249
X132.339Y-158.789
T4
X79.207Y-157.887
X80.709Y-119.819
X137.207Y-157.887
X138.709Y-119.819
M30
