%TF.GenerationSoftware,KiCad,Pcbnew,9.0.7*%
%TF.CreationDate,2026-02-25T11:33:04-05:00*%
%TF.ProjectId,ALT6 TELEM CPLT EXT,414c5436-2054-4454-9c45-4d2043504c54,rev?*%
%TF.SameCoordinates,Original*%
%TF.FileFunction,Copper,L4,Bot*%
%TF.FilePolarity,Positive*%
%FSLAX46Y46*%
G04 Gerber Fmt 4.6, Leading zero omitted, Abs format (unit mm)*
G04 Created by KiCad (PCBNEW 9.0.7) date 2026-02-25 11:33:04*
%MOMM*%
%LPD*%
G01*
G04 APERTURE LIST*
%TA.AperFunction,SMDPad,CuDef*%
%ADD10R,0.900000X0.650000*%
%TD*%
%TA.AperFunction,WasherPad*%
%ADD11O,1.752600X1.168400*%
%TD*%
%TA.AperFunction,ComponentPad*%
%ADD12C,1.320800*%
%TD*%
%TA.AperFunction,SMDPad,CuDef*%
%ADD13R,0.600000X1.200000*%
%TD*%
%TA.AperFunction,SMDPad,CuDef*%
%ADD14R,2.000000X5.300000*%
%TD*%
%TA.AperFunction,SMDPad,CuDef*%
%ADD15R,2.200000X2.150000*%
%TD*%
%TA.AperFunction,ComponentPad*%
%ADD16C,5.700000*%
%TD*%
%TA.AperFunction,WasherPad*%
%ADD17O,1.168400X1.752600*%
%TD*%
%TA.AperFunction,SMDPad,CuDef*%
%ADD18R,0.980000X0.860000*%
%TD*%
%TA.AperFunction,SMDPad,CuDef*%
%ADD19R,0.970000X0.980000*%
%TD*%
%TA.AperFunction,ComponentPad*%
%ADD20R,1.370000X1.370000*%
%TD*%
%TA.AperFunction,ComponentPad*%
%ADD21C,1.370000*%
%TD*%
%TA.AperFunction,SMDPad,CuDef*%
%ADD22R,3.500000X1.600000*%
%TD*%
%TA.AperFunction,ViaPad*%
%ADD23C,0.600000*%
%TD*%
%TA.AperFunction,Conductor*%
%ADD24C,0.600000*%
%TD*%
%TA.AperFunction,Conductor*%
%ADD25C,1.300000*%
%TD*%
%TA.AperFunction,Conductor*%
%ADD26C,1.000000*%
%TD*%
G04 APERTURE END LIST*
D10*
%TO.P,R6,1*%
%TO.N,Net-(J4-Pad29)*%
X115891876Y-137370734D03*
%TO.P,R6,2*%
%TO.N,Net-(IC3-I{slash}O2_2)*%
X115891876Y-135920734D03*
%TD*%
%TO.P,R3,1*%
%TO.N,Net-(J4-Pad33)*%
X128591876Y-137370734D03*
%TO.P,R3,2*%
%TO.N,Net-(IC2-I{slash}O2_2)*%
X128591876Y-135920734D03*
%TD*%
%TO.P,R2,1*%
%TO.N,Net-(J4-Pad10)*%
X102591876Y-137145734D03*
%TO.P,R2,2*%
%TO.N,Net-(IC1-I{slash}O2_2)*%
X102591876Y-135695734D03*
%TD*%
D11*
%TO.P,J3,*%
%TO.N,*%
X90083376Y-135324633D03*
X90083376Y-142024634D03*
D12*
%TO.P,J3,1,1*%
%TO.N,GND*%
X87733376Y-137674634D03*
%TO.P,J3,2,2*%
%TO.N,Net-(F1-Pad2)*%
X87733376Y-139674635D03*
%TD*%
D13*
%TO.P,IC3,1,I/O1_1*%
%TO.N,Net-(IC3-I{slash}O1_1)*%
X112341876Y-131295734D03*
%TO.P,IC3,2,GND*%
%TO.N,GND*%
X113291876Y-131295734D03*
%TO.P,IC3,3,I/O2_1*%
%TO.N,Net-(IC3-I{slash}O2_1)*%
X114241876Y-131295734D03*
%TO.P,IC3,4,I/O2_2*%
%TO.N,Net-(IC3-I{slash}O2_2)*%
X114241876Y-133795734D03*
%TO.P,IC3,5,VBUS*%
%TO.N,Net-(IC1-VBUS)*%
X113291876Y-133795734D03*
%TO.P,IC3,6,I/O1_2*%
%TO.N,Net-(IC3-I{slash}O1_2)*%
X112341876Y-133795734D03*
%TD*%
%TO.P,IC2,1,I/O1_1*%
%TO.N,Net-(IC2-I{slash}O1_1)*%
X124941876Y-131295734D03*
%TO.P,IC2,2,GND*%
%TO.N,GND*%
X125891876Y-131295734D03*
%TO.P,IC2,3,I/O2_1*%
%TO.N,Net-(IC2-I{slash}O2_1)*%
X126841876Y-131295734D03*
%TO.P,IC2,4,I/O2_2*%
%TO.N,Net-(IC2-I{slash}O2_2)*%
X126841876Y-133795734D03*
%TO.P,IC2,5,VBUS*%
%TO.N,Net-(IC1-VBUS)*%
X125891876Y-133795734D03*
%TO.P,IC2,6,I/O1_2*%
%TO.N,Net-(IC2-I{slash}O1_2)*%
X124941876Y-133795734D03*
%TD*%
%TO.P,IC1,1,I/O1_1*%
%TO.N,Net-(IC1-I{slash}O1_1)*%
X99041876Y-131248735D03*
%TO.P,IC1,2,GND*%
%TO.N,GND*%
X99991876Y-131248735D03*
%TO.P,IC1,3,I/O2_1*%
%TO.N,Net-(IC1-I{slash}O2_1)*%
X100941876Y-131248735D03*
%TO.P,IC1,4,I/O2_2*%
%TO.N,Net-(IC1-I{slash}O2_2)*%
X100941876Y-133748735D03*
%TO.P,IC1,5,VBUS*%
%TO.N,Net-(IC1-VBUS)*%
X99991876Y-133748735D03*
%TO.P,IC1,6,I/O1_2*%
%TO.N,Net-(IC1-I{slash}O1_2)*%
X99041876Y-133748735D03*
%TD*%
D14*
%TO.P,F1,1,1*%
%TO.N,Net-(D1-K)*%
X82009376Y-126518734D03*
%TO.P,F1,2,2*%
%TO.N,Net-(F1-Pad2)*%
X88609376Y-126518734D03*
%TD*%
D15*
%TO.P,D1,1,K*%
%TO.N,Net-(D1-K)*%
X78549376Y-135984734D03*
%TO.P,D1,2,A*%
%TO.N,GND*%
X82949376Y-135984734D03*
%TD*%
D16*
%TO.P,REF\u002A\u002A,1*%
%TO.N,N/C*%
X138709376Y-119818734D03*
%TD*%
%TO.P,REF\u002A\u002A,1*%
%TO.N,N/C*%
X79207495Y-157886598D03*
%TD*%
D17*
%TO.P,J1,*%
%TO.N,*%
X105536976Y-129295734D03*
X96836976Y-129295734D03*
D12*
%TO.P,J1,1,1*%
%TO.N,GND*%
X103186976Y-126945734D03*
%TO.P,J1,2,2*%
%TO.N,Net-(IC1-I{slash}O2_1)*%
X101186976Y-126945734D03*
%TO.P,J1,3,3*%
%TO.N,Net-(IC1-I{slash}O1_1)*%
X99186975Y-126945734D03*
%TD*%
D17*
%TO.P,J5,*%
%TO.N,*%
X118636976Y-129342733D03*
X109936976Y-129342733D03*
D12*
%TO.P,J5,1,1*%
%TO.N,GND*%
X116286976Y-126992733D03*
%TO.P,J5,2,2*%
%TO.N,Net-(IC3-I{slash}O2_1)*%
X114286976Y-126992733D03*
%TO.P,J5,3,3*%
%TO.N,Net-(IC3-I{slash}O1_1)*%
X112286975Y-126992733D03*
%TD*%
D17*
%TO.P,J2,*%
%TO.N,*%
X131536976Y-129342733D03*
X122836976Y-129342733D03*
D12*
%TO.P,J2,1,1*%
%TO.N,GND*%
X129186976Y-126992733D03*
%TO.P,J2,2,2*%
%TO.N,Net-(IC2-I{slash}O2_1)*%
X127186976Y-126992733D03*
%TO.P,J2,3,3*%
%TO.N,Net-(IC2-I{slash}O1_1)*%
X125186975Y-126992733D03*
%TD*%
D16*
%TO.P,REF\u002A\u002A,1*%
%TO.N,N/C*%
X137207495Y-157886598D03*
%TD*%
%TO.P,REF\u002A\u002A,1*%
%TO.N,N/C*%
X80709376Y-119818734D03*
%TD*%
D18*
%TO.P,R1,1*%
%TO.N,Net-(J4-Pad08)*%
X97391876Y-137163735D03*
%TO.P,R1,2*%
%TO.N,Net-(IC1-I{slash}O1_2)*%
X97391876Y-135633735D03*
%TD*%
D19*
%TO.P,C2,1*%
%TO.N,GND*%
X128991876Y-130801734D03*
%TO.P,C2,2*%
%TO.N,Net-(IC1-VBUS)*%
X128991876Y-132289734D03*
%TD*%
D18*
%TO.P,R7,1*%
%TO.N,Net-(J4-Pad07)*%
X110591876Y-137410734D03*
%TO.P,R7,2*%
%TO.N,Net-(IC3-I{slash}O1_2)*%
X110591876Y-135880734D03*
%TD*%
%TO.P,R4,1*%
%TO.N,Net-(J4-Pad32)*%
X123191876Y-137410734D03*
%TO.P,R4,2*%
%TO.N,Net-(IC2-I{slash}O1_2)*%
X123191876Y-135880734D03*
%TD*%
D20*
%TO.P,J4,01,01*%
%TO.N,unconnected-(J4-Pad01)*%
X84079376Y-158788734D03*
D21*
%TO.P,J4,02,02*%
%TO.N,Net-(D1-K)*%
X84079376Y-156248734D03*
%TO.P,J4,03,03*%
%TO.N,unconnected-(J4-Pad03)*%
X86619376Y-158788734D03*
%TO.P,J4,04,04*%
%TO.N,Net-(D1-K)*%
X86619376Y-156248734D03*
%TO.P,J4,05,05*%
%TO.N,unconnected-(J4-Pad05)*%
X89159376Y-158788734D03*
%TO.P,J4,06,06*%
%TO.N,GND*%
X89159376Y-156248734D03*
%TO.P,J4,07,07*%
%TO.N,Net-(J4-Pad07)*%
X91699376Y-158788734D03*
%TO.P,J4,08,08*%
%TO.N,Net-(J4-Pad08)*%
X91699376Y-156248734D03*
%TO.P,J4,09,09*%
%TO.N,GND*%
X94239376Y-158788734D03*
%TO.P,J4,10,10*%
%TO.N,Net-(J4-Pad10)*%
X94239376Y-156248734D03*
%TO.P,J4,11,11*%
%TO.N,unconnected-(J4-Pad11)*%
X96779376Y-158788734D03*
%TO.P,J4,12,12*%
%TO.N,unconnected-(J4-Pad12)*%
X96779376Y-156248734D03*
%TO.P,J4,13,13*%
%TO.N,unconnected-(J4-Pad13)*%
X99319376Y-158788734D03*
%TO.P,J4,14,14*%
%TO.N,GND*%
X99319376Y-156248734D03*
%TO.P,J4,15,15*%
%TO.N,unconnected-(J4-Pad15)*%
X101859376Y-158788734D03*
%TO.P,J4,16,16*%
%TO.N,unconnected-(J4-Pad16)*%
X101859376Y-156248734D03*
%TO.P,J4,17,17*%
%TO.N,Net-(IC1-VBUS)*%
X104399376Y-158788734D03*
%TO.P,J4,18,18*%
%TO.N,unconnected-(J4-Pad18)*%
X104399376Y-156248734D03*
%TO.P,J4,19,19*%
%TO.N,unconnected-(J4-Pad19)*%
X106939376Y-158788734D03*
%TO.P,J4,20,20*%
%TO.N,GND*%
X106939376Y-156248734D03*
%TO.P,J4,21,21*%
%TO.N,unconnected-(J4-Pad21)*%
X109479376Y-158788734D03*
%TO.P,J4,22,22*%
%TO.N,unconnected-(J4-Pad22)*%
X109479376Y-156248734D03*
%TO.P,J4,23,23*%
%TO.N,unconnected-(J4-Pad23)*%
X112019376Y-158788734D03*
%TO.P,J4,24,24*%
%TO.N,unconnected-(J4-Pad24)*%
X112019376Y-156248734D03*
%TO.P,J4,25,25*%
%TO.N,GND*%
X114559376Y-158788734D03*
%TO.P,J4,26,26*%
%TO.N,unconnected-(J4-Pad26)*%
X114559376Y-156248734D03*
%TO.P,J4,27,27*%
%TO.N,unconnected-(J4-Pad27)*%
X117099376Y-158788734D03*
%TO.P,J4,28,28*%
%TO.N,unconnected-(J4-Pad28)*%
X117099376Y-156248734D03*
%TO.P,J4,29,29*%
%TO.N,Net-(J4-Pad29)*%
X119639376Y-158788734D03*
%TO.P,J4,30,30*%
%TO.N,GND*%
X119639376Y-156248734D03*
%TO.P,J4,31,31*%
%TO.N,unconnected-(J4-Pad31)*%
X122179376Y-158788734D03*
%TO.P,J4,32,32*%
%TO.N,Net-(J4-Pad32)*%
X122179376Y-156248734D03*
%TO.P,J4,33,33*%
%TO.N,Net-(J4-Pad33)*%
X124719376Y-158788734D03*
%TO.P,J4,34,34*%
%TO.N,GND*%
X124719376Y-156248734D03*
%TO.P,J4,35,35*%
%TO.N,unconnected-(J4-Pad35)*%
X127259376Y-158788734D03*
%TO.P,J4,36,36*%
%TO.N,unconnected-(J4-Pad36)*%
X127259376Y-156248734D03*
%TO.P,J4,37,37*%
%TO.N,unconnected-(J4-Pad37)*%
X129799376Y-158788734D03*
%TO.P,J4,38,38*%
%TO.N,unconnected-(J4-Pad38)*%
X129799376Y-156248734D03*
%TO.P,J4,39,39*%
%TO.N,GND*%
X132339376Y-158788734D03*
%TO.P,J4,40,40*%
%TO.N,unconnected-(J4-Pad40)*%
X132339376Y-156248734D03*
%TD*%
D19*
%TO.P,C4,1*%
%TO.N,GND*%
X116291876Y-130901734D03*
%TO.P,C4,2*%
%TO.N,Net-(IC1-VBUS)*%
X116291876Y-132389734D03*
%TD*%
D22*
%TO.P,C5,1*%
%TO.N,Net-(D1-K)*%
X82605376Y-146866734D03*
%TO.P,C5,2*%
%TO.N,GND*%
X88205376Y-146866734D03*
%TD*%
D19*
%TO.P,C1,1*%
%TO.N,GND*%
X103244876Y-130896734D03*
%TO.P,C1,2*%
%TO.N,Net-(IC1-VBUS)*%
X103244876Y-132384734D03*
%TD*%
D23*
%TO.N,GND*%
X90046376Y-148768734D03*
X81376376Y-137468734D03*
X99991876Y-130098735D03*
X90046376Y-145068734D03*
X84476376Y-135968734D03*
X88146376Y-149018734D03*
X125891876Y-130145734D03*
X128991876Y-128545734D03*
X86346376Y-148768734D03*
X125891876Y-128145734D03*
X84476376Y-134368734D03*
X116291876Y-129245734D03*
X116291876Y-128345734D03*
X99991876Y-128998735D03*
X113291876Y-129245734D03*
X81276376Y-134368734D03*
X84376376Y-137468734D03*
X113291876Y-128245734D03*
X86346376Y-145068734D03*
X128991876Y-129445734D03*
X113291876Y-130245734D03*
X125891876Y-129145734D03*
X103177876Y-128545734D03*
X88246376Y-144918734D03*
X81276376Y-135968734D03*
X103177876Y-129445734D03*
X99991876Y-128098735D03*
%TO.N,Net-(F1-Pad2)*%
X90616376Y-131163734D03*
X89744475Y-139674635D03*
X92940376Y-133487734D03*
X89616876Y-130164234D03*
X90784876Y-138634234D03*
X91892376Y-137526734D03*
X92940376Y-135064734D03*
X92940376Y-136478734D03*
X91701376Y-132248734D03*
%TO.N,Net-(D1-K)*%
X82605376Y-144114734D03*
X78549376Y-131402734D03*
X78549376Y-140058734D03*
X82859376Y-153853734D03*
X80409376Y-128118734D03*
X82859376Y-150931734D03*
X82859376Y-148310734D03*
X82605376Y-145461734D03*
X79508876Y-141018234D03*
X78549376Y-134189734D03*
X79473876Y-129054234D03*
X82859376Y-149583734D03*
X78549376Y-129978734D03*
X82866376Y-155035734D03*
X78549376Y-138660734D03*
X78549376Y-132697734D03*
X78549376Y-137433734D03*
X81480876Y-142990234D03*
X80572876Y-142082234D03*
%TD*%
D24*
%TO.N,GND*%
X116291876Y-130601734D02*
X116291876Y-126987833D01*
X84476376Y-134368734D02*
X82876376Y-135968734D01*
X125891876Y-131295734D02*
X125891876Y-130145734D01*
X90046376Y-148768734D02*
X88196376Y-146918734D01*
X88146376Y-146968734D02*
X88196376Y-146918734D01*
X88146376Y-149018734D02*
X88146376Y-146968734D01*
X88246376Y-144918734D02*
X88246376Y-146868734D01*
X103167876Y-130804734D02*
X103211876Y-130760734D01*
X81276376Y-134368734D02*
X82876376Y-135968734D01*
X86346376Y-145068734D02*
X88196376Y-146918734D01*
X113291876Y-128245734D02*
X113291876Y-130245734D01*
X103177876Y-130862734D02*
X103177876Y-127248833D01*
X81276376Y-135968734D02*
X82876376Y-135968734D01*
X103255876Y-130804734D02*
X103211876Y-130760734D01*
X84376376Y-137468734D02*
X82876376Y-135968734D01*
X128991876Y-130801734D02*
X128991876Y-127187833D01*
X81376376Y-137468734D02*
X82876376Y-135968734D01*
X99991876Y-128098735D02*
X99991876Y-130098735D01*
X90046376Y-145068734D02*
X88196376Y-146918734D01*
X113291876Y-131395734D02*
X113291876Y-130245734D01*
X84476376Y-135968734D02*
X82876376Y-135968734D01*
X86346376Y-148768734D02*
X88196376Y-146918734D01*
X128991876Y-127187833D02*
X129186976Y-126992733D01*
X99991876Y-130098735D02*
X99991876Y-131248735D01*
X88246376Y-146868734D02*
X88196376Y-146918734D01*
X125891876Y-128145734D02*
X125891876Y-130145734D01*
%TO.N,Net-(IC3-I{slash}O1_1)*%
X112341876Y-131295734D02*
X112341876Y-127047634D01*
X112341876Y-127047634D02*
X112286975Y-126992733D01*
%TO.N,Net-(IC3-I{slash}O2_1)*%
X114241876Y-131295734D02*
X114241876Y-127037833D01*
X114241876Y-127037833D02*
X114286976Y-126992733D01*
%TO.N,Net-(IC1-VBUS)*%
X105644876Y-132396734D02*
X103359876Y-132396734D01*
X105585376Y-157602734D02*
X112342634Y-157602734D01*
X126238876Y-132396734D02*
X116654876Y-132396734D01*
X113291876Y-133795734D02*
X113291876Y-132843734D01*
X100403877Y-132384734D02*
X103244876Y-132384734D01*
X113291876Y-153704234D02*
X113291876Y-133795734D01*
X128884876Y-132396734D02*
X128991876Y-132289734D01*
X109651876Y-132396734D02*
X105644876Y-132396734D01*
X99991876Y-133748735D02*
X99991876Y-132796735D01*
X114707876Y-132396734D02*
X116284876Y-132396734D01*
X113281376Y-153714734D02*
X113291876Y-153704234D01*
X114707876Y-132396734D02*
X109651876Y-132396734D01*
X116284876Y-132396734D02*
X116291876Y-132389734D01*
X126338876Y-132396734D02*
X128884876Y-132396734D01*
X103359876Y-132396734D02*
X103211876Y-132248734D01*
X125891876Y-132843734D02*
X126338876Y-132396734D01*
X113281376Y-156663992D02*
X113281376Y-153714734D01*
X113291876Y-132843734D02*
X113738876Y-132396734D01*
X99991876Y-132796735D02*
X100403877Y-132384734D01*
X104399376Y-158788734D02*
X105585376Y-157602734D01*
X113738876Y-132396734D02*
X114707876Y-132396734D01*
X112342634Y-157602734D02*
X113281376Y-156663992D01*
X125891876Y-133795734D02*
X125891876Y-132843734D01*
%TO.N,Net-(IC1-I{slash}O2_2)*%
X100943876Y-133750735D02*
X100941876Y-133748735D01*
X100941876Y-134005734D02*
X102591876Y-135655734D01*
X100941876Y-133748735D02*
X100941876Y-134005734D01*
%TO.N,Net-(IC1-I{slash}O1_1)*%
X99041876Y-127090833D02*
X99186975Y-126945734D01*
X99041876Y-131248735D02*
X99041876Y-127090833D01*
%TO.N,Net-(IC1-I{slash}O1_2)*%
X99041876Y-133748735D02*
X99041876Y-133983735D01*
X99041876Y-133983735D02*
X97391876Y-135633735D01*
%TO.N,Net-(IC1-I{slash}O2_1)*%
X100941876Y-127190834D02*
X101186976Y-126945734D01*
X100941876Y-131248735D02*
X100941876Y-127190834D01*
%TO.N,Net-(IC2-I{slash}O2_2)*%
X126841876Y-133795734D02*
X126841876Y-134130734D01*
X126887876Y-133841734D02*
X126841876Y-133795734D01*
X126841876Y-134130734D02*
X128591876Y-135880734D01*
%TO.N,Net-(IC2-I{slash}O1_2)*%
X124941876Y-134130734D02*
X123191876Y-135880734D01*
X124941876Y-133795734D02*
X124941876Y-134130734D01*
%TO.N,Net-(IC2-I{slash}O2_1)*%
X126841876Y-127337833D02*
X127186976Y-126992733D01*
X126841876Y-131295734D02*
X126841876Y-127337833D01*
%TO.N,Net-(IC2-I{slash}O1_1)*%
X124941876Y-127237832D02*
X125186975Y-126992733D01*
X124941876Y-131295734D02*
X124941876Y-127237832D01*
%TO.N,Net-(J4-Pad08)*%
X97391876Y-145036234D02*
X97391876Y-137163735D01*
X91699376Y-150728734D02*
X97391876Y-145036234D01*
X91699376Y-156248734D02*
X91699376Y-150728734D01*
%TO.N,Net-(J4-Pad32)*%
X123191876Y-155236234D02*
X122179376Y-156248734D01*
X123191876Y-137410734D02*
X123191876Y-155236234D01*
D25*
%TO.N,Net-(F1-Pad2)*%
X92940376Y-136478734D02*
X89744475Y-139674635D01*
X88609376Y-126518734D02*
X88609376Y-129156734D01*
X89744475Y-139674635D02*
X87733376Y-139674635D01*
X92940376Y-133487734D02*
X92940376Y-136478734D01*
X88609376Y-129156734D02*
X92940376Y-133487734D01*
%TO.N,Net-(D1-K)*%
X82605376Y-144114734D02*
X82605376Y-146866734D01*
X80409376Y-128118734D02*
X78549376Y-129978734D01*
X78549376Y-140058734D02*
X82605376Y-144114734D01*
X84079376Y-156248734D02*
X85339376Y-156248734D01*
D26*
X84079376Y-156248734D02*
X82866376Y-155035734D01*
D25*
X78549376Y-129978734D02*
X78549376Y-135984734D01*
D26*
X82866376Y-153860734D02*
X82859376Y-153853734D01*
X82859376Y-150931734D02*
X82859376Y-147120734D01*
X82866376Y-155035734D02*
X82866376Y-153860734D01*
D25*
X81909376Y-128118734D02*
X80409376Y-128118734D01*
X78549376Y-140058734D02*
X78549376Y-135984734D01*
D26*
X82859376Y-147120734D02*
X82605376Y-146866734D01*
D25*
X86619376Y-156248734D02*
X85379376Y-156248734D01*
D24*
%TO.N,Net-(J4-Pad10)*%
X94239376Y-156248734D02*
X102591876Y-147896234D01*
X102591876Y-147896234D02*
X102591876Y-137185734D01*
%TO.N,Net-(IC3-I{slash}O2_2)*%
X114241876Y-133795734D02*
X114241876Y-134230734D01*
X114241876Y-134230734D02*
X115891876Y-135880734D01*
%TO.N,Net-(IC3-I{slash}O1_2)*%
X112341876Y-133795734D02*
X112341876Y-134130734D01*
X112341876Y-134130734D02*
X110591876Y-135880734D01*
%TO.N,Net-(J4-Pad07)*%
X93053376Y-157434734D02*
X102350634Y-157434734D01*
X110591876Y-146881234D02*
X110591876Y-137410734D01*
X110783876Y-137602734D02*
X110591876Y-137410734D01*
X102350634Y-157434734D02*
X103213376Y-156571992D01*
X103213376Y-156571992D02*
X103213376Y-154259734D01*
X110746376Y-137565234D02*
X110591876Y-137410734D01*
X91699376Y-158788734D02*
X93053376Y-157434734D01*
X103213376Y-154259734D02*
X110591876Y-146881234D01*
%TO.N,Net-(J4-Pad33)*%
X125983376Y-157524734D02*
X125983376Y-154708734D01*
X128591876Y-152100234D02*
X128591876Y-137410734D01*
X125983376Y-154708734D02*
X128591876Y-152100234D01*
X124719376Y-158788734D02*
X125983376Y-157524734D01*
%TO.N,Net-(J4-Pad29)*%
X118372376Y-139891234D02*
X115891876Y-137410734D01*
X119639376Y-158788734D02*
X118372376Y-157521734D01*
X118372376Y-157521734D02*
X118372376Y-139891234D01*
%TD*%
M02*
