%TF.GenerationSoftware,KiCad,Pcbnew,9.0.7*%
%TF.CreationDate,2026-02-25T11:33:04-05:00*%
%TF.ProjectId,ALT6 TELEM CPLT EXT,414c5436-2054-4454-9c45-4d2043504c54,rev?*%
%TF.SameCoordinates,Original*%
%TF.FileFunction,Soldermask,Top*%
%TF.FilePolarity,Negative*%
%FSLAX46Y46*%
G04 Gerber Fmt 4.6, Leading zero omitted, Abs format (unit mm)*
G04 Created by KiCad (PCBNEW 9.0.7) date 2026-02-25 11:33:04*
%MOMM*%
%LPD*%
G01*
G04 APERTURE LIST*
G04 Aperture macros list*
%AMRoundRect*
0 Rectangle with rounded corners*
0 $1 Rounding radius*
0 $2 $3 $4 $5 $6 $7 $8 $9 X,Y pos of 4 corners*
0 Add a 4 corners polygon primitive as box body*
4,1,4,$2,$3,$4,$5,$6,$7,$8,$9,$2,$3,0*
0 Add four circle primitives for the rounded corners*
1,1,$1+$1,$2,$3*
1,1,$1+$1,$4,$5*
1,1,$1+$1,$6,$7*
1,1,$1+$1,$8,$9*
0 Add four rect primitives between the rounded corners*
20,1,$1+$1,$2,$3,$4,$5,0*
20,1,$1+$1,$4,$5,$6,$7,0*
20,1,$1+$1,$6,$7,$8,$9,0*
20,1,$1+$1,$8,$9,$2,$3,0*%
G04 Aperture macros list end*
%ADD10R,0.900000X1.000000*%
%ADD11R,0.950000X1.400000*%
%ADD12O,1.752600X1.168400*%
%ADD13C,1.320800*%
%ADD14C,5.700000*%
%ADD15O,1.168400X1.752600*%
%ADD16RoundRect,0.102000X0.685000X0.685000X-0.685000X0.685000X-0.685000X-0.685000X0.685000X-0.685000X0*%
%ADD17C,1.574000*%
G04 APERTURE END LIST*
D10*
%TO.C,R5*%
X88109376Y-152318734D03*
X89709376Y-152318734D03*
%TD*%
D11*
%TO.C,LED1*%
X84759376Y-152318734D03*
X82859376Y-152318734D03*
%TD*%
D12*
%TO.C,J3*%
X90083376Y-135324633D03*
X90083376Y-142024634D03*
D13*
X87733376Y-137674634D03*
X87733376Y-139674635D03*
%TD*%
D14*
%TO.C,REF\u002A\u002A*%
X138709376Y-119818734D03*
%TD*%
%TO.C,REF\u002A\u002A*%
X79207495Y-157886598D03*
%TD*%
D15*
%TO.C,J1*%
X105536976Y-129295734D03*
X96836976Y-129295734D03*
D13*
X103186976Y-126945734D03*
X101186976Y-126945734D03*
X99186975Y-126945734D03*
%TD*%
D15*
%TO.C,J5*%
X118636976Y-129342733D03*
X109936976Y-129342733D03*
D13*
X116286976Y-126992733D03*
X114286976Y-126992733D03*
X112286975Y-126992733D03*
%TD*%
D15*
%TO.C,J2*%
X131536976Y-129342733D03*
X122836976Y-129342733D03*
D13*
X129186976Y-126992733D03*
X127186976Y-126992733D03*
X125186975Y-126992733D03*
%TD*%
D14*
%TO.C,REF\u002A\u002A*%
X137207495Y-157886598D03*
%TD*%
%TO.C,REF\u002A\u002A*%
X80709376Y-119818734D03*
%TD*%
D16*
%TO.C,J4*%
X84079376Y-158788734D03*
D17*
X84079376Y-156248734D03*
X86619376Y-158788734D03*
X86619376Y-156248734D03*
X89159376Y-158788734D03*
X89159376Y-156248734D03*
X91699376Y-158788734D03*
X91699376Y-156248734D03*
X94239376Y-158788734D03*
X94239376Y-156248734D03*
X96779376Y-158788734D03*
X96779376Y-156248734D03*
X99319376Y-158788734D03*
X99319376Y-156248734D03*
X101859376Y-158788734D03*
X101859376Y-156248734D03*
X104399376Y-158788734D03*
X104399376Y-156248734D03*
X106939376Y-158788734D03*
X106939376Y-156248734D03*
X109479376Y-158788734D03*
X109479376Y-156248734D03*
X112019376Y-158788734D03*
X112019376Y-156248734D03*
X114559376Y-158788734D03*
X114559376Y-156248734D03*
X117099376Y-158788734D03*
X117099376Y-156248734D03*
X119639376Y-158788734D03*
X119639376Y-156248734D03*
X122179376Y-158788734D03*
X122179376Y-156248734D03*
X124719376Y-158788734D03*
X124719376Y-156248734D03*
X127259376Y-158788734D03*
X127259376Y-156248734D03*
X129799376Y-158788734D03*
X129799376Y-156248734D03*
X132339376Y-158788734D03*
X132339376Y-156248734D03*
%TD*%
M02*
