%TF.GenerationSoftware,KiCad,Pcbnew,9.0.7*%
%TF.CreationDate,2026-02-24T18:40:33-05:00*%
%TF.ProjectId,ALT6 TELEM CPLT EXT,414c5436-2054-4454-9c45-4d2043504c54,rev?*%
%TF.SameCoordinates,Original*%
%TF.FileFunction,Soldermask,Bot*%
%TF.FilePolarity,Negative*%
%FSLAX46Y46*%
G04 Gerber Fmt 4.6, Leading zero omitted, Abs format (unit mm)*
G04 Created by KiCad (PCBNEW 9.0.7) date 2026-02-24 18:40:33*
%MOMM*%
%LPD*%
G01*
G04 APERTURE LIST*
G04 Aperture macros list*
%AMRoundRect*
0 Rectangle with rounded corners*
0 $1 Rounding radius*
0 $2 $3 $4 $5 $6 $7 $8 $9 X,Y pos of 4 corners*
0 Add a 4 corners polygon primitive as box body*
4,1,4,$2,$3,$4,$5,$6,$7,$8,$9,$2,$3,0*
0 Add four circle primitives for the rounded corners*
1,1,$1+$1,$2,$3*
1,1,$1+$1,$4,$5*
1,1,$1+$1,$6,$7*
1,1,$1+$1,$8,$9*
0 Add four rect primitives between the rounded corners*
20,1,$1+$1,$2,$3,$4,$5,0*
20,1,$1+$1,$4,$5,$6,$7,0*
20,1,$1+$1,$6,$7,$8,$9,0*
20,1,$1+$1,$8,$9,$2,$3,0*%
G04 Aperture macros list end*
%ADD10C,5.700000*%
%ADD11RoundRect,0.102000X0.490000X-0.430000X0.490000X0.430000X-0.490000X0.430000X-0.490000X-0.430000X0*%
%ADD12RoundRect,0.102000X-0.485000X0.490000X-0.485000X-0.490000X0.485000X-0.490000X0.485000X0.490000X0*%
%ADD13RoundRect,0.102000X0.685000X0.685000X-0.685000X0.685000X-0.685000X-0.685000X0.685000X-0.685000X0*%
%ADD14C,1.574000*%
%ADD15RoundRect,0.102000X-1.750000X-0.800000X1.750000X-0.800000X1.750000X0.800000X-1.750000X0.800000X0*%
%ADD16R,2.000000X5.300000*%
%ADD17C,1.320800*%
%ADD18O,1.168400X1.752600*%
%ADD19O,1.752600X1.168400*%
%ADD20R,0.600000X1.200000*%
%ADD21R,2.200000X2.150000*%
G04 APERTURE END LIST*
D10*
%TO.C,REF\u002A\u002A*%
X138709376Y-119818734D03*
%TD*%
%TO.C,REF\u002A\u002A*%
X79207495Y-157886598D03*
%TD*%
D11*
%TO.C,R1*%
X97391876Y-135633735D03*
X97391876Y-137163735D03*
%TD*%
%TO.C,R4*%
X123191876Y-135880734D03*
X123191876Y-137410734D03*
%TD*%
D12*
%TO.C,C2*%
X128991876Y-132289734D03*
X128991876Y-130801734D03*
%TD*%
D10*
%TO.C,REF\u002A\u002A*%
X137207495Y-157886598D03*
%TD*%
%TO.C,REF\u002A\u002A*%
X80709376Y-119818734D03*
%TD*%
D11*
%TO.C,R3*%
X128591876Y-135880734D03*
X128591876Y-137410734D03*
%TD*%
%TO.C,R7*%
X110591876Y-135880734D03*
X110591876Y-137410734D03*
%TD*%
D13*
%TO.C,J4*%
X84079376Y-158788734D03*
D14*
X84079376Y-156248734D03*
X86619376Y-158788734D03*
X86619376Y-156248734D03*
X89159376Y-158788734D03*
X89159376Y-156248734D03*
X91699376Y-158788734D03*
X91699376Y-156248734D03*
X94239376Y-158788734D03*
X94239376Y-156248734D03*
X96779376Y-158788734D03*
X96779376Y-156248734D03*
X99319376Y-158788734D03*
X99319376Y-156248734D03*
X101859376Y-158788734D03*
X101859376Y-156248734D03*
X104399376Y-158788734D03*
X104399376Y-156248734D03*
X106939376Y-158788734D03*
X106939376Y-156248734D03*
X109479376Y-158788734D03*
X109479376Y-156248734D03*
X112019376Y-158788734D03*
X112019376Y-156248734D03*
X114559376Y-158788734D03*
X114559376Y-156248734D03*
X117099376Y-158788734D03*
X117099376Y-156248734D03*
X119639376Y-158788734D03*
X119639376Y-156248734D03*
X122179376Y-158788734D03*
X122179376Y-156248734D03*
X124719376Y-158788734D03*
X124719376Y-156248734D03*
X127259376Y-158788734D03*
X127259376Y-156248734D03*
X129799376Y-158788734D03*
X129799376Y-156248734D03*
X132339376Y-158788734D03*
X132339376Y-156248734D03*
%TD*%
D11*
%TO.C,R6*%
X115891876Y-135880734D03*
X115891876Y-137410734D03*
%TD*%
%TO.C,R2*%
X102591876Y-135655734D03*
X102591876Y-137185734D03*
%TD*%
D15*
%TO.C,C5*%
X82605376Y-146866734D03*
X88205376Y-146866734D03*
%TD*%
D12*
%TO.C,C1*%
X103244876Y-132384734D03*
X103244876Y-130896734D03*
%TD*%
%TO.C,C4*%
X116291876Y-132389734D03*
X116291876Y-130901734D03*
%TD*%
D16*
%TO.C,F1*%
X88609376Y-126518734D03*
X82009376Y-126518734D03*
%TD*%
D17*
%TO.C,J1*%
X99186975Y-126945734D03*
X101186976Y-126945734D03*
X103186976Y-126945734D03*
D18*
X96836976Y-129295734D03*
X105536976Y-129295734D03*
%TD*%
D17*
%TO.C,J3*%
X87733376Y-139674635D03*
X87733376Y-137674634D03*
D19*
X90083376Y-142024634D03*
X90083376Y-135324633D03*
%TD*%
D20*
%TO.C,IC1*%
X99041876Y-131248735D03*
X99991876Y-131248735D03*
X100941876Y-131248735D03*
X100941876Y-133748735D03*
X99991876Y-133748735D03*
X99041876Y-133748735D03*
%TD*%
D21*
%TO.C,D1*%
X82949376Y-135984734D03*
X78549376Y-135984734D03*
%TD*%
D20*
%TO.C,IC2*%
X124941876Y-131295734D03*
X125891876Y-131295734D03*
X126841876Y-131295734D03*
X126841876Y-133795734D03*
X125891876Y-133795734D03*
X124941876Y-133795734D03*
%TD*%
%TO.C,IC3*%
X112341876Y-131295734D03*
X113291876Y-131295734D03*
X114241876Y-131295734D03*
X114241876Y-133795734D03*
X113291876Y-133795734D03*
X112341876Y-133795734D03*
%TD*%
D18*
%TO.C,J2*%
X131536976Y-129342733D03*
X122836976Y-129342733D03*
D17*
X129186976Y-126992733D03*
X127186976Y-126992733D03*
X125186975Y-126992733D03*
%TD*%
D18*
%TO.C,J5*%
X118636976Y-129342733D03*
X109936976Y-129342733D03*
D17*
X116286976Y-126992733D03*
X114286976Y-126992733D03*
X112286975Y-126992733D03*
%TD*%
M02*
