%TF.GenerationSoftware,KiCad,Pcbnew,9.0.7*%
%TF.CreationDate,2026-02-25T11:33:04-05:00*%
%TF.ProjectId,ALT6 TELEM CPLT EXT,414c5436-2054-4454-9c45-4d2043504c54,rev?*%
%TF.SameCoordinates,Original*%
%TF.FileFunction,Paste,Bot*%
%TF.FilePolarity,Positive*%
%FSLAX46Y46*%
G04 Gerber Fmt 4.6, Leading zero omitted, Abs format (unit mm)*
G04 Created by KiCad (PCBNEW 9.0.7) date 2026-02-25 11:33:04*
%MOMM*%
%LPD*%
G01*
G04 APERTURE LIST*
%ADD10R,0.900000X0.650000*%
%ADD11R,0.600000X1.200000*%
%ADD12R,2.000000X5.300000*%
%ADD13R,2.200000X2.150000*%
%ADD14R,0.980000X0.860000*%
%ADD15R,0.970000X0.980000*%
%ADD16R,3.500000X1.600000*%
G04 APERTURE END LIST*
D10*
%TO.C,R6*%
X115891876Y-137370734D03*
X115891876Y-135920734D03*
%TD*%
%TO.C,R3*%
X128591876Y-137370734D03*
X128591876Y-135920734D03*
%TD*%
%TO.C,R2*%
X102591876Y-137145734D03*
X102591876Y-135695734D03*
%TD*%
D11*
%TO.C,IC3*%
X112341876Y-131295734D03*
X113291876Y-131295734D03*
X114241876Y-131295734D03*
X114241876Y-133795734D03*
X113291876Y-133795734D03*
X112341876Y-133795734D03*
%TD*%
%TO.C,IC2*%
X124941876Y-131295734D03*
X125891876Y-131295734D03*
X126841876Y-131295734D03*
X126841876Y-133795734D03*
X125891876Y-133795734D03*
X124941876Y-133795734D03*
%TD*%
%TO.C,IC1*%
X99041876Y-131248735D03*
X99991876Y-131248735D03*
X100941876Y-131248735D03*
X100941876Y-133748735D03*
X99991876Y-133748735D03*
X99041876Y-133748735D03*
%TD*%
D12*
%TO.C,F1*%
X82009376Y-126518734D03*
X88609376Y-126518734D03*
%TD*%
D13*
%TO.C,D1*%
X78549376Y-135984734D03*
X82949376Y-135984734D03*
%TD*%
D14*
%TO.C,R1*%
X97391876Y-137163735D03*
X97391876Y-135633735D03*
%TD*%
D15*
%TO.C,C2*%
X128991876Y-130801734D03*
X128991876Y-132289734D03*
%TD*%
D14*
%TO.C,R7*%
X110591876Y-137410734D03*
X110591876Y-135880734D03*
%TD*%
%TO.C,R4*%
X123191876Y-137410734D03*
X123191876Y-135880734D03*
%TD*%
D15*
%TO.C,C4*%
X116291876Y-130901734D03*
X116291876Y-132389734D03*
%TD*%
D16*
%TO.C,C5*%
X82605376Y-146866734D03*
X88205376Y-146866734D03*
%TD*%
D15*
%TO.C,C1*%
X103244876Y-130896734D03*
X103244876Y-132384734D03*
%TD*%
M02*
